<svg xmlns="http://www.w3.org/2000/svg" width="190" height="229.001" viewBox="0 0 190 229.001"><path d="M190,229H0V0H190V229ZM72.076,104.756h0l4,4.666v8l-2,8,8.662,9.666L87.4,151.419v7.333c-3.227,4.842-8.353,15.322-4.664,20.331a25.266,25.266,0,0,0,2.881,6.236c1.624,2.716,3.158,5.281,3.781,12.762.791,9.49,5.14,16.359,7.33,18.665l1.666,9.333,4,2.666c2.761-1.263,8.576-3.4,12.85-3.4a7.037,7.037,0,0,1,3.474.734c6.452-4.958,18.655-16.493,18.655-24.664,4.961-2.758,7.878-5.913,8.673-9.38.645-2.813-.144-5.825-2.343-8.952,5-4.472,13.734-11.766,17.656-15-.807-4.726-1.845-14.292,0-16.665a9.844,9.844,0,0,1-3.332-6.665V132.421c9.679-9.8,28.262-30.279,29.316-37.663s.461-11.077,0-12l-14.657,5.333-6.33-5.333,1.666-2C161.105,75,148.518,62.7,150.362,57.428c-3.426-5.8-4.331-10.821-4.331-12.666L139.7,35.1l4-7-4-5.333h-10.66c-6.568-.231-19.267-1.224-20.321-3.334a2.3,2.3,0,0,0-2.263-1.178,9.584,9.584,0,0,0-4.067,1.178v5.333c-3.8-.346-11.412-1.907-12.992-5.333A18.082,18.082,0,0,1,78.071,15.1l-4-2.333,4-2V5.433l-4-2.334L64.08,5.433H55.418L42.093,10.766H35.764l-1.666-2-2.332,4c-3.457,3-9.506,9.362-7.663,12,1.139,1.628,1.13,2.447.921,2.847a1,1,0,0,1-.921.486C19.15,31.325,9.292,39.521,7.448,47.428A35.275,35.275,0,0,1,4.984,57.606c-.035-.1-.119-.323-.168-.323-.023,0-.034.049-.034.145,0,.2.026.3.077.3.032,0,.074-.039.125-.117A40.765,40.765,0,0,1,6.5,67.661,20.762,20.762,0,0,1,5.831,74a6.178,6.178,0,0,1-3.047,4.092,139.548,139.548,0,0,0,15.324,22l9.994,7c2.6-1.105,8.223-2.976,12.769-2.976a10.3,10.3,0,0,1,3.888.642c6.566-2.815,11.369-4.242,14.276-4.242,1.564,0,2.589.418,3.046,1.243a22.691,22.691,0,0,0,4.331,5.333l5.663-2.333Z" fill="#77323b"/></svg>