<svg width="28" height="29" viewBox="0 0 28 29" fill="none" xmlns="http://www.w3.org/2000/svg">
<path d="M15.2196 26.8499C14.7434 26.9084 14.2588 26.9385 13.7672 26.9385C7.0236 26.9385 1.5 21.2757 1.5 14.2193C1.5 7.16282 7.0236 1.5 13.7672 1.5C20.5109 1.5 26.0345 7.16282 26.0345 14.2193C26.0345 16.5976 25.404 18.8177 24.3111 20.7186L24.0904 21.1025L24.2262 21.5239L25.9821 26.9706L20.541 25.4903C20.5012 25.4748 20.4526 25.4586 20.3965 25.4456L15.2196 26.8499ZM15.2196 26.8499C15.0195 26.5279 14.9431 26.1315 15.0256 25.745L15.0263 25.7417C15.1965 24.9578 15.9719 24.4319 16.7779 24.6127L16.7832 24.6139L19.731 25.2923L19.7543 25.2762L20.2021 25.3981L20.2633 25.4147L20.3949 25.4452L15.2196 26.8499Z" stroke="#77323B" stroke-width="2"/>
</svg>
