<svg width="14" height="22" viewBox="0 0 14 22" fill="none" xmlns="http://www.w3.org/2000/svg">
<path d="M0.8125 6.57425H3.7825C3.7825 4.817 4.813 3.46025 6.8425 3.46025C8.38375 3.46025 9.79675 4.232 9.79675 6.08825C9.79675 7.517 8.95525 8.174 7.6255 9.173C6.11125 10.2733 4.912 11.558 4.9975 13.6438L5.01325 14.6855H7.954V13.8868C7.954 12.2712 8.56825 11.801 10.2265 10.5433C11.5968 9.5015 13.0255 8.345 13.0255 5.91725C13.0255 2.5175 10.1545 0.875 7.01125 0.875C4.02775 0.875 0.74275 2.33075 0.81475 6.57425H0.8125ZM4.327 18.9852C4.327 20.1845 5.28325 21.071 6.5995 21.071C7.96975 21.071 8.9125 20.1845 8.9125 18.9852C8.9125 17.7432 7.9675 16.8703 6.59725 16.8703C5.28325 16.8703 4.327 17.7432 4.327 18.9852Z" fill="#77323B"/>
</svg>
