<svg width="34" height="31" viewBox="0 0 34 31" fill="none" xmlns="http://www.w3.org/2000/svg">
<path d="M27.5 12.5V30.5H33.5V12.5H27.5ZM21.5 30.5C22.2956 30.5 23.0587 30.1839 23.6213 29.6213C24.1839 29.0587 24.5 28.2956 24.5 27.5V12.5C24.5 11.675 24.17 10.925 23.615 10.385L13.745 0.5L12.155 2.09C11.75 2.495 11.495 3.05 11.495 3.665L11.54 4.145L12.965 11H3.5C1.835 11 0.5 12.35 0.5 14V17C0.5 17.39 0.575001 17.75 0.709999 18.095L5.24 28.67C5.69 29.75 6.755 30.5 8 30.5H21.5ZM21.5 27.5H7.955L3.5 17V14H16.685L14.99 6.02L21.5 12.545V27.5Z" fill="#77323B"/>
</svg>
