<svg width="24" height="24" viewBox="0 0 24 24" fill="#ffffff" xmlns="http://www.w3.org/2000/svg">
<path d="M15.5763 6.38525H8.42317C7.28144 6.38525 6.35254 7.31415 6.35254 8.45589V15.609C6.35254 16.7507 7.28144 17.6799 8.42317 17.6799H15.5763C16.718 17.6799 17.6472 16.751 17.6472 15.609V8.45589C17.6472 7.31415 16.7183 6.38525 15.5763 6.38525ZM11.9997 15.7507C9.94968 15.7507 8.28173 14.0828 8.28173 12.0324C8.28173 9.98239 9.94968 8.31444 11.9997 8.31444C14.05 8.31444 15.718 9.98239 15.718 12.0324C15.718 14.0825 14.0498 15.7507 11.9997 15.7507ZM15.8375 9.08318C15.3522 9.08318 14.9575 8.68851 14.9575 8.20348C14.9575 7.71844 15.3522 7.32378 15.8375 7.32378C16.3225 7.32378 16.7172 7.71844 16.7172 8.20348C16.7172 8.68851 16.3225 9.08318 15.8375 9.08318Z" fill="#77323B"/>
<path d="M12.0001 9.88574C10.8167 9.88574 9.85303 10.8489 9.85303 12.0323C9.85303 13.2163 10.8167 14.1797 12.0001 14.1797C13.1841 14.1797 14.147 13.2163 14.147 12.0323C14.147 10.8491 13.1839 9.88574 12.0001 9.88574Z" fill="#77323B"/>
<path d="M12 0C5.37285 0 0 5.37285 0 12C0 18.6272 5.37285 24 12 24C18.6272 24 24 18.6272 24 12C24 5.37285 18.6272 0 12 0ZM19.2183 15.6089C19.2183 17.6172 17.5849 19.2507 15.5766 19.2507H8.42345C6.41538 19.2507 4.78166 17.6172 4.78166 15.6089V8.4558C4.78166 6.44774 6.41538 4.81401 8.42345 4.81401H15.5766C17.5849 4.81401 19.2183 6.44774 19.2183 8.4558V15.6089Z" fill="#77323B"/>
</svg>