<svg width="24" height="24" viewBox="0 0 24 24" fill="none" xmlns="http://www.w3.org/2000/svg">
<path d="M12 24C18.6274 24 24 18.6274 24 12C24 5.37258 18.6274 0 12 0C5.37258 0 0 5.37258 0 12C0 18.6274 5.37258 24 12 24Z" fill="#77323B"/>
<path d="M19.1698 12.9661V17.9134H16.3014V13.2976C16.3014 12.1387 15.8873 11.3472 14.8488 11.3472C14.0562 11.3472 13.5854 11.88 13.3775 12.396C13.302 12.5804 13.2825 12.8364 13.2825 13.0951V17.9132H10.4139C10.4139 17.9132 10.4525 10.0956 10.4139 9.28637H13.2827V10.5089C13.2769 10.5185 13.2688 10.5279 13.2637 10.5371H13.2827V10.5089C13.6639 9.92233 14.3437 9.08379 15.8678 9.08379C17.755 9.08379 19.1698 10.3168 19.1698 12.9661ZM7.4132 5.12793C6.43199 5.12793 5.79004 5.77202 5.79004 6.61825C5.79004 7.44652 6.41338 8.10921 7.37555 8.10921H7.39416C8.39462 8.10921 9.01668 7.44652 9.01668 6.61825C8.99764 5.77202 8.39462 5.12793 7.4132 5.12793ZM5.96053 17.9134H8.82801V9.28637H5.96053V17.9134Z" fill="#F1F2F2"/>
</svg>