<svg width="24" height="24" viewBox="0 0 24 24" fill="none" xmlns="http://www.w3.org/2000/svg">
<path d="M12 24C18.6274 24 24 18.6274 24 12C24 5.37258 18.6274 0 12 0C5.37258 0 0 5.37258 0 12C0 18.6274 5.37258 24 12 24Z" fill="#77323B"/>
<path d="M19.3504 8.62437C18.8362 8.8524 18.283 9.00663 17.7029 9.07551C18.2952 8.72063 18.7498 8.15911 18.9643 7.48893C18.4101 7.81771 17.796 8.05622 17.1429 8.18478C16.6197 7.62754 15.8742 7.2793 15.0487 7.2793C13.4649 7.2793 12.1804 8.56383 12.1804 10.1476C12.1804 10.3725 12.2058 10.5913 12.255 10.8013C9.87118 10.6818 7.75752 9.53991 6.34271 7.80402C6.09586 8.22757 5.95425 8.72063 5.95425 9.24621C5.95425 10.2411 6.461 11.1194 7.23023 11.6337C6.76027 11.6189 6.31768 11.4899 5.93115 11.2745C5.93093 11.2867 5.93093 11.2989 5.93093 11.3109C5.93093 12.7007 6.92006 13.8599 8.23198 14.1232C7.99154 14.1891 7.73763 14.2239 7.47644 14.2239C7.29119 14.2239 7.11172 14.2062 6.93674 14.1728C7.30168 15.3121 8.36075 16.1414 9.6162 16.1647C8.63434 16.9342 7.39772 17.3926 6.0535 17.3926C5.82248 17.3926 5.59359 17.3791 5.36963 17.3524C6.63834 18.1665 8.14641 18.6412 9.76615 18.6412C15.0421 18.6412 17.9273 14.2706 17.9273 10.4798C17.9273 10.3556 17.9245 10.2317 17.919 10.1089C18.4798 9.70462 18.9661 9.19958 19.3504 8.62437Z" fill="#F1F2F2"/>
</svg>