<svg width="24" height="24" viewBox="0 0 24 24" fill="none" xmlns="http://www.w3.org/2000/svg">
<path d="M11.3211 0.0138795C4.98269 0.315677 -0.019173 5.59432 5.52517e-05 11.9399C0.00590982 13.8726 0.472496 15.6968 1.29558 17.3086L0.0318536 23.4429C-0.0365071 23.7747 0.262765 24.0652 0.5924 23.9872L6.60326 22.5631C8.14755 23.3323 9.8821 23.7766 11.7179 23.8047C18.1963 23.9036 23.5982 18.7596 23.8001 12.2836C24.0165 5.34171 18.2872 -0.317879 11.3211 0.0138795ZM18.4933 18.4934C16.733 20.2537 14.3925 21.2231 11.903 21.2231C10.4453 21.2231 9.04978 20.8961 7.75495 20.2511L6.91786 19.8341L3.23258 20.7072L4.00831 16.9416L3.59591 16.134C2.92372 14.8176 2.5829 13.394 2.5829 11.903C2.5829 9.4135 3.55234 7.07305 5.31267 5.31266C7.05728 3.56806 9.43595 2.58283 11.9032 2.58283C14.3926 2.58289 16.733 3.55233 18.4934 5.31261C20.2537 7.07294 21.2231 9.41339 21.2232 11.9028C21.2231 14.3701 20.2379 16.7488 18.4933 18.4934Z" fill="#77323B"/>
<path d="M17.6798 14.4839L15.3742 13.8219C15.0711 13.7349 14.7447 13.8209 14.5238 14.0459L13.96 14.6203C13.7223 14.8626 13.3615 14.9404 13.0469 14.8131C11.9562 14.3717 9.6619 12.3318 9.07599 11.3114C8.90695 11.0171 8.9349 10.6491 9.14245 10.3805L9.6347 9.74372C9.82755 9.49421 9.86825 9.15913 9.74071 8.8707L8.77069 6.67679C8.53834 6.15131 7.86685 5.99835 7.42816 6.36937C6.78467 6.91361 6.02117 7.74066 5.92835 8.6569C5.76471 10.2723 6.4575 12.3087 9.07731 14.7538C12.1039 17.5786 14.5276 17.9518 16.1056 17.5696C17.0007 17.3528 17.716 16.4836 18.1674 15.772C18.4752 15.2868 18.2321 14.6425 17.6798 14.4839Z" fill="#77323B"/>
</svg>