<svg xmlns="http://www.w3.org/2000/svg" width="35.026" height="75.394" viewBox="0 0 35.026 75.394">
  <g id="Group_12" data-name="Group 12" transform="translate(-94.707 -597.63)">
    <path id="Path_31" data-name="Path 31" d="M696.425,558.624v36.451a.949.949,0,0,0,.949.949H710.91a.949.949,0,0,0,.95-.949V558.03h9.813a.949.949,0,0,0,.946-.869L723.563,546a.949.949,0,0,0-.946-1.029H711.86v-7.919a3.36,3.36,0,0,1,3.361-3.361h7.563a.949.949,0,0,0,.949-.949V521.579a.949.949,0,0,0-.949-.949H710a13.578,13.578,0,0,0-13.579,13.579V544.97h-6.769a.95.95,0,0,0-.949.95v11.161a.949.949,0,0,0,.949.949h6.769Z" transform="translate(-594 77)" fill="#ffffff75" fill-rule="evenodd"/>
  </g>
</svg>
