<svg xmlns="http://www.w3.org/2000/svg" width="75.69" height="75.691" viewBox="0 0 75.69 75.691">
  <path id="Path_32" data-name="Path 32" d="M557.374,537.415a18.694,18.694,0,1,0,18.693,18.693,18.72,18.72,0,0,0-18.693-18.693m0,30.677a11.975,11.975,0,1,1,11.968-11.984,11.986,11.986,0,0,1-11.968,11.984m19.779-36.376a4.448,4.448,0,1,0,4.455,4.441,4.436,4.436,0,0,0-4.455-4.441m0,0a4.448,4.448,0,1,0,4.455,4.441,4.436,4.436,0,0,0-4.455-4.441m-19.779,5.7a18.694,18.694,0,1,0,18.693,18.693,18.72,18.72,0,0,0-18.693-18.693m0,30.677a11.975,11.975,0,1,1,11.968-11.984,11.986,11.986,0,0,1-11.968,11.984M572.3,517.778H542.192A22.8,22.8,0,0,0,519.4,540.57v30.106a22.8,22.8,0,0,0,22.792,22.793H572.3a22.8,22.8,0,0,0,22.792-22.793V540.57A22.8,22.8,0,0,0,572.3,517.778m15.652,52.9A15.659,15.659,0,0,1,572.3,586.328H542.192a15.658,15.658,0,0,1-15.652-15.652V540.57a15.657,15.657,0,0,1,15.652-15.651H572.3A15.657,15.657,0,0,1,587.95,540.57Zm-10.8-38.96a4.448,4.448,0,1,0,4.455,4.441,4.436,4.436,0,0,0-4.455-4.441m-19.779,5.7a18.694,18.694,0,1,0,18.693,18.693,18.72,18.72,0,0,0-18.693-18.693m0,30.677a11.975,11.975,0,1,1,11.968-11.984,11.986,11.986,0,0,1-11.968,11.984M572.3,517.778H542.192A22.8,22.8,0,0,0,519.4,540.57v30.106a22.8,22.8,0,0,0,22.792,22.793H572.3a22.8,22.8,0,0,0,22.792-22.793V540.57A22.8,22.8,0,0,0,572.3,517.778m15.652,52.9A15.659,15.659,0,0,1,572.3,586.328H542.192a15.658,15.658,0,0,1-15.652-15.652V540.57a15.657,15.657,0,0,1,15.652-15.651H572.3A15.657,15.657,0,0,1,587.95,540.57Zm-10.8-38.96a4.448,4.448,0,1,0,4.455,4.441,4.436,4.436,0,0,0-4.455-4.441m-19.779,5.7a18.694,18.694,0,1,0,18.693,18.693,18.72,18.72,0,0,0-18.693-18.693m0,30.677a11.975,11.975,0,1,1,11.968-11.984,11.986,11.986,0,0,1-11.968,11.984M572.3,517.778H542.192A22.8,22.8,0,0,0,519.4,540.57v30.106a22.8,22.8,0,0,0,22.792,22.793H572.3a22.8,22.8,0,0,0,22.792-22.793V540.57A22.8,22.8,0,0,0,572.3,517.778m15.652,52.9A15.659,15.659,0,0,1,572.3,586.328H542.192a15.658,15.658,0,0,1-15.652-15.652V540.57a15.657,15.657,0,0,1,15.652-15.651H572.3A15.657,15.657,0,0,1,587.95,540.57Zm-10.8-38.96a4.448,4.448,0,1,0,4.455,4.441,4.436,4.436,0,0,0-4.455-4.441m-19.779,5.7a18.694,18.694,0,1,0,18.693,18.693,18.72,18.72,0,0,0-18.693-18.693m0,30.677a11.975,11.975,0,1,1,11.968-11.984,11.986,11.986,0,0,1-11.968,11.984m0-30.677a18.694,18.694,0,1,0,18.693,18.693,18.72,18.72,0,0,0-18.693-18.693m0,30.677a11.975,11.975,0,1,1,11.968-11.984,11.986,11.986,0,0,1-11.968,11.984m19.779-36.376a4.448,4.448,0,1,0,4.455,4.441,4.436,4.436,0,0,0-4.455-4.441m0,0a4.448,4.448,0,1,0,4.455,4.441,4.436,4.436,0,0,0-4.455-4.441m-19.779,5.7a18.694,18.694,0,1,0,18.693,18.693,18.72,18.72,0,0,0-18.693-18.693m0,30.677a11.975,11.975,0,1,1,11.968-11.984,11.986,11.986,0,0,1-11.968,11.984M572.3,517.778H542.192A22.8,22.8,0,0,0,519.4,540.57v30.106a22.8,22.8,0,0,0,22.792,22.793H572.3a22.8,22.8,0,0,0,22.792-22.793V540.57A22.8,22.8,0,0,0,572.3,517.778m15.652,52.9A15.659,15.659,0,0,1,572.3,586.328H542.192a15.658,15.658,0,0,1-15.652-15.652V540.57a15.657,15.657,0,0,1,15.652-15.651H572.3A15.657,15.657,0,0,1,587.95,540.57Zm-10.8-38.96a4.448,4.448,0,1,0,4.455,4.441,4.436,4.436,0,0,0-4.455-4.441m-19.779,5.7a18.694,18.694,0,1,0,18.693,18.693,18.72,18.72,0,0,0-18.693-18.693m0,30.677a11.975,11.975,0,1,1,11.968-11.984,11.986,11.986,0,0,1-11.968,11.984m19.779-36.376a4.448,4.448,0,1,0,4.455,4.441,4.436,4.436,0,0,0-4.455-4.441m-19.779,5.7a18.694,18.694,0,1,0,18.693,18.693,18.72,18.72,0,0,0-18.693-18.693m0,30.677a11.975,11.975,0,1,1,11.968-11.984,11.986,11.986,0,0,1-11.968,11.984m0-30.677a18.694,18.694,0,1,0,18.693,18.693,18.72,18.72,0,0,0-18.693-18.693m0,30.677a11.975,11.975,0,1,1,11.968-11.984,11.986,11.986,0,0,1-11.968,11.984m19.779-36.376a4.448,4.448,0,1,0,4.455,4.441,4.436,4.436,0,0,0-4.455-4.441m0,0a4.448,4.448,0,1,0,4.455,4.441,4.436,4.436,0,0,0-4.455-4.441m-19.779,5.7a18.694,18.694,0,1,0,18.693,18.693,18.72,18.72,0,0,0-18.693-18.693m0,30.677a11.975,11.975,0,1,1,11.968-11.984,11.986,11.986,0,0,1-11.968,11.984M572.3,517.778H542.192A22.8,22.8,0,0,0,519.4,540.57v30.106a22.8,22.8,0,0,0,22.792,22.793H572.3a22.8,22.8,0,0,0,22.792-22.793V540.57A22.8,22.8,0,0,0,572.3,517.778m15.652,52.9A15.659,15.659,0,0,1,572.3,586.328H542.192a15.658,15.658,0,0,1-15.652-15.652V540.57a15.657,15.657,0,0,1,15.652-15.651H572.3A15.657,15.657,0,0,1,587.95,540.57Zm-10.8-38.96a4.448,4.448,0,1,0,4.455,4.441,4.436,4.436,0,0,0-4.455-4.441m-19.779,5.7a18.694,18.694,0,1,0,18.693,18.693,18.72,18.72,0,0,0-18.693-18.693m0,30.677a11.975,11.975,0,1,1,11.968-11.984,11.986,11.986,0,0,1-11.968,11.984m0-30.677a18.694,18.694,0,1,0,18.693,18.693,18.72,18.72,0,0,0-18.693-18.693m0,30.677a11.975,11.975,0,1,1,11.968-11.984,11.986,11.986,0,0,1-11.968,11.984m19.779-36.376a4.448,4.448,0,1,0,4.455,4.441,4.436,4.436,0,0,0-4.455-4.441" transform="translate(-519.4 -517.778)" fill="#ffffff75"/>
</svg>
