<svg width="92" height="35" viewBox="0 0 92 35" fill="none" xmlns="http://www.w3.org/2000/svg">
<path d="M12.486 13.5165L14.7869 5.29915L17.0878 13.5165H18.6416L22.8549 0.30896H21.1815L17.8647 10.6778L15.4443 2.10184H14.1295L11.7091 10.6778L8.42217 0.30896H6.50977L10.723 13.5165H12.486Z" fill="#ffffff"/>
<path d="M33.1047 11.873H26.9193V7.86894H32.1485V6.19559H26.9193V1.98231H32.8955V0.30896H25.1562V13.5165H33.1047V11.873Z" fill="#ffffff"/>
<path d="M46.3126 8.49642C46.9102 8.43665 47.4182 8.28725 47.8366 8.0482C48.2848 7.80914 48.6135 7.48046 48.8824 7.12188C49.1514 6.73342 49.3306 6.31508 49.48 5.86686C49.5996 5.41864 49.6593 4.94054 49.6593 4.43256C49.6593 3.89469 49.5996 3.38672 49.4203 2.90862C49.2709 2.43052 49.0617 1.98229 48.7629 1.59383C48.4641 1.20537 48.0756 0.876674 47.5676 0.637624C47.0596 0.398573 46.462 0.279053 45.8046 0.279053H40.8145V13.4866H42.5774V9.51239V6.37485V1.98228H45.7748C46.2529 1.98228 46.6712 2.10181 46.9999 2.37074C47.3286 2.60979 47.5676 2.9385 47.6872 3.29707C47.8067 3.65565 47.8963 4.04411 47.8963 4.49233C47.8963 4.82102 47.8664 5.11983 47.7768 5.38877C47.6872 5.6577 47.5676 5.92662 47.4182 6.16567C47.2389 6.40473 47.0298 6.58402 46.731 6.73343C46.4321 6.88283 46.1034 6.9426 45.715 6.9426H44.2209V8.61595H44.2508L47.6573 13.5762H49.8087L46.3126 8.49642Z" fill="#ffffff"/>
<path d="M54.3489 7.86894H59.5782V6.19559H54.3489V1.98231H60.3551V0.30896H52.5859V13.5165H60.5344V11.873H54.3489V7.86894Z" fill="#ffffff"/>
<path d="M86.1731 4.34294C85.9042 3.53615 85.5157 2.81898 85.0376 2.22136C84.5595 1.62373 83.932 1.14563 83.185 0.816937C82.4379 0.488243 81.6013 0.30896 80.7048 0.30896H75.625V13.5165H80.7048C81.6013 13.5165 82.4379 13.3372 83.185 13.0085C83.932 12.6798 84.5595 12.2017 85.0376 11.634C85.5456 11.0364 85.9042 10.3491 86.1731 9.54229C86.442 8.73549 86.5915 7.86895 86.5915 6.94262C86.5616 6.0163 86.442 5.14974 86.1731 4.34294ZM84.5296 8.88491C84.3504 9.48254 84.0814 9.99051 83.7527 10.4387C83.424 10.8869 82.9758 11.2156 82.4678 11.4846C81.93 11.7236 81.3323 11.8432 80.6749 11.8432H77.3581V1.95243H80.6749C81.5415 1.95243 82.3184 2.16161 82.9459 2.60983C83.5734 3.05805 84.0515 3.65567 84.3504 4.40271C84.6492 5.14974 84.7986 5.98641 84.7986 6.91273C84.7986 7.65976 84.7089 8.28728 84.5296 8.88491Z" fill="#ffffff"/>
<path d="M64.0918 33.9255H66.3628L71.2633 23.0188L76.1639 33.9255H78.4348L71.2633 18.0585L64.0918 33.9255Z" fill="#ffffff"/>
<path d="M62.209 13.5165H64.0616L68.1255 4.43258L72.1894 13.5165H74.042L68.1255 0.30896L62.209 13.5165Z" fill="#ffffff"/>
<path d="M17.1777 33.9255H19.2993V27.1424H24.9469V25.1404H19.2993V20.0605H26.4111V18.0585H17.1777V33.9255Z" fill="#ffffff"/>
<path d="M35.9124 27.8894C36.6295 27.8296 37.2271 27.6504 37.765 27.3515C38.3029 27.0527 38.7212 26.6643 39.0499 26.2161C39.3786 25.7678 39.5878 25.2599 39.7671 24.722C39.9165 24.1841 40.0061 23.6164 40.0061 22.9889C40.0061 22.3614 39.9165 21.7339 39.7372 21.1661C39.5579 20.5984 39.289 20.0605 38.9304 19.5824C38.5718 19.1043 38.0937 18.7158 37.4662 18.4469C36.8387 18.1481 36.1514 18.0286 35.3446 18.0286H29.3086V33.8956H31.4601V20.0306H35.3446C35.9423 20.0306 36.4203 20.18 36.8088 20.4788C37.1973 20.7777 37.4961 21.1362 37.6455 21.5845C37.7949 22.0028 37.8845 22.4809 37.8845 23.0188C37.8845 23.4072 37.8248 23.7658 37.7351 24.0945C37.6455 24.4232 37.4961 24.7519 37.2869 25.0507C37.0777 25.3495 36.8088 25.5587 36.4502 25.7379C36.0916 25.9172 35.6733 25.977 35.2251 25.977H33.4322V27.979L37.5558 33.9254H40.1555L35.9124 27.8894Z" fill="#ffffff"/>
<path d="M45.6847 18.0585H43.5332V33.9255H45.6847V18.0585Z" fill="#ffffff"/>
<path d="M59.4298 31.5648C58.6827 31.9234 57.846 32.1027 56.9795 32.1027C55.9037 32.1027 54.8878 31.8338 53.9913 31.2959C53.0949 30.758 52.3778 30.011 51.8698 29.0847C51.3618 28.1583 51.0928 27.1424 51.0928 26.0368C51.0928 24.9311 51.3618 23.8853 51.8698 22.959C52.3778 22.0327 53.0949 21.2856 53.9913 20.7478C54.8878 20.2099 55.9037 19.941 56.9795 19.941C57.8162 19.941 58.623 20.1203 59.37 20.4788C60.117 20.8374 60.7744 21.3155 61.3422 21.9131L62.9557 20.5685C62.2386 19.7318 61.372 19.0744 60.3262 18.5963C59.3102 18.1182 58.1747 17.8792 56.9795 17.8792C55.5153 17.8792 54.1706 18.2377 52.9156 18.9848C51.6905 19.7019 50.7044 20.688 50.0171 21.943C49.3 23.198 48.9414 24.5726 48.9414 26.0368C48.9414 27.1424 49.1506 28.1882 49.5689 29.2042C49.9872 30.1903 50.555 31.0568 51.2721 31.8039C51.9893 32.521 52.8559 33.1186 53.8419 33.537C54.828 33.9553 55.8739 34.1645 56.9795 34.1645C58.2046 34.1645 59.3102 33.9254 60.3561 33.4473C61.4019 32.9692 62.2685 32.3119 62.9856 31.4453L61.372 30.0707C60.8342 30.7281 60.2067 31.2062 59.4298 31.5648Z" fill="#ffffff"/>
<path d="M89.8492 29.9214L82.7075 18.0585H80.5859V33.9255H82.7075V21.9729L89.9388 33.9255H92.0006V18.0585H89.8492V29.9214Z" fill="#ffffff"/>
<path d="M0.414062 33.9254H2.68505L7.58559 22.9889L12.4861 33.9254H14.7571L7.58559 18.0286L0.414062 33.9254Z" fill="#ffffff"/>
</svg>
