<svg xmlns="http://www.w3.org/2000/svg" width="51.73" height="64.218" viewBox="0 0 51.73 64.218">
  <path id="Path_34" data-name="Path 34" d="M200.61,571.741c-4.047-.313-5.749-2.32-8.923-4.248-1.414,7.422-3.083,14.594-7.03,19.486a2,2,0,0,1-3.559-1.12c-.6-11.823,3.487-21.21,5.493-31.11-3.81-6.414.458-19.323,8.495-16.142,9.891,3.911-8.563,23.848,3.825,26.338,12.934,2.6,18.214-22.441,10.193-30.587-11.589-11.76-33.733-.267-31.01,16.568.516,3.2,3.2,4.666,2.859,7.829a2.815,2.815,0,0,1-4.028,2.26c-5.13-2.4-6.721-7.652-6.477-14.335.459-12.767,11.471-21.706,22.515-22.942,13.968-1.564,27.079,5.128,28.888,18.268,2.036,14.828-6.306,30.888-21.241,29.735" transform="translate(-170.424 -523.514)" fill="#ffffff75"/>
</svg>
