<svg xmlns="http://www.w3.org/2000/svg" width="82.037" height="67.572" viewBox="0 0 82.037 67.572">
  <path id="Path_35" data-name="Path 35" d="M909.692,532.539a33.747,33.747,0,0,1-8.287,2.367c1.335-.224,3.3-2.641,4.09-3.619a15.272,15.272,0,0,0,2.761-5.025c.07-.143.125-.324-.019-.432a.469.469,0,0,0-.438.037,42.392,42.392,0,0,1-9.844,3.767.659.659,0,0,1-.679-.18,7.824,7.824,0,0,0-.86-.88,17.438,17.438,0,0,0-4.769-2.922,16.579,16.579,0,0,0-7.313-1.177,17.472,17.472,0,0,0-6.938,1.959,17.886,17.886,0,0,0-5.6,4.572,17.194,17.194,0,0,0-3.343,6.7,18.129,18.129,0,0,0-.178,7.069c.054.395.018.448-.339.395-13.52-2.013-24.727-6.851-33.825-17.217-.394-.45-.61-.45-.932.034-3.981,5.968-2.049,15.555,2.923,20.266.664.628,1.345,1.256,2.08,1.829a17.232,17.232,0,0,1-6.528-1.829c-.394-.25-.593-.1-.628.342a10.318,10.318,0,0,0,.107,1.937,17.351,17.351,0,0,0,10.69,13.828,10.111,10.111,0,0,0,2.169.664,19.406,19.406,0,0,1-6.4.2c-.466-.09-.645.142-.466.591,2.816,7.677,8.9,9.962,13.45,11.263.609.107,1.219.107,1.831.249-.037.056-.073.056-.108.109-1.511,2.3-6.747,4.016-9.186,4.869a32.9,32.9,0,0,1-13.951,1.785c-.75-.11-.907-.1-1.11,0-.206.127-.027.306.215.5.951.628,1.918,1.186,2.9,1.723a45.971,45.971,0,0,0,9.326,3.729c16.758,4.629,35.637,1.228,48.221-11.274,9.881-9.819,13.344-23.358,13.344-36.915,0-.531.627-.823,1-1.1a32.491,32.491,0,0,0,6.532-6.825,1.984,1.984,0,0,0,.4-1.308v-.071c0-.217.027-.152-.307,0" transform="translate(-827.963 -524.44)" fill="#ffffff75"/>
</svg>
