<svg xmlns="http://www.w3.org/2000/svg" width="88.7" height="62.09" viewBox="0 0 88.7 62.09">
  <path id="Path_33" data-name="Path 33" d="M415.166,543.888a19.309,19.309,0,0,0-19.309-19.31H345.775a19.309,19.309,0,0,0-19.309,19.31v23.47a19.309,19.309,0,0,0,19.309,19.31h50.082a19.309,19.309,0,0,0,19.309-19.31Zm-31.6,12.918L363.6,567.761c-.868.47-1.649-.159-1.649-1.146V544.129c0-1,.8-1.627,1.674-1.133l20.11,11.531a1.309,1.309,0,0,1-.162,2.279" transform="translate(-326.466 -524.578)" fill="#ffffff75"/>
</svg>
