<svg width="24" height="24" viewBox="0 0 24 24" fill="none" xmlns="http://www.w3.org/2000/svg">
<path d="M19 5H18V3H16V5H8V3H6V5H5C4.46957 5 3.96086 5.21071 3.58579 5.58579C3.21071 5.96086 3 6.46957 3 7V21C3 21.5304 3.21071 22.0391 3.58579 22.4142C3.96086 22.7893 4.46957 23 5 23H19C19.5304 23 20.0391 22.7893 20.4142 22.4142C20.7893 22.0391 21 21.5304 21 21V7C21 6.46957 20.7893 5.96086 20.4142 5.58579C20.0391 5.21071 19.5304 5 19 5ZM19 21H5V11H19V21ZM5 9V7H19V9H5ZM10.56 19.46L16.5 13.53L15.43 12.47L10.56 17.34L8.45 15.23L7.39 16.29L10.56 19.46Z" fill="#303030"/>
</svg>
