<svg width="20" height="20" viewBox="0 0 20 20" fill="none" xmlns="http://www.w3.org/2000/svg">
<path d="M8.59031 11.4099C9.00031 11.7999 9.00031 12.4399 8.59031 12.8299C8.20031 13.2199 7.56031 13.2199 7.17031 12.8299C5.22031 10.8799 5.22031 7.70995 7.17031 5.75995L10.7103 2.21995C12.6603 0.269946 15.8303 0.269946 17.7803 2.21995C19.7303 4.16995 19.7303 7.33995 17.7803 9.28995L16.2903 10.7799C16.3003 9.95995 16.1703 9.13995 15.8903 8.35995L16.3603 7.87995C17.5403 6.70995 17.5403 4.80995 16.3603 3.63995C15.1903 2.45995 13.2903 2.45995 12.1203 3.63995L8.59031 7.16995C7.41031 8.33995 7.41031 10.2399 8.59031 11.4099ZM11.4103 7.16995C11.8003 6.77995 12.4403 6.77995 12.8303 7.16995C14.7803 9.11995 14.7803 12.2899 12.8303 14.2399L9.29031 17.7799C7.34031 19.7299 4.17031 19.7299 2.22031 17.7799C0.270313 15.8299 0.270313 12.6599 2.22031 10.7099L3.71031 9.21995C3.70031 10.0399 3.83031 10.8599 4.11031 11.6499L3.64031 12.1199C2.46031 13.2899 2.46031 15.1899 3.64031 16.3599C4.81031 17.5399 6.71031 17.5399 7.88031 16.3599L11.4103 12.8299C12.5903 11.6599 12.5903 9.75995 11.4103 8.58995C11.0003 8.19995 11.0003 7.55995 11.4103 7.16995Z" fill="black"/>
</svg>
