<svg width="16" height="5" viewBox="0 0 16 5" fill="none" xmlns="http://www.w3.org/2000/svg">
<path d="M2 0.901489C0.9 0.901489 0 1.79262 0 2.88178C0 3.97095 0.9 4.86208 2 4.86208C3.1 4.86208 4 3.97095 4 2.88178C4 1.79262 3.1 0.901489 2 0.901489ZM14 0.901489C12.9 0.901489 12 1.79262 12 2.88178C12 3.97095 12.9 4.86208 14 4.86208C15.1 4.86208 16 3.97095 16 2.88178C16 1.79262 15.1 0.901489 14 0.901489ZM8 0.901489C6.9 0.901489 6 1.79262 6 2.88178C6 3.97095 6.9 4.86208 8 4.86208C9.1 4.86208 10 3.97095 10 2.88178C10 1.79262 9.1 0.901489 8 0.901489Z" fill="#999999"/>
</svg>
