<svg width="18" height="19" viewBox="0 0 18 19" fill="none" xmlns="http://www.w3.org/2000/svg">
<path d="M15.5002 14.1182L16.4821 17.164L13.4637 16.3428C13.4278 16.3295 13.3856 16.3162 13.3378 16.3052L13.257 16.2865L13.2222 16.2771L12.7749 16.1554L12.7528 16.1706L10.9302 15.7511L10.9302 15.7511L10.9249 15.7499C10.2011 15.5875 9.50989 16.0597 9.35848 16.7571L9.35777 16.7604C9.32096 16.9328 9.31976 17.1078 9.35034 17.2756C9.18324 17.2867 9.01469 17.2924 8.84483 17.2924C4.5436 17.2924 1 13.677 1 9.14618C1 4.61536 4.5436 1 8.84483 1C13.1461 1 16.6897 4.61536 16.6897 9.14618C16.6897 10.6722 16.2853 12.0951 15.5851 13.3129L15.3644 13.6968L15.5002 14.1182Z" stroke="#969696" stroke-width="2"/>
</svg>
