<svg width="48" height="58" viewBox="0 0 48 58" fill="none" xmlns="http://www.w3.org/2000/svg" xmlns:xlink="http://www.w3.org/1999/xlink">
<path d="M2.15747 12.0014C2.62045 10.0162 5.10625 7.97584 6.29128 7.20381C6.48419 7.20381 6.75427 7.03838 6.29128 6.37667C5.82829 5.71495 7.36607 4.11572 8.19283 3.39882L8.77157 2.4062L9.18495 2.90251H10.7558L14.0628 1.57903H16.2124L18.6927 1L19.6848 1.57903V2.90251L18.6927 3.39882L19.6848 3.97785C20.0707 4.33628 21.173 5.05314 22.4958 5.05314C22.8927 5.91338 24.8108 6.29392 25.7202 6.37667V5.05314C26.1336 4.83256 27.0265 4.52375 27.291 5.05314C27.5556 5.58254 30.7634 5.82518 32.3343 5.88032H32.9957H34.9799L35.972 7.20381L34.9799 8.94089L36.5508 11.3397C36.5508 11.7809 36.7657 13.0272 37.6256 14.483C37.1626 15.8065 40.3539 18.8946 42.0074 20.2732L41.594 20.7696L43.1649 22.093L46.8026 20.7696C46.9129 20.9901 47.0672 21.8945 46.8026 23.7474C46.5381 25.6003 41.8421 30.7508 39.5271 33.0945V34.3353V35.3279V36.1551C39.5271 36.4584 39.6925 37.2139 40.3539 37.8094C39.8909 38.405 40.161 40.8149 40.3539 41.9453C39.4169 42.7174 37.2287 44.5427 35.972 45.6676C37.5429 47.901 35.8894 49.3899 34.4012 50.2171C34.4012 52.2685 31.3146 55.1526 29.7713 56.3383C28.8454 55.8089 26.6848 56.5588 25.7202 57L24.7281 56.3383L24.3147 54.0222C23.7911 53.4707 22.6942 51.7722 22.4958 49.3899C22.2478 46.4121 21.421 46.5775 20.8423 44.675C19.9163 43.4177 21.2281 40.7873 21.9998 39.6292V37.8094L20.8423 33.7563L18.6927 31.3574L19.1888 29.3722V27.387L18.1967 26.2289L16.7912 26.808C16.5707 26.615 16.0471 26.08 15.7164 25.4845C15.303 24.74 13.1534 25.4845 11.4172 26.2289C10.2928 25.7657 8.19283 26.4219 7.28339 26.808L4.80311 25.0709C4.05902 24.2161 2.25668 21.9276 1 19.6115C2.51883 18.8879 1.75994 15.1258 1.5461 14.5273C1.51485 14.5751 1.49606 14.5666 1.49606 14.483C1.49606 14.4208 1.5155 14.4417 1.5461 14.5273C1.70025 14.2918 2.15747 12.6892 2.15747 12.0014Z" fill="url(#pattern0)" stroke="#77323B" stroke-opacity="0.4"/>
<defs>
<pattern id="pattern0" patternContentUnits="objectBoundingBox" width="1" height="1">
</pattern>

</defs>
</svg>
