<svg width="30" height="23" viewBox="0 0 30 23" fill="none" xmlns="http://www.w3.org/2000/svg">
<path d="M1.20652 12.7063L28.6565 12.7063C29.3227 12.7063 29.8628 12.1662 29.8628 11.5C29.8628 10.8338 29.3227 10.2937 28.6565 10.2937L1.20652 10.2937C0.540276 10.2937 0.000240326 10.8338 0.000240326 11.5C0.000240326 12.1662 0.540276 12.7063 1.20652 12.7063Z" fill="#303030"/>
<path d="M0.353595 12.353L10.6473 22.6467C11.1184 23.1178 11.8822 23.1178 12.3533 22.6467C12.8243 22.1756 12.8243 21.4119 12.3533 20.9408L2.9125 11.5L12.3533 2.05929C12.8243 1.5882 12.8243 0.824429 12.3533 0.353336C12.1177 0.11776 11.809 0 11.5003 0C11.1915 0 10.8828 0.11776 10.6473 0.353336L0.353536 10.6471C-0.117499 11.1181 -0.117499 11.8819 0.353595 12.353Z" fill="#303030"/>
</svg>
