<svg width="36" height="36" viewBox="0 0 36 36" fill="none" xmlns="http://www.w3.org/2000/svg">
<path d="M0 7.79675H19.2689V31.7474H0V7.79675Z" fill="#8D562F"/>
<path d="M18 7.79675H36V31.7474H18V7.79675Z" fill="#744727"/>
<path d="M17.434 6.98343C15.6623 5.2337 13.2726 4.25256 10.7826 4.25256H3.54102V28.4569H10.7826C13.2726 28.4569 15.6623 29.438 17.434 31.1877L18.0006 31.7474L19.2891 17.0575L18.0006 7.54312L17.434 6.98343Z" fill="#F9E997"/>
<path d="M25.2181 4.25256C22.728 4.25256 20.3383 5.2337 18.5666 6.98343L18 7.54312V31.7474L18.5666 31.1878C20.3383 29.4381 22.728 28.4569 25.2181 28.4569H32.4596V4.25256H25.2181Z" fill="#F5D844"/>
<path d="M8.31201 10.6769H13.2287V12.7863H8.31201V10.6769Z" fill="#ECBD2C"/>
<path d="M8.31201 15.4762H13.2287V17.5856H8.31201V15.4762Z" fill="#ECBD2C"/>
<path d="M8.31201 20.2755H13.2287V22.3849H8.31201V20.2755Z" fill="#ECBD2C"/>
<path d="M22.7725 10.6769H27.6891V12.7863H22.7725V10.6769Z" fill="#E68F21"/>
<path d="M22.7725 15.4762H27.6891V17.5856H22.7725V15.4762Z" fill="#E68F21"/>
<path d="M22.7725 20.2755H27.6891V22.3849H22.7725V20.2755Z" fill="#E68F21"/>
</svg>
