<svg width="30" height="28" viewBox="0 0 30 28" fill="none" xmlns="http://www.w3.org/2000/svg">
<path d="M15 11L13.59 14.09L10.5 15.5L13.59 16.91L15 20L16.41 16.91L19.5 15.5L16.41 14.09L15 11ZM27 3.5H22.245L19.5 0.5H10.5L7.755 3.5H3C2.20435 3.5 1.44129 3.81607 0.87868 4.37868C0.31607 4.94129 0 5.70435 0 6.5V24.5C0 25.2956 0.31607 26.0587 0.87868 26.6213C1.44129 27.1839 2.20435 27.5 3 27.5H27C27.7956 27.5 28.5587 27.1839 29.1213 26.6213C29.6839 26.0587 30 25.2956 30 24.5V6.5C30 5.70435 29.6839 4.94129 29.1213 4.37868C28.5587 3.81607 27.7956 3.5 27 3.5ZM27 24.5H3V6.5H9.075L9.96 5.525L11.82 3.5H18.18L20.04 5.525L20.925 6.5H27V24.5ZM15 8C13.0109 8 11.1032 8.79018 9.6967 10.1967C8.29018 11.6032 7.5 13.5109 7.5 15.5C7.5 17.4891 8.29018 19.3968 9.6967 20.8033C11.1032 22.2098 13.0109 23 15 23C16.9891 23 18.8968 22.2098 20.3033 20.8033C21.7098 19.3968 22.5 17.4891 22.5 15.5C22.5 13.5109 21.7098 11.6032 20.3033 10.1967C18.8968 8.79018 16.9891 8 15 8ZM15 20C13.8065 20 12.6619 19.5259 11.818 18.682C10.9741 17.8381 10.5 16.6935 10.5 15.5C10.5 14.3065 10.9741 13.1619 11.818 12.318C12.6619 11.4741 13.8065 11 15 11C16.1935 11 17.3381 11.4741 18.182 12.318C19.0259 13.1619 19.5 14.3065 19.5 15.5C19.5 16.6935 19.0259 17.8381 18.182 18.682C17.3381 19.5259 16.1935 20 15 20Z" fill="#77323b"/>
</svg>
