<svg width="18" height="19" viewBox="0 0 18 19" fill="none" xmlns="http://www.w3.org/2000/svg">
<path d="M10.1419 17.9267C9.71931 17.9953 9.28617 18.031 8.84483 18.031C4.2518 18.031 0.5 14.1759 0.5 9.38483C0.5 4.59379 4.2518 0.738647 8.84483 0.738647C13.4379 0.738647 17.1897 4.59379 17.1897 9.38483C17.1897 11.0002 16.7614 12.5088 16.0185 13.8008L15.9082 13.9927L15.9761 14.2034L17.2411 18.1273L13.3077 17.0572C13.2862 17.0484 13.2589 17.0388 13.2267 17.0314L10.1419 17.9267ZM10.1419 17.9267C9.89912 17.7357 9.78034 17.4145 9.84674 17.1035L9.8471 17.1018C9.94158 16.6666 10.3713 16.3768 10.8154 16.4764L10.8181 16.477L12.855 16.9458L12.8673 16.9373L13.091 16.9982L13.1349 17.0101L13.2259 17.0312L10.1419 17.9267Z" stroke="#969696"/>
</svg>