<svg width="120" height="32" viewBox="0 0 120 32" fill="none" xmlns="http://www.w3.org/2000/svg">
<path d="M29.2 20H32.56C35.872 20 38.56 17.312 38.56 14C38.56 10.688 35.872 8 32.56 8H29.2V20ZM30.656 18.704V9.296H32.56C35.088 9.296 37.104 11.376 37.104 14C37.104 16.624 35.088 18.704 32.56 18.704H30.656ZM43.919 20.16C46.239 20.16 47.823 18.304 47.823 16C47.823 13.68 46.239 11.84 43.919 11.84C41.583 11.84 40.015 13.68 40.015 16C40.015 18.304 41.583 20.16 43.919 20.16ZM43.919 18.896C42.351 18.896 41.407 17.616 41.407 16C41.407 14.384 42.351 13.088 43.919 13.088C45.455 13.088 46.431 14.384 46.431 16C46.431 17.616 45.455 18.896 43.919 18.896ZM58.2131 12L56.1811 18.336L54.0851 12H52.6931L53.5091 14.352L52.1971 18.304L50.1971 12H48.5971L51.3491 20H52.8851L54.1651 16.192L55.4931 20H57.0451L59.7811 12H58.2131ZM65.0739 11.84C64.0019 11.84 63.0899 12.32 62.4819 13.056L62.4179 12H61.1219V20H62.5299V15.168C62.5299 14.016 63.4899 13.088 64.6899 13.088C65.8739 13.088 66.7699 13.952 66.7699 15.104V20H68.1939V14.944C68.1939 13.136 66.8659 11.84 65.0739 11.84ZM73.0401 20.16C73.7601 20.16 74.3361 19.936 74.7201 19.536L73.9361 18.576C73.6961 18.832 73.4241 18.944 73.0721 18.944C72.4161 18.944 72.0161 18.544 72.0161 17.76L72.0001 8H70.5921V17.76C70.5921 19.184 71.5361 20.16 73.0401 20.16ZM79.0596 20.16C81.3796 20.16 82.9636 18.304 82.9636 16C82.9636 13.68 81.3796 11.84 79.0596 11.84C76.7236 11.84 75.1556 13.68 75.1556 16C75.1556 18.304 76.7236 20.16 79.0596 20.16ZM79.0596 18.896C77.4916 18.896 76.5476 17.616 76.5476 16C76.5476 14.384 77.4916 13.088 79.0596 13.088C80.5956 13.088 81.5716 14.384 81.5716 16C81.5716 17.616 80.5956 18.896 79.0596 18.896ZM87.7378 11.84C86.2178 11.84 85.1618 12.4 84.5538 13.28L85.5298 14.144C86.0098 13.424 86.7298 13.04 87.6738 13.04C88.7618 13.04 89.6578 13.568 89.6578 14.784V15.728L88.2018 15.488C85.4018 15.024 84.3138 16.288 84.3138 17.712C84.3138 19.136 85.3378 20.16 86.7618 20.16C87.8018 20.16 88.8578 19.632 89.7218 18.864L89.8018 20H91.0498V14.88C91.0498 12.816 89.5778 11.84 87.7378 11.84ZM85.7538 17.648C85.7538 16.864 86.3298 16.176 88.3458 16.544L89.6578 16.768V17.68C88.9058 18.368 88.0098 18.896 87.0818 18.896C86.2818 18.896 85.7538 18.4 85.7538 17.648ZM99.1315 8V13.088C98.5075 12.32 97.5955 11.84 96.5075 11.84C94.2515 11.84 92.8275 13.68 92.8275 16C92.8275 18.32 94.2515 20.16 96.5075 20.16C97.6275 20.16 98.5395 19.664 99.1795 18.848L99.2435 20H100.508V8H99.1315ZM96.7315 18.896C95.1635 18.896 94.2195 17.616 94.2195 16C94.2195 14.384 95.1635 13.088 96.7315 13.088C97.8835 13.088 98.8275 13.952 99.1315 15.136V16.864C98.8275 18.048 97.8835 18.896 96.7315 18.896Z" fill="#303030"/>
<path d="M0.5 12.4706H6.07143V4H14.4286V12.4706H20L10.25 22.3529L0.5 12.4706ZM20 25.1765V28H0.5V25.1765H20Z" fill="#303030"/>
</svg>
