<svg width="1441" height="475" viewBox="0 0 1441 475" fill="none" xmlns="http://www.w3.org/2000/svg">
<g opacity="0.5">
<path d="M1441.05 454.871L1389.65 522.283H1492.44L1441.05 454.871ZM1441.05 465.303L1479.45 515.585H1402.67L1441.05 465.303Z" fill="#77323B"/>
<path d="M1441.05 426.914L1355 539.787H1527.09L1441.05 426.914ZM1441.05 439.244L1511.35 531.463H1370.82L1441.05 439.244Z" fill="#77323B"/>
<path d="M1.04634 454.871L-50.3467 522.283H52.4395L1.04634 454.871ZM1.04634 465.303L39.4533 515.585H-37.325L1.04634 465.303Z" fill="#77323B"/>
<path d="M1.04726 426.914L-84.9992 539.787H87.0938L1.04726 426.914ZM1.04726 439.244L71.3503 531.463H-69.1846L1.04726 439.244Z" fill="#77323B"/>
<path d="M1440.05 141.723L1388.65 209.135L1491.44 209.135L1440.05 141.723ZM1440.05 152.155L1478.45 202.437H1401.67L1440.05 152.155Z" fill="#77323B"/>
<path d="M1440.05 113.765L1354 226.639L1526.09 226.639L1440.05 113.765ZM1440.05 126.096L1510.35 218.314L1369.82 218.314L1440.05 126.096Z" fill="#77323B"/>
<path d="M1440.05 333.558L1491.44 266.147H1388.65L1440.05 333.558ZM1440.05 323.126L1401.64 272.844H1478.42L1440.05 323.126Z" fill="#877246"/>
<path d="M1440.05 361.516L1526.09 248.642H1354L1440.05 361.516ZM1440.05 349.185L1369.74 256.967H1510.28L1440.05 349.185Z" fill="#877246"/>
<path d="M0.0463448 141.723L-51.3467 209.135L51.4395 209.135L0.0463448 141.723ZM0.0463448 152.155L38.4533 202.437H-38.325L0.0463448 152.155Z" fill="#77323B"/>
<path d="M0.0472565 113.765L-85.9992 226.639L86.0938 226.639L0.0472565 113.765ZM0.0472565 126.096L70.3503 218.314L-70.1846 218.314L0.0472565 126.096Z" fill="#77323B"/>
<path d="M0.0454521 333.558L51.4385 266.147H-51.3477L0.0454521 333.558ZM0.0454521 323.126L-38.3615 272.844H38.4168L0.0454521 323.126Z" fill="#877246"/>
<path d="M0.0464935 361.516L86.093 248.642H-86L0.0464935 361.516ZM0.0464935 349.185L-70.2566 256.967H70.2783L0.0464935 349.185Z" fill="#877246"/>
<path d="M1471.05 60.2863L1522.44 -7.125H1419.65L1471.05 60.2863ZM1471.05 49.8543L1432.64 -0.427684H1509.42L1471.05 49.8543Z" fill="#877246"/>
<path d="M1471.05 88.2441L1557.09 -24.6296H1385L1471.05 88.2441ZM1471.05 75.9135L1400.74 -16.3049H1541.28L1471.05 75.9135Z" fill="#877246"/>
<path d="M-21.9545 60.2863L29.4385 -7.125H-73.3477L-21.9545 60.2863ZM-21.9545 49.8543L-60.3615 -0.427684H16.4168L-21.9545 49.8543Z" fill="#877246"/>
<path d="M-21.9535 88.2441L64.093 -24.6296H-108L-21.9535 88.2441ZM-21.9535 75.9135L-92.2566 -16.3049H48.2783L-21.9535 75.9135Z" fill="#877246"/>
</g>
</svg>