<svg width="246" height="14" viewBox="0 0 246 14" fill="none" xmlns="http://www.w3.org/2000/svg">
<path d="M0 12.804L13.8408 1.12195L14.659 2.19503L2.09566 12.804H0Z" fill="#EAB88C"/>
<path d="M240.948 0H242.674L246 4.37528L244.95 5.26302L240.948 0Z" fill="#EAB88C"/>
<path d="M236.303 0H238.023L243.17 6.76534L242.12 7.65308L236.303 0Z" fill="#EAB88C"/>
<path d="M231.789 0H233.52L240.425 9.08712L239.374 9.96997L231.789 0Z" fill="#EAB88C"/>
<path d="M227.144 0H228.87L237.596 11.4723L236.54 12.36L227.144 0Z" fill="#EAB88C"/>
<path d="M222.077 13.3648L229.747 6.88239L230.57 7.96523L224.167 13.3648H222.077Z" fill="#EAB88C"/>
<path d="M227.149 13.3648L231.731 9.49683L232.549 10.5699L229.245 13.3648H227.149Z" fill="#EAB88C"/>
<path d="M216.94 13.3649L227.741 4.24359L228.559 5.31669L219.031 13.3649H216.94Z" fill="#EAB88C"/>
<path d="M211.951 13.3649L225.792 1.67798L226.61 2.75596L214.047 13.3649H211.951Z" fill="#EAB88C"/>
<path d="M214.665 0H216.386L219.717 4.37528L218.666 5.26302L214.665 0Z" fill="#EAB88C"/>
<path d="M210.02 0H211.741L216.888 6.76534L215.837 7.65308L210.02 0Z" fill="#EAB88C"/>
<path d="M205.506 0H207.233L214.142 9.08712L213.092 9.96997L205.506 0Z" fill="#EAB88C"/>
<path d="M200.861 0H202.587L211.313 11.4723L210.257 12.36L200.861 0Z" fill="#EAB88C"/>
<path d="M195.609 13.3648L203.284 6.88239L204.108 7.96523L197.705 13.3648H195.609Z" fill="#EAB88C"/>
<path d="M200.687 13.3648L205.269 9.49683L206.087 10.5699L202.782 13.3648H200.687Z" fill="#EAB88C"/>
<path d="M190.478 13.3649L201.278 4.24359L202.096 5.31669L192.563 13.3649H190.478Z" fill="#EAB88C"/>
<path d="M185.49 13.3649L199.33 1.67798L200.149 2.75596L187.585 13.3649H185.49Z" fill="#EAB88C"/>
<path d="M188.203 0H189.924L193.255 4.37528L192.205 5.26302L188.203 0Z" fill="#EAB88C"/>
<path d="M183.557 0H185.278L190.42 6.76534L189.375 7.65308L183.557 0Z" fill="#EAB88C"/>
<path d="M179.044 0H180.77L187.68 9.08712L186.629 9.96997L179.044 0Z" fill="#EAB88C"/>
<path d="M174.399 0H176.125L184.851 11.4723L183.795 12.36L174.399 0Z" fill="#EAB88C"/>
<path d="M169.146 13.3648L176.822 6.88239L177.64 7.96523L171.242 13.3648H169.146Z" fill="#EAB88C"/>
<path d="M174.225 13.3648L178.807 9.49683L179.625 10.5699L176.321 13.3648H174.225Z" fill="#EAB88C"/>
<path d="M164.016 13.3649L174.816 4.24359L175.634 5.31669L166.101 13.3649H164.016Z" fill="#EAB88C"/>
<path d="M159.027 13.3649L172.868 1.67798L173.686 2.75596L161.123 13.3649H159.027Z" fill="#EAB88C"/>
<path d="M161.74 0H163.461L166.792 4.37528L165.742 5.26302L161.74 0Z" fill="#EAB88C"/>
<path d="M157.095 0H158.816L163.957 6.76534L162.912 7.65308L157.095 0Z" fill="#EAB88C"/>
<path d="M152.577 0H154.308L161.213 9.08712L160.168 9.96997L152.577 0Z" fill="#EAB88C"/>
<path d="M147.936 0H149.663L158.388 11.4723L157.333 12.36L147.936 0Z" fill="#EAB88C"/>
<path d="M142.684 13.3648L150.36 6.88239L151.178 7.96523L144.775 13.3648H142.684Z" fill="#EAB88C"/>
<path d="M147.757 13.3648L152.344 9.49683L153.162 10.5699L149.853 13.3648H147.757Z" fill="#EAB88C"/>
<path d="M137.548 13.3649L148.354 4.24359L149.172 5.31669L139.638 13.3649H137.548Z" fill="#EAB88C"/>
<path d="M132.565 13.3649L146.406 1.67798L147.224 2.75596L134.656 13.3649H132.565Z" fill="#EAB88C"/>
<path d="M135.278 0H136.999L140.324 4.37528L139.279 5.26302L135.278 0Z" fill="#EAB88C"/>
<path d="M130.628 0H132.354L137.496 6.76534L136.45 7.65308L130.628 0Z" fill="#EAB88C"/>
<path d="M126.114 0H127.846L134.75 9.08712L133.705 9.96997L126.114 0Z" fill="#EAB88C"/>
<path d="M121.475 0H123.201L131.927 11.4723L130.871 12.36L121.475 0Z" fill="#EAB88C"/>
<path d="M116.222 13.3648L123.897 6.88239L124.715 7.96523L118.312 13.3648H116.222Z" fill="#EAB88C"/>
<path d="M121.295 13.3648L125.883 9.49683L126.701 10.5699L123.391 13.3648H121.295Z" fill="#EAB88C"/>
<path d="M111.086 13.3649L121.892 4.24359L122.71 5.31669L113.177 13.3649H111.086Z" fill="#EAB88C"/>
<path d="M106.102 13.3649L119.943 1.67798L120.761 2.75596L108.193 13.3649H106.102Z" fill="#EAB88C"/>
<path d="M108.816 0H110.537L113.863 4.37528L112.817 5.26302L108.816 0Z" fill="#EAB88C"/>
<path d="M104.165 0H105.891L111.033 6.76534L109.988 7.65308L104.165 0Z" fill="#EAB88C"/>
<path d="M99.6526 0H101.384L108.289 9.08712L107.243 9.96997L99.6526 0Z" fill="#EAB88C"/>
<path d="M95.0068 0H96.733L105.464 11.4723L104.408 12.36L95.0068 0Z" fill="#EAB88C"/>
<path d="M89.76 13.3648L97.4353 6.88239L98.2535 7.96523L91.8504 13.3648H89.76Z" fill="#EAB88C"/>
<path d="M94.8325 13.3648L99.4145 9.49683L100.238 10.5699L96.9282 13.3648H94.8325Z" fill="#EAB88C"/>
<path d="M84.6237 13.3649L95.4239 4.24359L96.2421 5.31669L86.714 13.3649H84.6237Z" fill="#EAB88C"/>
<path d="M79.6407 13.3649L93.4763 1.67798L94.2998 2.75596L81.7311 13.3649H79.6407Z" fill="#EAB88C"/>
<path d="M82.3534 0H84.0743L87.3999 4.37528L86.3494 5.26302L82.3534 0Z" fill="#EAB88C"/>
<path d="M77.7035 0H79.4244L84.5711 6.76534L83.5207 7.65308L77.7035 0Z" fill="#EAB88C"/>
<path d="M73.1898 0H74.9212L81.8258 9.08712L80.7754 9.96997L73.1898 0Z" fill="#EAB88C"/>
<path d="M68.5441 0H70.2702L78.996 11.4723L77.9402 12.36L68.5441 0Z" fill="#EAB88C"/>
<path d="M63.2973 13.3648L70.9726 6.88239L71.7908 7.96523L65.3877 13.3648H63.2973Z" fill="#EAB88C"/>
<path d="M68.3699 13.3648L72.9518 9.49683L73.77 10.5699L70.4655 13.3648H68.3699Z" fill="#EAB88C"/>
<path d="M58.1609 13.3649L68.9612 4.24359L69.7794 5.31669L60.2513 13.3649H58.1609Z" fill="#EAB88C"/>
<path d="M53.1729 13.3649L67.0137 1.67798L67.8319 2.75596L55.2686 13.3649H53.1729Z" fill="#EAB88C"/>
<path d="M55.8865 0H57.6126L60.9382 4.37528L59.8878 5.26302L55.8865 0Z" fill="#EAB88C"/>
<path d="M51.2408 0H52.9617L58.1084 6.76534L57.0579 7.65308L51.2408 0Z" fill="#EAB88C"/>
<path d="M46.7271 0H48.4533L55.3631 9.08712L54.3126 9.96997L46.7271 0Z" fill="#EAB88C"/>
<path d="M42.0824 0H43.8085L52.5343 11.4723L51.4785 12.36L42.0824 0Z" fill="#EAB88C"/>
<path d="M36.8356 13.5648L44.5109 7.0824L45.3291 8.16524L38.926 13.5648H36.8356Z" fill="#EAB88C"/>
<path d="M41.9081 13.5648L46.4901 9.69684L47.3083 10.7699L44.0038 13.5648H41.9081Z" fill="#EAB88C"/>
<path d="M31.6992 13.5648L42.4994 4.44354L43.3176 5.5215L33.7895 13.5648H31.6992Z" fill="#EAB88C"/>
<path d="M26.7102 13.5648L40.551 1.88281L41.3692 2.95589L28.8059 13.5648H26.7102Z" fill="#EAB88C"/>
<path d="M10.1245 12.804L17.7944 6.32153L18.6179 7.40438L12.2148 12.804H10.1245Z" fill="#EAB88C"/>
<path d="M15.198 12.8038L19.7799 8.93585L20.5981 10.0138L17.2937 12.8038H15.198Z" fill="#EAB88C"/>
<path d="M4.98901 12.8039L15.7893 3.68268L16.6075 4.76064L7.07939 12.8039H4.98901Z" fill="#EAB88C"/>
<path d="M29.4238 0.199951H31.1446L34.4755 4.57523L33.425 5.46297L29.4238 0.199951Z" fill="#EAB88C"/>
<path d="M24.7791 0.199951H26.5L31.6467 6.96529L30.5963 7.85303L24.7791 0.199951Z" fill="#EAB88C"/>
<path d="M20.2654 0.199951H21.9915L28.9014 9.28707L27.8509 10.1699L20.2654 0.199951Z" fill="#EAB88C"/>
<path d="M15.6197 0.199951H17.3458L26.0716 11.6723L25.0158 12.56L15.6197 0.199951Z" fill="#EAB88C"/>
</svg>