<svg width="24" height="24" viewBox="0 0 24 24" fill="none" xmlns="http://www.w3.org/2000/svg">
<path d="M19.0781 24H4.92188C2.20795 24 0 21.792 0 19.0781V4.92188C0 2.20795 2.20795 0 4.92188 0H19.0781C21.792 0 24 2.20795 24 4.92188V19.0781C24 21.792 21.792 24 19.0781 24Z" fill="#303030"/>
<path d="M19.0781 0H12V24H19.0781C21.792 24 24 21.792 24 19.0781V4.92188C24 2.20795 21.792 0 19.0781 0Z" fill="#303030"/>
<path d="M14.4637 15.9627L14.029 19.4401C13.941 20.1438 13.3428 20.6719 12.6336 20.6719H11.3664C10.6572 20.6719 10.059 20.1438 9.97106 19.44L9.53639 15.9626C9.35109 14.4808 10.5066 13.1719 12 13.1719C10.8369 13.1719 9.89062 12.2256 9.89062 11.0625C9.89062 9.89939 10.8369 8.95312 12 8.95312C13.1631 8.95312 14.1094 9.89939 14.1094 11.0625C14.1094 12.2256 13.1631 13.1719 12 13.1719C13.4934 13.1719 14.6489 14.4808 14.4637 15.9627ZM12 7.54688C9.80302 7.54688 8.01562 9.33427 8.01562 11.5312C8.01562 12.3231 8.24878 13.0611 8.64867 13.682C8.36123 14.1705 8.18423 14.7159 8.12948 15.2791C7.18913 14.3084 6.60938 12.9863 6.60938 11.5312C6.60938 8.55886 9.02761 6.14062 12 6.14062C14.9724 6.14062 17.3906 8.55886 17.3906 11.5312C17.3906 12.9863 16.8109 14.3084 15.8706 15.2792C15.8158 14.7159 15.6388 14.1705 15.3514 13.6821C15.7512 13.0611 15.9844 12.3231 15.9844 11.5312C15.9844 9.33427 14.197 7.54688 12 7.54688ZM15.508 18.9454L15.7245 17.2139C17.5735 15.9979 18.7969 13.905 18.7969 11.5312C18.7969 7.78345 15.7478 4.73438 12 4.73438C8.2522 4.73438 5.20312 7.78345 5.20312 11.5312C5.20312 13.905 6.42652 15.9979 8.27555 17.2139L8.49197 18.9454C5.71894 17.628 3.79688 14.8 3.79688 11.5312C3.79688 7.00805 7.4768 3.32812 12 3.32812C16.5232 3.32812 20.2031 7.00805 20.2031 11.5312C20.2031 14.8 18.2811 17.628 15.508 18.9454Z" fill="white"/>
<path d="M12 13.1719V20.6719H12.6336C13.3428 20.6719 13.941 20.1438 14.029 19.44L14.4637 15.9626C14.6489 14.4808 13.4934 13.1719 12 13.1719Z" fill="#F2F2F2"/>
<path d="M14.1094 11.0625C14.1094 9.89939 13.1631 8.95312 12 8.95312V13.1719C13.1631 13.1719 14.1094 12.2256 14.1094 11.0625Z" fill="#F2F2F2"/>
<path d="M12 3.32812V4.73438C15.7478 4.73438 18.7969 7.78345 18.7969 11.5312C18.7969 13.905 17.5735 15.9979 15.7245 17.2139L15.508 18.9454C18.2811 17.628 20.2031 14.8 20.2031 11.5312C20.2031 7.00805 16.5232 3.32812 12 3.32812Z" fill="#F2F2F2"/>
<path d="M15.8706 15.2792C16.8109 14.3084 17.3906 12.9863 17.3906 11.5312C17.3906 8.55886 14.9724 6.14062 12 6.14062V7.54688C14.197 7.54688 15.9844 9.33427 15.9844 11.5312C15.9844 12.3231 15.7512 13.0611 15.3513 13.682C15.6388 14.1705 15.8158 14.7159 15.8706 15.2792Z" fill="#F2F2F2"/>
</svg>
