<svg width="141" height="52" viewBox="0 0 141 52" fill="none" xmlns="http://www.w3.org/2000/svg">
<path d="M61.486 23.5165L63.7869 15.2991L66.0878 23.5165H67.6416L71.8549 10.309H70.1815L66.8647 20.6778L64.4443 12.1018H63.1295L60.7091 20.6778L57.4222 10.309H55.5098L59.723 23.5165H61.486Z" fill="#77323B"/>
<path d="M82.1047 21.873H75.9193V17.8689H81.1485V16.1956H75.9193V11.9823H81.8955V10.309H74.1562V23.5165H82.1047V21.873Z" fill="#77323B"/>
<path d="M95.3116 18.4964C95.9093 18.4367 96.4173 18.2872 96.8356 18.0482C97.2838 17.8091 97.6125 17.4805 97.8814 17.1219C98.1504 16.7334 98.3297 16.3151 98.4791 15.8669C98.5986 15.4186 98.6583 14.9405 98.6583 14.4326C98.6583 13.8947 98.5986 13.3867 98.4193 12.9086C98.2699 12.4305 98.0607 11.9823 97.7619 11.5938C97.4631 11.2054 97.0746 10.8767 96.5667 10.6376C96.0587 10.3986 95.4611 10.2791 94.8037 10.2791H89.8135V23.4866H91.5765V19.5124V16.3748V11.9823H94.7738C95.2519 11.9823 95.6702 12.1018 95.9989 12.3707C96.3276 12.6098 96.5667 12.9385 96.6862 13.2971C96.8057 13.6556 96.8954 14.0441 96.8954 14.4923C96.8954 14.821 96.8655 15.1198 96.7758 15.3888C96.6862 15.6577 96.5667 15.9266 96.4172 16.1657C96.238 16.4047 96.0288 16.584 95.73 16.7334C95.4312 16.8828 95.1025 16.9426 94.714 16.9426H93.2199V18.6159H93.2498L96.6563 23.5762H98.8078L95.3116 18.4964Z" fill="#77323B"/>
<path d="M103.35 17.8689H108.579V16.1956H103.35V11.9823H109.356V10.309H101.587V23.5165H109.535V21.873H103.35V17.8689Z" fill="#77323B"/>
<path d="M135.173 14.3429C134.904 13.5361 134.516 12.819 134.038 12.2214C133.56 11.6237 132.932 11.1456 132.185 10.8169C131.438 10.4882 130.601 10.309 129.705 10.309H124.625V23.5165H129.705C130.601 23.5165 131.438 23.3372 132.185 23.0085C132.932 22.6798 133.56 22.2017 134.038 21.634C134.546 21.0364 134.904 20.3491 135.173 19.5423C135.442 18.7355 135.591 17.8689 135.591 16.9426C135.562 16.0163 135.442 15.1497 135.173 14.3429ZM133.53 18.8849C133.35 19.4825 133.081 19.9905 132.753 20.4387C132.424 20.8869 131.976 21.2156 131.468 21.4846C130.93 21.7236 130.332 21.8432 129.675 21.8432H126.358V11.9524H129.675C130.541 11.9524 131.318 12.1616 131.946 12.6098C132.573 13.058 133.052 13.6557 133.35 14.4027C133.649 15.1497 133.799 15.9864 133.799 16.9127C133.799 17.6598 133.709 18.2873 133.53 18.8849Z" fill="#77323B"/>
<path d="M113.091 43.9255H115.362L120.262 33.0188L125.163 43.9255H127.434L120.262 28.0585L113.091 43.9255Z" fill="#77323B"/>
<path d="M111.209 23.5165H113.062L117.125 14.4326L121.189 23.5165H123.042L117.125 10.309L111.209 23.5165Z" fill="#77323B"/>
<path d="M66.1777 43.9255H68.2993V37.1424H73.9469V35.1404H68.2993V30.0605H75.4111V28.0585H66.1777V43.9255Z" fill="#77323B"/>
<path d="M84.9133 37.8894C85.6305 37.8296 86.2281 37.6504 86.766 37.3515C87.3039 37.0527 87.7222 36.6643 88.0509 36.2161C88.3796 35.7678 88.5888 35.2599 88.768 34.722C88.9174 34.1841 89.0071 33.6164 89.0071 32.9889C89.0071 32.3614 88.9174 31.7339 88.7382 31.1661C88.5589 30.5984 88.2899 30.0605 87.9314 29.5824C87.5728 29.1043 87.0947 28.7158 86.4672 28.4469C85.8397 28.1481 85.1524 28.0286 84.3456 28.0286H78.3096V43.8956H80.461V30.0306H84.3456C84.9432 30.0306 85.4213 30.18 85.8098 30.4788C86.1982 30.7777 86.4971 31.1362 86.6465 31.5845C86.7959 32.0028 86.8855 32.4809 86.8855 33.0188C86.8855 33.4072 86.8258 33.7658 86.7361 34.0945C86.6465 34.4232 86.4971 34.7519 86.2879 35.0507C86.0787 35.3495 85.8098 35.5587 85.4512 35.7379C85.0926 35.9172 84.6743 35.977 84.2261 35.977H82.4332V37.979L86.5568 43.9254H89.1565L84.9133 37.8894Z" fill="#77323B"/>
<path d="M94.6847 28.0585H92.5332V43.9255H94.6847V28.0585Z" fill="#77323B"/>
<path d="M108.43 41.5648C107.683 41.9234 106.846 42.1027 105.979 42.1027C104.904 42.1027 103.888 41.8338 102.991 41.2959C102.095 40.758 101.378 40.011 100.87 39.0847C100.362 38.1583 100.093 37.1424 100.093 36.0368C100.093 34.9311 100.362 33.8853 100.87 32.959C101.378 32.0327 102.095 31.2856 102.991 30.7478C103.888 30.2099 104.904 29.941 105.979 29.941C106.816 29.941 107.623 30.1203 108.37 30.4788C109.117 30.8374 109.774 31.3155 110.342 31.9131L111.956 30.5685C111.239 29.7318 110.372 29.0744 109.326 28.5963C108.31 28.1182 107.175 27.8792 105.979 27.8792C104.515 27.8792 103.171 28.2377 101.916 28.9848C100.69 29.7019 99.7044 30.688 99.0171 31.943C98.3 33.198 97.9414 34.5726 97.9414 36.0368C97.9414 37.1424 98.1506 38.1882 98.5689 39.2042C98.9872 40.1903 99.555 41.0568 100.272 41.8039C100.989 42.521 101.856 43.1186 102.842 43.537C103.828 43.9553 104.874 44.1645 105.979 44.1645C107.205 44.1645 108.31 43.9254 109.356 43.4473C110.402 42.9692 111.268 42.3119 111.986 41.4453L110.372 40.0707C109.834 40.7281 109.207 41.2062 108.43 41.5648Z" fill="#77323B"/>
<path d="M138.849 39.9214L131.708 28.0585H129.586V43.9255H131.708V31.9729L138.939 43.9255H141.001V28.0585H138.849V39.9214Z" fill="#77323B"/>
<path d="M49.4141 43.9254H51.685L56.5856 32.9889L61.4861 43.9254H63.7571L56.5856 28.0286L49.4141 43.9254Z" fill="#77323B"/>
<path d="M30.9473 35.5289L27.6006 35.499L28.8556 32.5109L29.1544 32.8993L30.26 34.5428L30.9473 35.5289Z" fill="#77323B"/>
<path d="M2.61911 12.072L2.02148 13.1776L7.84835 24.6222L9.01372 24.682L2.94781 12.6995L2.61911 12.072Z" fill="#77323B"/>
<path d="M3.9043 9.68154L11.5838 24.7417L12.7791 24.8015L4.50192 8.57593L3.9043 9.68154Z" fill="#77323B"/>
<path d="M43.5866 21.4249L39.7618 19.6917C40.3595 18.1379 40.2698 16.6737 39.4929 15.6279C38.9251 14.8808 38.0885 14.4027 37.0127 14.2533C35.1302 13.9844 32.7995 14.7314 30.8273 16.2255C30.5285 16.4347 30.2596 16.6737 29.9906 16.9128L28.7356 15.1199C28.7655 15.09 28.7954 15.0601 28.8252 15.0303H28.8551V15.0004C29.1241 14.7912 29.3631 14.5521 29.6619 14.3729C32.0225 12.58 34.7418 11.5043 37.1621 11.3548H37.192C37.4311 11.3548 37.6701 11.325 37.9092 11.3548V10.9963L37.4012 10.309C37.3115 10.309 37.2219 10.309 37.1323 10.309H37.1024C34.4728 10.4584 31.664 11.564 29.0942 13.4764L29.5125 10.8767C31.4847 9.59185 33.6063 8.60576 35.6382 8.03802L34.9808 7.14158C33.2477 7.67944 31.4548 8.48623 29.7516 9.5022L30.1699 6.9324C31.3054 6.30489 32.4708 5.76703 33.6063 5.34869L32.9489 4.48214C31.7536 4.96024 30.5882 5.4981 29.4229 6.15549L29.2137 6.27502L27.9288 13.9844L18.2473 0.0596924L14.781 21.4547L6.50388 4.81082L5.90625 5.91644L15.3189 24.7417L17.3508 12.1915L20.9664 17.3909L17.2313 26.2656L17.8588 27.4609L21.6537 18.377L23.1777 20.5882L19.1736 30.0008L19.8011 31.1961L23.8948 21.6041L25.4487 23.8452L21.1756 33.8854L21.8031 35.0806L26.1658 24.9509L27.6599 27.1023L22.3111 38.6963H35.6681L37.2518 40.9972H22.4605L22.8789 42.043H39.224L39.2538 42.0729L17.5899 10.7572L18.0978 7.55991L40.3893 39.7421L40.9272 38.6963L18.3369 6.09573L18.8748 2.83866L29.2137 17.7196L29.1838 17.7494L34.3234 25.1301L39.2837 32.2718L40.1204 31.6742L36.7139 26.7736L43.7958 29.9411L43.9153 29.5526L44.1245 28.955L35.5784 25.1301L35.2497 24.652C35.6681 24.413 36.0565 24.1441 36.4749 23.8452C36.7139 23.666 36.9231 23.4867 37.1323 23.3074L44.8118 26.7736L44.8715 26.6242L45.1405 25.7875L37.9391 22.5305C38.4769 21.9328 38.955 21.3053 39.3136 20.6479L45.8576 23.5763L46.1265 22.7695L46.1863 22.5902L43.5866 21.4249ZM34.921 37.6205H23.8649L28.3471 28.0884L34.921 37.6205ZM38.6562 19.6619L38.6263 19.7515C38.2379 20.5882 37.6104 21.4547 36.8334 22.2018C36.5346 22.4707 36.2059 22.7695 35.8772 23.0086C35.4888 23.3074 35.1003 23.5464 34.7119 23.7855L30.5882 17.8391C30.8572 17.5702 31.156 17.3311 31.4548 17.1219C33.2178 15.8072 35.2796 15.1199 36.8932 15.3291C37.7 15.4486 38.2976 15.7773 38.6861 16.2853C39.2538 17.0921 39.2538 18.3172 38.6562 19.6619Z" fill="#77323B"/>
<path d="M24.3129 45.6586H37.4009L37.9388 44.5829H23.8945L24.3129 45.6586Z" fill="#77323B"/>
<path d="M13.8545 10.6675L13.9442 10.1894L14.6016 6.0658L10.8066 8.3069L13.4063 13.4465L13.8545 10.6675Z" fill="#77323B"/>
<path d="M27.3907 8.3966L27.4505 8.12767L27.8091 5.85669L25.3887 6.4842L27.1517 9.95044L27.3907 8.3966Z" fill="#77323B"/>
<path d="M18.0681 16.614L17.2314 22.5604L19.2634 18.1081L18.0681 16.614Z" fill="#77323B"/>
<path d="M0.109375 21.8431L4.14336 23.4567L1.12534 17.4207L0.109375 21.8431Z" fill="#77323B"/>
<path d="M30.3791 51.5452L34.2338 48.2284H25.7773L30.3791 51.5452Z" fill="#77323B"/>
<path d="M36.4147 18.0184C37.0721 18.9746 36.833 20.2894 35.9067 20.9468L33.4863 17.5104C34.4126 16.853 35.7274 17.0921 36.4147 18.0184Z" fill="#77323B"/>
</svg>
