<svg width="24" height="18" viewBox="0 0 24 18" fill="none" xmlns="http://www.w3.org/2000/svg">
<path d="M15.3537 8.27295H0.646312C0.289375 8.27295 0 8.70697 0 9.24242C0 9.77787 0.289375 10.2119 0.646312 10.2119H15.3537C15.7107 10.2119 16 9.77787 16 9.24242C16 8.70701 15.7107 8.27295 15.3537 8.27295Z" fill="#303030"/>
<path d="M23.0305 0.919434H0.969469C0.434062 0.919434 0 1.3535 0 1.8889C0 2.42431 0.434062 2.85837 0.969469 2.85837H23.0305C23.566 2.85837 24 2.42431 24 1.8889C24 1.3535 23.566 0.919434 23.0305 0.919434Z" fill="#303030"/>
<path d="M23.0305 15.627H0.969469C0.434062 15.627 0 16.061 0 16.5964C0 17.1319 0.434062 17.5659 0.969469 17.5659H23.0305C23.566 17.5659 24 17.1319 24 16.5964C24 16.061 23.566 15.627 23.0305 15.627Z" fill="#303030"/>
</svg>
