<svg width="1440" height="98" viewBox="0 0 1440 98" fill="none" xmlns="http://www.w3.org/2000/svg">
<path d="M22.5832 16.9703L3.77051 37.1208H41.3894L22.5832 16.9703ZM22.5832 20.0886L36.6357 35.1438H8.53066L22.5832 20.0886Z" fill="#EAB88C"/>
<path d="M22.5827 8.61279L-8.91504 42.3652L54.074 42.3652L22.5827 8.61279ZM22.5827 12.2986L48.311 39.8706L-3.13252 39.8706L22.5827 12.2986Z" fill="#EAB88C"/>
<path d="M96.5834 16.97L77.7837 37.1204H115.403L96.5834 16.97ZM96.5834 20.0883L110.636 35.1434H82.5243L96.5834 20.0883Z" fill="#EAB88C"/>
<path d="M96.5837 8.61279L65.0859 42.3652L128.075 42.3652L96.5837 8.61279ZM96.5837 12.2986L122.312 39.8706L70.8685 39.8706L96.5837 12.2986Z" fill="#EAB88C"/>
<path d="M-14.5603 25.3831L4.25235 5.23267L-33.373 5.23267L-14.5603 25.3831ZM-14.5603 22.2648L-28.6129 7.23461L-0.507797 7.23461L-14.5603 22.2648Z" fill="#EAB88C"/>
<path d="M-14.5603 33.7402L16.9374 0.000244141L-46.0581 0.000244141L-14.5603 33.7402ZM-14.5603 30.0544L-40.2886 2.48865L11.1549 2.48865L-14.5603 30.0544Z" fill="#EAB88C"/>
<path d="M60.0197 25.3832L78.8259 5.23279L41.207 5.23279L60.0197 25.3832ZM60.0197 22.2649L45.9607 7.23473L74.0723 7.23473L60.0197 22.2649Z" fill="#EAB88C"/>
<path d="M60.0197 33.7403L91.5175 0.000366211L28.522 0.000366211L60.0197 33.7403ZM60.0197 30.0545L34.2849 2.48877L85.7285 2.48877L60.0197 30.0545Z" fill="#EAB88C"/>
<path d="M170.825 16.97L152.019 37.1204H189.637L170.825 16.97ZM170.825 20.0883L184.877 35.1434H156.766L170.825 20.0883Z" fill="#EAB88C"/>
<path d="M170.824 8.61255L139.327 42.365L202.316 42.365L170.824 8.61255ZM170.824 12.2984L196.553 39.8704L145.109 39.8704L170.824 12.2984Z" fill="#EAB88C"/>
<path d="M244.819 16.9697L226.013 37.1202H263.632L244.819 16.9697ZM244.819 20.088L258.871 35.1432H230.766L244.819 20.088Z" fill="#EAB88C"/>
<path d="M244.819 8.61292L213.328 42.3654L276.317 42.3654L244.819 8.61292ZM244.819 12.2987L270.534 39.8707L219.091 39.8707L244.819 12.2987Z" fill="#EAB88C"/>
<path d="M133.675 25.3831L152.488 5.23267L114.869 5.23267L133.675 25.3831ZM133.675 22.2648L119.622 7.23461L147.727 7.23461L133.675 22.2648Z" fill="#EAB88C"/>
<path d="M133.675 33.7403L165.173 0.000366211L102.184 0.000366211L133.675 33.7403ZM133.675 30.0545L107.947 2.48877L159.39 2.48877L133.675 30.0545Z" fill="#EAB88C"/>
<path d="M208.255 25.3827L227.068 5.2323L189.449 5.2323L208.255 25.3827ZM208.255 22.2644L194.202 7.23425L222.307 7.23425L208.255 22.2644Z" fill="#EAB88C"/>
<path d="M208.255 33.7402L239.753 0.000244141L176.764 0.000244141L208.255 33.7402ZM208.255 30.0544L182.527 2.48865L233.97 2.48865L208.255 30.0544Z" fill="#EAB88C"/>
<path d="M318.723 16.9703L299.891 37.1208H337.509L318.723 16.9703ZM318.723 20.0886L332.775 35.1438H304.644L318.723 20.0886Z" fill="#EAB88C"/>
<path d="M318.722 8.61255L287.205 42.365L350.194 42.365L318.722 8.61255ZM318.722 12.2984L344.424 39.8704L292.981 39.8704L318.722 12.2984Z" fill="#EAB88C"/>
<path d="M392.696 16.9703L373.884 37.1208H411.503L392.696 16.9703ZM392.696 20.0886L406.749 35.1438H378.631L392.696 20.0886Z" fill="#EAB88C"/>
<path d="M392.696 8.61279L361.205 42.3652L424.214 42.3652L392.696 8.61279ZM392.696 12.2986L418.425 39.8706L366.981 39.8706L392.696 12.2986Z" fill="#EAB88C"/>
<path d="M466.697 16.9698L447.884 37.1203H485.503L466.697 16.9698ZM466.697 20.0881L480.749 35.1433H452.644L466.697 20.0881Z" fill="#EAB88C"/>
<path d="M466.697 8.61316L435.199 42.3656L498.188 42.3656L466.697 8.61316ZM466.697 12.299L492.425 39.871L440.982 39.871L466.697 12.299Z" fill="#EAB88C"/>
<path d="M355.553 25.383L374.366 5.23254L336.74 5.23254L355.553 25.383ZM355.553 22.2647L341.513 7.23449L369.618 7.23449L355.553 22.2647Z" fill="#EAB88C"/>
<path d="M355.553 33.7401L387.051 0.00012207L324.055 0.00012207L355.553 33.7401ZM355.553 30.0543L329.792 2.48852L381.236 2.48852L355.553 30.0543Z" fill="#EAB88C"/>
<path d="M281.605 25.4832L300.424 5.33276L262.798 5.33276L281.605 25.4832ZM281.605 22.3649L267.558 7.34095L295.664 7.34095L281.605 22.3649Z" fill="#EAB88C"/>
<path d="M281.604 33.8398L313.102 0.0998535L250.12 0.0998535L281.604 33.8398ZM281.604 30.154L255.883 2.59449L307.326 2.59449L281.604 30.154Z" fill="#EAB88C"/>
<path d="M430.133 25.383L448.959 5.23254L411.32 5.23254L430.133 25.383ZM430.133 22.2647L416.08 7.23449L444.186 7.23449L430.133 22.2647Z" fill="#EAB88C"/>
<path d="M430.134 33.7401L461.631 0.00012207L398.636 0.00012207L430.134 33.7401ZM430.134 30.0543L404.405 2.48852L455.849 2.48852L430.134 30.0543Z" fill="#EAB88C"/>
<path d="M503.795 25.3829L522.608 5.23242L484.982 5.23242L503.795 25.3829ZM503.795 22.2646L489.736 7.23437L517.841 7.23437L503.795 22.2646Z" fill="#EAB88C"/>
<path d="M503.795 33.74L535.293 0L472.297 0L503.795 33.74ZM503.795 30.0541L478.06 2.4884L529.504 2.4884L503.795 30.0541Z" fill="#EAB88C"/>
<path d="M-76.8202 61.518L-97.3716 49.7059L-96.0301 47.5667L-76.8202 58.6117L-56.9331 47.1863L-37.0524 58.6117L-17.1783 47.1863L2.70235 58.6117L22.583 47.1801L42.4571 58.6117L62.3378 47.1801L82.2249 58.6055L102.106 47.1801L121.986 58.6055L141.86 47.1801L161.741 58.6055L181.622 47.1801L201.509 58.6055L221.389 47.1801L241.27 58.6055L261.151 47.1801L281.038 58.6055L300.919 47.1801L320.799 58.6055L340.68 47.1801L360.56 58.6055L380.448 47.1801L400.328 58.6055L420.215 47.1801L440.103 58.6055L459.983 47.1801L479.87 58.6055L499.093 47.5667L500.428 49.7059L479.87 61.5117L459.983 50.0925L440.103 61.518L420.215 50.0925L400.328 61.518L380.448 50.0925L360.56 61.518L340.68 50.0925L320.799 61.518L300.919 50.0925L281.038 61.518L261.151 50.0925L241.27 61.518L221.389 50.0925L201.509 61.518L181.622 50.0925L161.741 61.518L141.86 50.0925L121.986 61.518L102.106 50.0925L82.2249 61.518L62.3378 50.0925L42.4571 61.518L22.583 50.0925L2.70235 61.518L-17.1783 50.0925L-37.0524 61.518L-56.9331 50.0925L-76.8202 61.518Z" fill="#77323B"/>
<path d="M-76.8202 68.7774L-97.3716 56.9653L-96.0301 54.8261L-76.8202 65.8649L-56.9331 54.4395L-37.0524 65.8649L-17.1783 54.4395L2.70235 65.8649L22.583 54.4395L42.4571 65.8649L62.3378 54.4395L82.2249 65.8649L102.106 54.4395L121.986 65.8649L141.86 54.4395L161.741 65.8649L181.622 54.4395L201.509 65.8649L221.389 54.4395L241.27 65.8649L261.151 54.4395L281.038 65.8649L300.919 54.4395L320.799 65.8649L340.68 54.4395L360.56 65.8649L380.448 54.4395L400.328 65.8649L420.215 54.4395L440.103 65.8649L459.983 54.4395L479.87 65.8649L499.093 54.8199L500.428 56.9653L479.87 68.7711L459.983 57.3457L440.103 68.7711L420.215 57.3457L400.328 68.7711L380.448 57.3457L360.56 68.7711L340.68 57.3457L320.799 68.7711L300.919 57.3457L281.038 68.7711L261.151 57.3457L241.27 68.7711L221.389 57.3519L201.509 68.7711L181.622 57.3519L161.741 68.7711L141.86 57.3519L121.986 68.7711L102.106 57.3519L82.2249 68.7711L62.3378 57.3519L42.4571 68.7774L22.583 57.3519L2.70235 68.7774L-17.1783 57.3519L-37.0524 68.7774L-56.9331 57.3519L-76.8202 68.7774Z" fill="#77323B"/>
<path d="M460.027 73.5641C461.254 73.5616 462.246 72.6075 462.243 71.4329C462.24 70.2584 461.244 69.3083 460.018 69.3107C458.792 69.3132 457.799 70.2673 457.802 71.4419C457.805 72.6164 458.801 73.5665 460.027 73.5641Z" fill="#77323B"/>
<path d="M499.378 73.5662C500.605 73.5637 501.597 72.6096 501.594 71.435C501.592 70.2605 500.595 69.3103 499.369 69.3128C498.143 69.3153 497.151 70.2694 497.153 71.4439C497.156 72.6185 498.152 73.5686 499.378 73.5662Z" fill="#77323B"/>
<path d="M420.058 73.6382C421.284 73.6357 422.276 72.6816 422.274 71.5071C422.271 70.3325 421.275 69.3824 420.049 69.3848C418.822 69.3873 417.83 70.3414 417.833 71.516C417.835 72.6905 418.832 73.6406 420.058 73.6382Z" fill="#77323B"/>
<path d="M380.232 73.7179C381.458 73.7154 382.45 72.7613 382.448 71.5868C382.445 70.4122 381.449 69.4621 380.223 69.4645C378.996 69.467 378.004 70.4211 378.007 71.5957C378.009 72.7702 379.005 73.7203 380.232 73.7179Z" fill="#77323B"/>
<path d="M340.06 73.7982C341.286 73.7958 342.278 72.8416 342.276 71.6671C342.273 70.4926 341.277 69.5424 340.051 69.5449C338.824 69.5473 337.832 70.5015 337.835 71.676C337.837 72.8505 338.834 73.8007 340.06 73.7982Z" fill="#77323B"/>
<path d="M300.462 73.8778C301.689 73.8753 302.681 72.9212 302.678 71.7467C302.676 70.5721 301.679 69.622 300.453 69.6245C299.227 69.6269 298.235 70.5811 298.237 71.7556C298.24 72.9301 299.236 73.8803 300.462 73.8778Z" fill="#77323B"/>
<path d="M260.526 73.86C261.752 73.86 262.746 72.9079 262.746 71.7334C262.746 70.5588 261.752 69.6067 260.526 69.6067C259.299 69.6067 258.305 70.5588 258.305 71.7334C258.305 72.9079 259.299 73.86 260.526 73.86Z" fill="#77323B"/>
<path d="M221.735 74.6706C222.961 74.6706 223.955 73.7184 223.955 72.5439C223.955 71.3694 222.961 70.4172 221.735 70.4172C220.508 70.4172 219.514 71.3694 219.514 72.5439C219.514 73.7184 220.508 74.6706 221.735 74.6706Z" fill="#77323B"/>
<path d="M180.826 73.3074C182.052 73.3049 183.044 72.3508 183.041 71.1762C183.039 70.0017 182.043 69.0516 180.816 69.054C179.59 69.0565 178.598 70.0106 178.6 71.1851C178.603 72.3597 179.599 73.3098 180.826 73.3074Z" fill="#77323B"/>
<path d="M141.516 74.1843C142.742 74.1819 143.734 73.2277 143.732 72.0532C143.729 70.8787 142.733 69.9285 141.507 69.931C140.28 69.9334 139.288 70.8876 139.291 72.0621C139.293 73.2366 140.29 74.1868 141.516 74.1843Z" fill="#77323B"/>
<path d="M101.559 74.3951C102.786 74.3927 103.778 73.4385 103.775 72.264C103.773 71.0895 102.776 70.1393 101.55 70.1418C100.324 70.1442 99.3317 71.0984 99.3342 72.2729C99.3368 73.4474 100.333 74.3976 101.559 74.3951Z" fill="#77323B"/>
<path d="M62.0916 74.6118C63.318 74.6093 64.3101 73.6552 64.3075 72.4807C64.305 71.3061 63.3087 70.356 62.0823 70.3585C60.856 70.3609 59.8639 71.3151 59.8665 72.4896C59.869 73.6641 60.8653 74.6143 62.0916 74.6118Z" fill="#77323B"/>
<path d="M22.1424 74.8223C23.3688 74.8198 24.3609 73.8657 24.3583 72.6911C24.3557 71.5166 23.3595 70.5665 22.1331 70.5689C20.9068 70.5714 19.9147 71.5255 19.9172 72.7C19.9198 73.8746 20.9161 74.8247 22.1424 74.8223Z" fill="#77323B"/>
<path d="M499.4 88.984L488.87 98.2017H491.449L500.123 90.618L499.4 88.984Z" fill="#EAB88C"/>
<path d="M495.128 98.2014L501.145 92.9315L501.874 94.5593L497.713 98.2014H495.128Z" fill="#EAB88C"/>
<path d="M482.534 98.2014L497.629 84.9923L498.351 86.6138L485.113 98.2014H482.534Z" fill="#EAB88C"/>
<path d="M476.38 98.2013L495.909 81.113L496.632 82.7408L478.965 98.2013H476.38Z" fill="#EAB88C"/>
<path d="M479.727 81.1134H481.856L485.959 86.7076L484.67 87.8427L479.727 81.1134Z" fill="#EAB88C"/>
<path d="M473.996 81.1132H476.119L482.468 89.7633L481.172 90.8984L473.996 81.1132Z" fill="#EAB88C"/>
<path d="M468.429 81.1135H470.565L479.083 92.7261L477.787 93.8611L468.429 81.1135Z" fill="#EAB88C"/>
<path d="M462.698 81.1133H464.828L475.592 95.7817L474.289 96.9168L462.698 81.1133Z" fill="#EAB88C"/>
<path d="M456.583 98.2011L466.052 89.9127L467.055 91.2972L459.162 98.2011H456.583Z" fill="#EAB88C"/>
<path d="M462.842 98.2017L468.495 93.2561L469.504 94.6282L465.427 98.2017H462.842Z" fill="#EAB88C"/>
<path d="M450.248 98.2017L463.571 86.5393L464.581 87.9114L452.827 98.2017H450.248Z" fill="#EAB88C"/>
<path d="M444.094 98.2015L461.168 83.2587L462.178 84.6369L446.679 98.2015H444.094Z" fill="#EAB88C"/>
<path d="M447.441 81.1133H449.564L453.673 86.7075L452.377 87.8426L447.441 81.1133Z" fill="#EAB88C"/>
<path d="M441.71 81.1133H443.833L450.182 89.7634L448.887 90.8985L441.71 81.1133Z" fill="#EAB88C"/>
<path d="M436.144 81.1134H438.273L446.79 92.7259L445.501 93.861L436.144 81.1134Z" fill="#EAB88C"/>
<path d="M430.413 81.1135H432.542L443.307 95.782L442.004 96.9171L430.413 81.1135Z" fill="#EAB88C"/>
<path d="M423.497 98.202L432.965 89.9136L433.975 91.2981L426.082 98.202H423.497Z" fill="#EAB88C"/>
<path d="M429.755 98.2016L435.414 93.256L436.423 94.628L432.341 98.2016H429.755Z" fill="#EAB88C"/>
<path d="M417.161 98.2016L430.491 86.5392L431.5 87.9112L419.74 98.2016H417.161Z" fill="#EAB88C"/>
<path d="M411.014 98.2012L428.088 83.2583L429.098 84.6366L413.593 98.2012H411.014Z" fill="#EAB88C"/>
<path d="M414.361 81.1133H416.484L420.587 86.7075L419.297 87.8426L414.361 81.1133Z" fill="#EAB88C"/>
<path d="M408.625 81.1134H410.754L417.096 89.7636L415.807 90.8986L408.625 81.1134Z" fill="#EAB88C"/>
<path d="M403.057 81.113H405.193L413.71 92.7256L412.421 93.8606L403.057 81.113Z" fill="#EAB88C"/>
<path d="M397.333 81.1133H399.462L410.226 95.7817L408.924 96.9168L397.333 81.1133Z" fill="#EAB88C"/>
<path d="M390.854 98.2826L400.322 89.9941L401.332 91.3724L393.433 98.2826H390.854Z" fill="#EAB88C"/>
<path d="M397.111 98.2822L402.77 93.3303L403.779 94.7086L399.696 98.2822H397.111Z" fill="#EAB88C"/>
<path d="M384.517 98.2828L397.84 86.6141L398.856 87.9924L387.096 98.2828H384.517Z" fill="#EAB88C"/>
<path d="M378.37 98.2825L395.444 83.3396L396.454 84.7179L380.949 98.2825H378.37Z" fill="#EAB88C"/>
<path d="M381.717 81.194H383.84L387.943 86.7882L386.653 87.9233L381.717 81.194Z" fill="#EAB88C"/>
<path d="M375.98 81.1943H378.103L384.452 89.8445L383.163 90.9796L375.98 81.1943Z" fill="#EAB88C"/>
<path d="M370.413 81.1946H372.549L381.066 92.8071L379.771 93.9422L370.413 81.1946Z" fill="#EAB88C"/>
<path d="M364.688 81.3688H366.811L377.575 96.0372L376.28 97.1723L364.688 81.3688Z" fill="#EAB88C"/>
<path d="M358.809 98.2829L368.277 89.9945L369.287 91.3728L361.388 98.2829H358.809Z" fill="#EAB88C"/>
<path d="M365.066 98.2827L370.719 93.3308L371.728 94.7091L367.652 98.2827H365.066Z" fill="#EAB88C"/>
<path d="M352.473 98.2827L365.796 86.614L366.805 87.9923L355.051 98.2827H352.473Z" fill="#EAB88C"/>
<path d="M346.319 98.2827L363.393 83.3398L364.403 84.7181L348.905 98.2827H346.319Z" fill="#EAB88C"/>
<path d="M349.667 81.1947H351.789L355.898 86.7889L354.602 87.924L349.667 81.1947Z" fill="#EAB88C"/>
<path d="M343.936 81.1946H346.058L352.407 89.8447L351.112 90.9798L343.936 81.1946Z" fill="#EAB88C"/>
<path d="M338.368 81.1941H340.498L349.022 92.8066L347.726 93.9417L338.368 81.1941Z" fill="#EAB88C"/>
<path d="M332.638 81.1942H334.767L345.531 95.8565L344.229 96.9977L332.638 81.1942Z" fill="#EAB88C"/>
<path d="M326.354 98.3329L335.822 90.0444L336.831 91.4227L328.932 98.3329H326.354Z" fill="#EAB88C"/>
<path d="M332.612 98.333L338.271 93.3811L339.28 94.7594L335.197 98.333H332.612Z" fill="#EAB88C"/>
<path d="M320.024 98.3325L333.348 86.6638L334.357 88.0421L322.597 98.3325H320.024Z" fill="#EAB88C"/>
<path d="M313.871 98.3325L330.945 83.3896L331.954 84.7617L316.449 98.3325H313.871Z" fill="#EAB88C"/>
<path d="M317.218 81.2382H319.341L323.443 86.8386L322.154 87.9674L317.218 81.2382Z" fill="#EAB88C"/>
<path d="M311.48 81.2379H313.61L319.952 89.8943L318.663 91.0231L311.48 81.2379Z" fill="#EAB88C"/>
<path d="M305.914 81.238H308.049L316.567 92.8568L315.278 93.9919L305.914 81.238Z" fill="#EAB88C"/>
<path d="M300.189 81.238H302.319L313.083 95.9065L311.781 97.0478L300.189 81.238Z" fill="#EAB88C"/>
<path d="M293.932 98.5881L303.4 90.2997L304.409 91.678L296.51 98.5881H293.932Z" fill="#EAB88C"/>
<path d="M300.189 98.5886L305.842 93.6367L306.851 95.015L302.775 98.5886H300.189Z" fill="#EAB88C"/>
<path d="M287.596 98.5885L300.919 86.9198L301.928 88.2981L290.174 98.5885H287.596Z" fill="#EAB88C"/>
<path d="M281.442 98.5886L298.516 83.6458L299.526 85.0178L284.028 98.5886H281.442Z" fill="#EAB88C"/>
<path d="M284.789 81.4998H286.918L291.02 87.094L289.725 88.2228L284.789 81.4998Z" fill="#EAB88C"/>
<path d="M279.058 81.4998H281.181L287.53 90.1499L286.234 91.285L279.058 81.4998Z" fill="#EAB88C"/>
<path d="M273.491 81.4998H275.627L284.144 93.1123L282.848 94.2474L273.491 81.4998Z" fill="#EAB88C"/>
<path d="M267.76 81.4998H269.889L280.653 96.162L279.351 97.3033L267.76 81.4998Z" fill="#EAB88C"/>
<path d="M261.678 98.2825L271.146 89.994L272.156 91.3723L264.263 98.2825H261.678Z" fill="#EAB88C"/>
<path d="M267.943 98.283L273.595 93.3312L274.604 94.7095L270.528 98.283H267.943Z" fill="#EAB88C"/>
<path d="M255.349 98.2828L268.672 86.6141L269.681 87.9924L257.921 98.2828H255.349Z" fill="#EAB88C"/>
<path d="M249.195 98.2825L266.269 83.3396L267.278 84.7179L251.78 98.2825H249.195Z" fill="#EAB88C"/>
<path d="M252.542 81.1945H254.665L258.767 86.7887L257.478 87.9237L252.542 81.1945Z" fill="#EAB88C"/>
<path d="M246.812 81.1946H248.934L255.277 89.8447L253.988 90.9798L246.812 81.1946Z" fill="#EAB88C"/>
<path d="M241.244 81.1938H243.373L251.89 92.8064L250.601 93.9414L241.244 81.1938Z" fill="#EAB88C"/>
<path d="M235.514 81.1945H237.643L248.407 95.8567L247.105 96.998L235.514 81.1945Z" fill="#EAB88C"/>
<path d="M230.207 98.2825L239.675 89.994L240.684 91.3723L232.792 98.2825H230.207Z" fill="#EAB88C"/>
<path d="M236.464 98.2824L242.123 93.3306L243.132 94.7088L239.049 98.2824H236.464Z" fill="#EAB88C"/>
<path d="M223.871 98.2828L237.2 86.6141L238.21 87.9924L226.449 98.2828H223.871Z" fill="#EAB88C"/>
<path d="M217.723 98.2826L234.797 83.3397L235.807 84.718L220.302 98.2826H217.723Z" fill="#EAB88C"/>
<path d="M221.07 81.1941H223.193L227.296 86.7883L226.006 87.9234L221.07 81.1941Z" fill="#EAB88C"/>
<path d="M215.333 81.1945H217.463L223.805 89.8446L222.516 90.9797L215.333 81.1945Z" fill="#EAB88C"/>
<path d="M209.766 81.1945H211.902L220.419 92.807L219.13 93.9421L209.766 81.1945Z" fill="#EAB88C"/>
<path d="M204.042 81.1942H206.165L216.935 95.8565L215.633 96.9977L204.042 81.1942Z" fill="#EAB88C"/>
<path d="M197.992 98.2574L207.46 89.969L208.47 91.3535L200.571 98.2574H197.992Z" fill="#EAB88C"/>
<path d="M204.25 98.2577L209.902 93.3121L210.912 94.6842L206.835 98.2577H204.25Z" fill="#EAB88C"/>
<path d="M191.656 98.2576L204.979 86.5952L205.989 87.9735L194.235 98.2576H191.656Z" fill="#EAB88C"/>
<path d="M185.509 98.2579L202.577 83.3151L203.586 84.6933L188.088 98.2579H185.509Z" fill="#EAB88C"/>
<path d="M188.85 81.1694H190.979L195.082 86.7637L193.786 87.8987L188.85 81.1694Z" fill="#EAB88C"/>
<path d="M183.119 81.1697H185.242L191.591 89.8198L190.295 90.9549L183.119 81.1697Z" fill="#EAB88C"/>
<path d="M177.552 81.1696H179.688L188.205 92.7883L186.909 93.9172L177.552 81.1696Z" fill="#EAB88C"/>
<path d="M171.821 81.1698H173.951L184.715 95.8383L183.412 96.9733L171.821 81.1698Z" fill="#EAB88C"/>
<path d="M165.57 98.2579L175.038 89.9695L176.047 91.354L168.149 98.2579H165.57Z" fill="#EAB88C"/>
<path d="M171.828 98.2577L177.48 93.3121L178.49 94.6842L174.413 98.2577H171.828Z" fill="#EAB88C"/>
<path d="M159.234 98.2576L172.557 86.5952L173.566 87.9735L161.813 98.2576H159.234Z" fill="#EAB88C"/>
<path d="M153.08 98.2576L170.154 83.3147L171.163 84.693L155.665 98.2576H153.08Z" fill="#EAB88C"/>
<path d="M156.428 81.1698H158.551L162.66 86.764L161.364 87.8991L156.428 81.1698Z" fill="#EAB88C"/>
<path d="M150.697 81.1698H152.82L159.169 89.82L157.873 90.955L150.697 81.1698Z" fill="#EAB88C"/>
<path d="M145.129 81.1699H147.259L155.783 92.7887L154.487 93.9175L145.129 81.1699Z" fill="#EAB88C"/>
<path d="M139.399 81.1692H141.528L152.292 95.8377L150.99 96.9727L139.399 81.1692Z" fill="#EAB88C"/>
<path d="M132.919 98.2575L142.388 89.9691L143.397 91.3536L135.505 98.2575H132.919Z" fill="#EAB88C"/>
<path d="M139.185 98.2577L144.837 93.3121L145.846 94.6842L141.77 98.2577H139.185Z" fill="#EAB88C"/>
<path d="M126.59 98.258L139.913 86.5956L140.922 87.9739L129.162 98.258H126.59Z" fill="#EAB88C"/>
<path d="M120.436 98.2573L137.51 83.3145L138.519 84.6927L123.021 98.2573H120.436Z" fill="#EAB88C"/>
<path d="M123.783 81.1694H125.906L130.015 86.7637L128.719 87.8987L123.783 81.1694Z" fill="#EAB88C"/>
<path d="M118.053 81.1697H120.176L126.525 89.8198L125.229 90.9549L118.053 81.1697Z" fill="#EAB88C"/>
<path d="M112.485 81.1696H114.615L123.132 92.7883L121.843 93.9172L112.485 81.1696Z" fill="#EAB88C"/>
<path d="M106.755 81.1696H108.884L119.648 95.838L118.346 96.9731L106.755 81.1696Z" fill="#EAB88C"/>
<path d="M100.276 98.2579L109.744 89.9695L110.753 91.354L102.861 98.2579H100.276Z" fill="#EAB88C"/>
<path d="M106.534 98.2571L112.192 93.3115L113.202 94.6836L109.125 98.2571H106.534Z" fill="#EAB88C"/>
<path d="M93.9463 98.2576L107.27 86.5952L108.279 87.9735L96.5185 98.2576H93.9463Z" fill="#EAB88C"/>
<path d="M87.793 98.2581L104.867 83.3152L105.876 84.6935L90.3717 98.2581H87.793Z" fill="#EAB88C"/>
<path d="M91.1401 81.1698H93.263L97.3655 86.764L96.0761 87.8991L91.1401 81.1698Z" fill="#EAB88C"/>
<path d="M85.4028 81.1698H87.5322L93.8747 89.82L92.5854 90.955L85.4028 81.1698Z" fill="#EAB88C"/>
<path d="M79.8354 81.1697H81.9713L90.4888 92.7885L89.1995 93.9173L79.8354 81.1697Z" fill="#EAB88C"/>
<path d="M74.1108 81.1693H76.2402L87.0043 95.8378L85.7019 96.9728L74.1108 81.1693Z" fill="#EAB88C"/>
<path d="M67.6323 98.2579L77.1005 89.9695L78.1099 91.354L70.2175 98.2579H67.6323Z" fill="#EAB88C"/>
<path d="M73.8901 98.258L79.5489 93.3124L80.5583 94.6844L76.4819 98.258H73.8901Z" fill="#EAB88C"/>
<path d="M61.3022 98.2581L74.6255 86.5957L75.6348 87.974L63.8744 98.2581H61.3022Z" fill="#EAB88C"/>
<path d="M55.1484 98.2575L72.2225 83.3146L73.2318 84.6929L57.7271 98.2575H55.1484Z" fill="#EAB88C"/>
<path d="M58.4961 81.1694H60.6189L64.7214 86.7637L63.4321 87.8987L58.4961 81.1694Z" fill="#EAB88C"/>
<path d="M52.7583 81.1692H54.8877L61.2302 89.8193L59.9409 90.9544L52.7583 81.1692Z" fill="#EAB88C"/>
<path d="M47.1914 81.1696H49.3273L57.8448 92.7883L56.5554 93.9172L47.1914 81.1696Z" fill="#EAB88C"/>
<path d="M41.4673 81.1693H43.5967L54.3607 95.8378L53.0584 96.9728L41.4673 81.1693Z" fill="#EAB88C"/>
<path d="M34.9873 98.2574L44.4555 89.969L45.4648 91.3535L37.566 98.2574H34.9873Z" fill="#EAB88C"/>
<path d="M41.2461 98.2579L46.9049 93.3123L47.9142 94.6843L43.8313 98.2579H41.2461Z" fill="#EAB88C"/>
<path d="M28.6523 98.2579L41.9756 86.5955L42.9914 87.9738L31.231 98.2579H28.6523Z" fill="#EAB88C"/>
<path d="M22.5054 98.2579L39.5729 83.3151L40.5887 84.6933L25.0841 98.2579H22.5054Z" fill="#EAB88C"/>
<path d="M25.8521 81.1697H27.9749L32.0774 86.7639L30.788 87.899L25.8521 81.1697Z" fill="#EAB88C"/>
<path d="M20.1152 81.1698H22.2381L28.5871 89.82L27.2978 90.955L20.1152 81.1698Z" fill="#EAB88C"/>
<path d="M14.5474 81.1696H16.6832L25.2007 92.7883L23.9049 93.9172L14.5474 81.1696Z" fill="#EAB88C"/>
<path d="M8.81738 81.1697H10.9468L21.7173 95.8381L20.415 96.9732L8.81738 81.1697Z" fill="#EAB88C"/>
<path d="M2.34424 98.2583L11.8125 89.9698L12.8218 91.3544L4.92293 98.2583H2.34424Z" fill="#EAB88C"/>
<path d="M8.60254 98.2577L14.2548 93.3121L15.2707 94.6842L11.1877 98.2577H8.60254Z" fill="#EAB88C"/>
<path d="M-3.9917 98.258L9.33152 86.5956L10.3474 87.9739L-1.41301 98.258H-3.9917Z" fill="#EAB88C"/>
<path d="M-10.1392 98.2578L6.92837 83.3149L7.94422 84.6932L-7.56047 98.2578H-10.1392Z" fill="#EAB88C"/>
<path d="M500.918 75.4508C502.145 75.4483 503.137 74.4942 503.134 73.3197C503.132 72.1451 502.135 71.195 500.909 71.1975C499.683 71.1999 498.691 72.154 498.693 73.3286C498.696 74.5031 499.692 75.4533 500.918 75.4508Z" fill="#77323B"/>
<path d="M487.617 97.5403L504.691 82.6036L505.701 83.9757L490.202 97.5403H487.617Z" fill="#EAB88C"/>
<path d="M544.583 16.9702L525.77 37.1206H563.395L544.583 16.9702ZM544.583 20.0885L558.635 35.1187H530.524L544.583 20.0885Z" fill="#EAB88C"/>
<path d="M544.583 8.61292L513.091 42.3654L576.106 42.3654L544.583 8.61292ZM544.583 12.2987L570.311 39.8707L518.867 39.8707L544.583 12.2987Z" fill="#EAB88C"/>
<path d="M618.583 16.9703L599.771 37.1208H637.389L618.583 16.9703ZM618.583 20.0886L632.636 35.1438H604.531L618.583 20.0886Z" fill="#EAB88C"/>
<path d="M618.583 8.61279L587.085 42.3652L650.074 42.3652L618.583 8.61279ZM618.583 12.2986L644.311 39.8706L592.867 39.8706L618.583 12.2986Z" fill="#EAB88C"/>
<path d="M692.583 16.97L673.784 37.1204H711.403L692.583 16.97ZM692.583 20.0883L706.636 35.1434H678.524L692.583 20.0883Z" fill="#EAB88C"/>
<path d="M692.584 8.61279L661.086 42.3652L724.075 42.3652L692.584 8.61279ZM692.584 12.2986L718.312 39.8706L666.868 39.8706L692.584 12.2986Z" fill="#EAB88C"/>
<path d="M581.44 25.3831L600.252 5.23267L562.627 5.23267L581.44 25.3831ZM581.44 22.2648L567.387 7.23461L595.492 7.23461L581.44 22.2648Z" fill="#EAB88C"/>
<path d="M581.44 33.7402L612.937 0.000244141L549.942 0.000244141L581.44 33.7402ZM581.44 30.0544L555.711 2.48865L607.155 2.48865L581.44 30.0544Z" fill="#EAB88C"/>
<path d="M656.02 25.3832L674.826 5.23279L637.207 5.23279L656.02 25.3832ZM656.02 22.2649L641.961 7.23473L670.072 7.23473L656.02 22.2649Z" fill="#EAB88C"/>
<path d="M656.02 33.7403L687.517 0.000366211L624.522 0.000366211L656.02 33.7403ZM656.02 30.0545L630.285 2.48877L681.728 2.48877L656.02 30.0545Z" fill="#EAB88C"/>
<path d="M766.825 16.97L748.019 37.1204H785.637L766.825 16.97ZM766.825 20.0883L780.877 35.1434H752.766L766.825 20.0883Z" fill="#EAB88C"/>
<path d="M766.824 8.61255L735.327 42.365L798.316 42.365L766.824 8.61255ZM766.824 12.2984L792.553 39.8704L741.109 39.8704L766.824 12.2984Z" fill="#EAB88C"/>
<path d="M840.819 16.9697L822.013 37.1202H859.632L840.819 16.9697ZM840.819 20.088L854.871 35.1432H826.766L840.819 20.088Z" fill="#EAB88C"/>
<path d="M840.819 8.61292L809.328 42.3654L872.317 42.3654L840.819 8.61292ZM840.819 12.2987L866.534 39.8707L815.091 39.8707L840.819 12.2987Z" fill="#EAB88C"/>
<path d="M729.675 25.3831L748.488 5.23267L710.869 5.23267L729.675 25.3831ZM729.675 22.2648L715.622 7.23461L743.727 7.23461L729.675 22.2648Z" fill="#EAB88C"/>
<path d="M729.675 33.7403L761.173 0.000366211L698.184 0.000366211L729.675 33.7403ZM729.675 30.0545L703.947 2.48877L755.39 2.48877L729.675 30.0545Z" fill="#EAB88C"/>
<path d="M804.255 25.3827L823.068 5.2323L785.449 5.2323L804.255 25.3827ZM804.255 22.2644L790.202 7.23425L818.307 7.23425L804.255 22.2644Z" fill="#EAB88C"/>
<path d="M804.255 33.7402L835.753 0.000244141L772.764 0.000244141L804.255 33.7402ZM804.255 30.0544L778.527 2.48865L829.97 2.48865L804.255 30.0544Z" fill="#EAB88C"/>
<path d="M914.723 16.9703L895.891 37.1208H933.509L914.723 16.9703ZM914.723 20.0886L928.775 35.1438H900.644L914.723 20.0886Z" fill="#EAB88C"/>
<path d="M914.722 8.61255L883.205 42.365L946.194 42.365L914.722 8.61255ZM914.722 12.2984L940.424 39.8704L888.981 39.8704L914.722 12.2984Z" fill="#EAB88C"/>
<path d="M988.696 16.9703L969.884 37.1208H1007.5L988.696 16.9703ZM988.696 20.0886L1002.75 35.1438H974.631L988.696 20.0886Z" fill="#EAB88C"/>
<path d="M988.696 8.61279L957.205 42.3652L1020.21 42.3652L988.696 8.61279ZM988.696 12.2986L1014.42 39.8706L962.981 39.8706L988.696 12.2986Z" fill="#EAB88C"/>
<path d="M1062.7 16.9698L1043.88 37.1203H1081.5L1062.7 16.9698ZM1062.7 20.0881L1076.75 35.1433H1048.64L1062.7 20.0881Z" fill="#EAB88C"/>
<path d="M1062.7 8.61316L1031.2 42.3656L1094.19 42.3656L1062.7 8.61316ZM1062.7 12.299L1088.43 39.871L1036.98 39.871L1062.7 12.299Z" fill="#EAB88C"/>
<path d="M951.553 25.383L970.366 5.23254L932.74 5.23254L951.553 25.383ZM951.553 22.2647L937.513 7.23449L965.618 7.23449L951.553 22.2647Z" fill="#EAB88C"/>
<path d="M951.553 33.7401L983.051 0.00012207L920.055 0.00012207L951.553 33.7401ZM951.553 30.0543L925.792 2.48852L977.236 2.48852L951.553 30.0543Z" fill="#EAB88C"/>
<path d="M877.605 25.4832L896.424 5.33276L858.798 5.33276L877.605 25.4832ZM877.605 22.3649L863.558 7.34095L891.664 7.34095L877.605 22.3649Z" fill="#EAB88C"/>
<path d="M877.604 33.8398L909.102 0.0998535L846.12 0.0998535L877.604 33.8398ZM877.604 30.154L851.883 2.59449L903.326 2.59449L877.604 30.154Z" fill="#EAB88C"/>
<path d="M1026.13 25.383L1044.96 5.23254L1007.32 5.23254L1026.13 25.383ZM1026.13 22.2647L1012.08 7.23449L1040.19 7.23449L1026.13 22.2647Z" fill="#EAB88C"/>
<path d="M1026.13 33.7401L1057.63 0.00012207L994.636 0.00012207L1026.13 33.7401ZM1026.13 30.0543L1000.41 2.48852L1051.85 2.48852L1026.13 30.0543Z" fill="#EAB88C"/>
<path d="M1099.8 25.3829L1118.61 5.23242L1080.98 5.23242L1099.8 25.3829ZM1099.8 22.2646L1085.74 7.23437L1113.84 7.23437L1099.8 22.2646Z" fill="#EAB88C"/>
<path d="M1099.8 33.74L1131.29 0L1068.3 0L1099.8 33.74ZM1099.8 30.0541L1074.06 2.4884L1125.5 2.4884L1099.8 30.0541Z" fill="#EAB88C"/>
<path d="M519.18 61.518L498.628 49.7059L499.97 47.5667L519.18 58.6117L539.067 47.1863L558.948 58.6117L578.822 47.1863L598.702 58.6117L618.583 47.1801L638.457 58.6117L658.338 47.1801L678.225 58.6055L698.106 47.1801L717.986 58.6055L737.86 47.1801L757.741 58.6055L777.622 47.1801L797.509 58.6055L817.389 47.1801L837.27 58.6055L857.151 47.1801L877.038 58.6055L896.919 47.1801L916.799 58.6055L936.68 47.1801L956.56 58.6055L976.448 47.1801L996.328 58.6055L1016.22 47.1801L1036.1 58.6055L1055.98 47.1801L1075.87 58.6055L1095.09 47.5667L1096.43 49.7059L1075.87 61.5117L1055.98 50.0925L1036.1 61.518L1016.22 50.0925L996.328 61.518L976.448 50.0925L956.56 61.518L936.68 50.0925L916.799 61.518L896.919 50.0925L877.038 61.518L857.151 50.0925L837.27 61.518L817.389 50.0925L797.509 61.518L777.622 50.0925L757.741 61.518L737.86 50.0925L717.986 61.518L698.106 50.0925L678.225 61.518L658.338 50.0925L638.457 61.518L618.583 50.0925L598.702 61.518L578.822 50.0925L558.948 61.518L539.067 50.0925L519.18 61.518Z" fill="#77323B"/>
<path d="M519.18 68.7774L498.628 56.9653L499.97 54.8261L519.18 65.8649L539.067 54.4395L558.948 65.8649L578.822 54.4395L598.702 65.8649L618.583 54.4395L638.457 65.8649L658.338 54.4395L678.225 65.8649L698.106 54.4395L717.986 65.8649L737.86 54.4395L757.741 65.8649L777.622 54.4395L797.509 65.8649L817.389 54.4395L837.27 65.8649L857.151 54.4395L877.038 65.8649L896.919 54.4395L916.799 65.8649L936.68 54.4395L956.56 65.8649L976.448 54.4395L996.328 65.8649L1016.22 54.4395L1036.1 65.8649L1055.98 54.4395L1075.87 65.8649L1095.09 54.8199L1096.43 56.9653L1075.87 68.7711L1055.98 57.3457L1036.1 68.7711L1016.22 57.3457L996.328 68.7711L976.448 57.3457L956.56 68.7711L936.68 57.3457L916.799 68.7711L896.919 57.3457L877.038 68.7711L857.151 57.3457L837.27 68.7711L817.389 57.3519L797.509 68.7711L777.622 57.3519L757.741 68.7711L737.86 57.3519L717.986 68.7711L698.106 57.3519L678.225 68.7711L658.338 57.3519L638.457 68.7774L618.583 57.3519L598.702 68.7774L578.822 57.3519L558.948 68.7774L539.067 57.3519L519.18 68.7774Z" fill="#77323B"/>
<path d="M1056.03 73.5641C1057.25 73.5616 1058.25 72.6075 1058.24 71.4329C1058.24 70.2584 1057.24 69.3083 1056.02 69.3107C1054.79 69.3132 1053.8 70.2673 1053.8 71.4419C1053.8 72.6164 1054.8 73.5665 1056.03 73.5641Z" fill="#77323B"/>
<path d="M1095.38 73.5662C1096.6 73.5637 1097.6 72.6096 1097.59 71.435C1097.59 70.2605 1096.6 69.3103 1095.37 69.3128C1094.14 69.3153 1093.15 70.2694 1093.15 71.4439C1093.16 72.6185 1094.15 73.5686 1095.38 73.5662Z" fill="#77323B"/>
<path d="M1016.06 73.6382C1017.28 73.6357 1018.28 72.6816 1018.27 71.5071C1018.27 70.3325 1017.28 69.3824 1016.05 69.3848C1014.82 69.3873 1013.83 70.3414 1013.83 71.516C1013.84 72.6905 1014.83 73.6406 1016.06 73.6382Z" fill="#77323B"/>
<path d="M976.232 73.7179C977.458 73.7154 978.45 72.7613 978.448 71.5868C978.445 70.4122 977.449 69.4621 976.223 69.4645C974.996 69.467 974.004 70.4211 974.007 71.5957C974.009 72.7702 975.005 73.7203 976.232 73.7179Z" fill="#77323B"/>
<path d="M936.06 73.7982C937.286 73.7958 938.278 72.8416 938.276 71.6671C938.273 70.4926 937.277 69.5424 936.051 69.5449C934.824 69.5473 933.832 70.5015 933.835 71.676C933.837 72.8505 934.834 73.8007 936.06 73.7982Z" fill="#77323B"/>
<path d="M896.462 73.8778C897.689 73.8753 898.681 72.9212 898.678 71.7467C898.676 70.5721 897.679 69.622 896.453 69.6245C895.227 69.6269 894.235 70.5811 894.237 71.7556C894.24 72.9301 895.236 73.8803 896.462 73.8778Z" fill="#77323B"/>
<path d="M856.526 73.86C857.752 73.86 858.746 72.9079 858.746 71.7334C858.746 70.5588 857.752 69.6067 856.526 69.6067C855.299 69.6067 854.305 70.5588 854.305 71.7334C854.305 72.9079 855.299 73.86 856.526 73.86Z" fill="#77323B"/>
<path d="M817.735 74.6706C818.961 74.6706 819.955 73.7184 819.955 72.5439C819.955 71.3694 818.961 70.4172 817.735 70.4172C816.508 70.4172 815.514 71.3694 815.514 72.5439C815.514 73.7184 816.508 74.6706 817.735 74.6706Z" fill="#77323B"/>
<path d="M776.826 73.3074C778.052 73.3049 779.044 72.3508 779.041 71.1762C779.039 70.0017 778.043 69.0516 776.816 69.054C775.59 69.0565 774.598 70.0106 774.6 71.1851C774.603 72.3597 775.599 73.3098 776.826 73.3074Z" fill="#77323B"/>
<path d="M737.516 74.1843C738.742 74.1819 739.734 73.2277 739.732 72.0532C739.729 70.8787 738.733 69.9285 737.507 69.931C736.28 69.9334 735.288 70.8876 735.291 72.0621C735.293 73.2366 736.29 74.1868 737.516 74.1843Z" fill="#77323B"/>
<path d="M697.559 74.3951C698.786 74.3927 699.778 73.4385 699.775 72.264C699.773 71.0895 698.776 70.1393 697.55 70.1418C696.324 70.1442 695.332 71.0984 695.334 72.2729C695.337 73.4474 696.333 74.3976 697.559 74.3951Z" fill="#77323B"/>
<path d="M658.092 74.6118C659.318 74.6093 660.31 73.6552 660.308 72.4807C660.305 71.3061 659.309 70.356 658.082 70.3585C656.856 70.3609 655.864 71.3151 655.866 72.4896C655.869 73.6641 656.865 74.6143 658.092 74.6118Z" fill="#77323B"/>
<path d="M618.142 74.8223C619.369 74.8198 620.361 73.8657 620.358 72.6911C620.356 71.5166 619.359 70.5665 618.133 70.5689C616.907 70.5714 615.915 71.5255 615.917 72.7C615.92 73.8746 616.916 74.8247 618.142 74.8223Z" fill="#77323B"/>
<path d="M579.352 75.0321C580.579 75.0296 581.571 74.0755 581.568 72.901C581.566 71.7264 580.569 70.7763 579.343 70.7787C578.117 70.7812 577.125 71.7353 577.127 72.9099C577.13 74.0844 578.126 75.0346 579.352 75.0321Z" fill="#77323B"/>
<path d="M538.946 75.0254C540.172 75.0229 541.164 74.0688 541.162 72.8943C541.159 71.7197 540.163 70.7696 538.936 70.772C537.71 70.7745 536.718 71.7286 536.72 72.9032C536.723 74.0777 537.719 75.0278 538.946 75.0254Z" fill="#77323B"/>
<path d="M1095.4 88.984L1084.87 98.2017H1087.45L1096.12 90.618L1095.4 88.984Z" fill="#EAB88C"/>
<path d="M1091.13 98.2014L1097.14 92.9315L1097.87 94.5593L1093.71 98.2014H1091.13Z" fill="#EAB88C"/>
<path d="M1078.53 98.2014L1093.63 84.9923L1094.35 86.6138L1081.11 98.2014H1078.53Z" fill="#EAB88C"/>
<path d="M1072.38 98.2013L1091.91 81.113L1092.63 82.7408L1074.97 98.2013H1072.38Z" fill="#EAB88C"/>
<path d="M1075.73 81.1134H1077.86L1081.96 86.7076L1080.67 87.8427L1075.73 81.1134Z" fill="#EAB88C"/>
<path d="M1070 81.1132H1072.12L1078.47 89.7633L1077.17 90.8984L1070 81.1132Z" fill="#EAB88C"/>
<path d="M1064.43 81.1135H1066.57L1075.08 92.7261L1073.79 93.8611L1064.43 81.1135Z" fill="#EAB88C"/>
<path d="M1058.7 81.1133H1060.83L1071.59 95.7817L1070.29 96.9168L1058.7 81.1133Z" fill="#EAB88C"/>
<path d="M1052.58 98.2011L1062.05 89.9127L1063.05 91.2972L1055.16 98.2011H1052.58Z" fill="#EAB88C"/>
<path d="M1058.84 98.2017L1064.49 93.2561L1065.5 94.6282L1061.43 98.2017H1058.84Z" fill="#EAB88C"/>
<path d="M1046.25 98.2017L1059.57 86.5393L1060.58 87.9114L1048.83 98.2017H1046.25Z" fill="#EAB88C"/>
<path d="M1040.09 98.2015L1057.17 83.2587L1058.18 84.6369L1042.68 98.2015H1040.09Z" fill="#EAB88C"/>
<path d="M1043.44 81.1133H1045.56L1049.67 86.7075L1048.38 87.8426L1043.44 81.1133Z" fill="#EAB88C"/>
<path d="M1037.71 81.1133H1039.83L1046.18 89.7634L1044.89 90.8985L1037.71 81.1133Z" fill="#EAB88C"/>
<path d="M1032.14 81.1134H1034.27L1042.79 92.7259L1041.5 93.861L1032.14 81.1134Z" fill="#EAB88C"/>
<path d="M1026.41 81.1135H1028.54L1039.31 95.782L1038 96.9171L1026.41 81.1135Z" fill="#EAB88C"/>
<path d="M1019.5 98.202L1028.97 89.9136L1029.97 91.2981L1022.08 98.202H1019.5Z" fill="#EAB88C"/>
<path d="M1025.76 98.2016L1031.41 93.256L1032.42 94.628L1028.34 98.2016H1025.76Z" fill="#EAB88C"/>
<path d="M1013.16 98.2016L1026.49 86.5392L1027.5 87.9112L1015.74 98.2016H1013.16Z" fill="#EAB88C"/>
<path d="M1007.01 98.2012L1024.09 83.2583L1025.1 84.6366L1009.59 98.2012H1007.01Z" fill="#EAB88C"/>
<path d="M1010.36 81.1133H1012.48L1016.59 86.7075L1015.3 87.8426L1010.36 81.1133Z" fill="#EAB88C"/>
<path d="M1004.62 81.1134H1006.75L1013.1 89.7636L1011.81 90.8986L1004.62 81.1134Z" fill="#EAB88C"/>
<path d="M999.057 81.113H1001.19L1009.71 92.7256L1008.42 93.8606L999.057 81.113Z" fill="#EAB88C"/>
<path d="M993.333 81.1133H995.462L1006.23 95.7817L1004.92 96.9168L993.333 81.1133Z" fill="#EAB88C"/>
<path d="M986.854 98.2826L996.322 89.9941L997.332 91.3724L989.433 98.2826H986.854Z" fill="#EAB88C"/>
<path d="M993.111 98.2822L998.77 93.3303L999.779 94.7086L995.696 98.2822H993.111Z" fill="#EAB88C"/>
<path d="M980.517 98.2828L993.84 86.6141L994.856 87.9924L983.096 98.2828H980.517Z" fill="#EAB88C"/>
<path d="M974.37 98.2825L991.444 83.3396L992.454 84.7179L976.949 98.2825H974.37Z" fill="#EAB88C"/>
<path d="M977.717 81.194H979.84L983.943 86.7882L982.653 87.9233L977.717 81.194Z" fill="#EAB88C"/>
<path d="M971.98 81.1943H974.103L980.452 89.8445L979.163 90.9796L971.98 81.1943Z" fill="#EAB88C"/>
<path d="M966.413 81.1946H968.549L977.066 92.8071L975.771 93.9422L966.413 81.1946Z" fill="#EAB88C"/>
<path d="M960.688 81.3688H962.811L973.575 96.0372L972.28 97.1723L960.688 81.3688Z" fill="#EAB88C"/>
<path d="M954.809 98.2829L964.277 89.9945L965.287 91.3728L957.388 98.2829H954.809Z" fill="#EAB88C"/>
<path d="M961.066 98.2827L966.719 93.3308L967.728 94.7091L963.652 98.2827H961.066Z" fill="#EAB88C"/>
<path d="M948.473 98.2827L961.796 86.614L962.805 87.9923L951.051 98.2827H948.473Z" fill="#EAB88C"/>
<path d="M942.319 98.2827L959.393 83.3398L960.403 84.7181L944.905 98.2827H942.319Z" fill="#EAB88C"/>
<path d="M945.667 81.1947H947.789L951.898 86.7889L950.602 87.924L945.667 81.1947Z" fill="#EAB88C"/>
<path d="M939.936 81.1946H942.058L948.407 89.8447L947.112 90.9798L939.936 81.1946Z" fill="#EAB88C"/>
<path d="M934.368 81.1941H936.498L945.022 92.8066L943.726 93.9417L934.368 81.1941Z" fill="#EAB88C"/>
<path d="M928.638 81.1942H930.767L941.531 95.8565L940.229 96.9977L928.638 81.1942Z" fill="#EAB88C"/>
<path d="M922.354 98.3329L931.822 90.0444L932.831 91.4227L924.932 98.3329H922.354Z" fill="#EAB88C"/>
<path d="M928.612 98.333L934.271 93.3811L935.28 94.7594L931.197 98.333H928.612Z" fill="#EAB88C"/>
<path d="M916.024 98.3325L929.348 86.6638L930.357 88.0421L918.597 98.3325H916.024Z" fill="#EAB88C"/>
<path d="M909.871 98.3325L926.945 83.3896L927.954 84.7617L912.449 98.3325H909.871Z" fill="#EAB88C"/>
<path d="M913.218 81.2382H915.341L919.443 86.8386L918.154 87.9674L913.218 81.2382Z" fill="#EAB88C"/>
<path d="M907.48 81.2379H909.61L915.952 89.8943L914.663 91.0231L907.48 81.2379Z" fill="#EAB88C"/>
<path d="M901.914 81.238H904.049L912.567 92.8568L911.278 93.9919L901.914 81.238Z" fill="#EAB88C"/>
<path d="M896.189 81.238H898.319L909.083 95.9065L907.781 97.0478L896.189 81.238Z" fill="#EAB88C"/>
<path d="M889.932 98.5881L899.4 90.2997L900.409 91.678L892.51 98.5881H889.932Z" fill="#EAB88C"/>
<path d="M896.189 98.5886L901.842 93.6367L902.851 95.015L898.775 98.5886H896.189Z" fill="#EAB88C"/>
<path d="M883.596 98.5885L896.919 86.9198L897.928 88.2981L886.174 98.5885H883.596Z" fill="#EAB88C"/>
<path d="M877.442 98.5886L894.516 83.6458L895.526 85.0178L880.028 98.5886H877.442Z" fill="#EAB88C"/>
<path d="M880.789 81.4998H882.918L887.02 87.094L885.725 88.2228L880.789 81.4998Z" fill="#EAB88C"/>
<path d="M875.058 81.4998H877.181L883.53 90.1499L882.234 91.285L875.058 81.4998Z" fill="#EAB88C"/>
<path d="M869.491 81.4998H871.627L880.144 93.1123L878.848 94.2474L869.491 81.4998Z" fill="#EAB88C"/>
<path d="M863.76 81.4998H865.889L876.653 96.162L875.351 97.3033L863.76 81.4998Z" fill="#EAB88C"/>
<path d="M857.678 98.2825L867.146 89.994L868.156 91.3723L860.263 98.2825H857.678Z" fill="#EAB88C"/>
<path d="M863.943 98.283L869.595 93.3312L870.604 94.7095L866.528 98.283H863.943Z" fill="#EAB88C"/>
<path d="M851.349 98.2828L864.672 86.6141L865.681 87.9924L853.921 98.2828H851.349Z" fill="#EAB88C"/>
<path d="M845.195 98.2825L862.269 83.3396L863.278 84.7179L847.78 98.2825H845.195Z" fill="#EAB88C"/>
<path d="M848.542 81.1945H850.665L854.767 86.7887L853.478 87.9237L848.542 81.1945Z" fill="#EAB88C"/>
<path d="M842.812 81.1946H844.934L851.277 89.8447L849.988 90.9798L842.812 81.1946Z" fill="#EAB88C"/>
<path d="M837.244 81.1938H839.373L847.89 92.8064L846.601 93.9414L837.244 81.1938Z" fill="#EAB88C"/>
<path d="M831.514 81.1945H833.643L844.407 95.8567L843.105 96.998L831.514 81.1945Z" fill="#EAB88C"/>
<path d="M826.207 98.2825L835.675 89.994L836.684 91.3723L828.792 98.2825H826.207Z" fill="#EAB88C"/>
<path d="M832.464 98.2824L838.123 93.3306L839.132 94.7088L835.049 98.2824H832.464Z" fill="#EAB88C"/>
<path d="M819.871 98.2828L833.2 86.6141L834.21 87.9924L822.449 98.2828H819.871Z" fill="#EAB88C"/>
<path d="M813.723 98.2826L830.797 83.3397L831.807 84.718L816.302 98.2826H813.723Z" fill="#EAB88C"/>
<path d="M817.07 81.1941H819.193L823.296 86.7883L822.006 87.9234L817.07 81.1941Z" fill="#EAB88C"/>
<path d="M811.333 81.1945H813.463L819.805 89.8446L818.516 90.9797L811.333 81.1945Z" fill="#EAB88C"/>
<path d="M805.766 81.1945H807.902L816.419 92.807L815.13 93.9421L805.766 81.1945Z" fill="#EAB88C"/>
<path d="M800.042 81.1942H802.165L812.935 95.8565L811.633 96.9977L800.042 81.1942Z" fill="#EAB88C"/>
<path d="M793.992 98.2574L803.46 89.969L804.47 91.3535L796.571 98.2574H793.992Z" fill="#EAB88C"/>
<path d="M800.25 98.2577L805.902 93.3121L806.912 94.6842L802.835 98.2577H800.25Z" fill="#EAB88C"/>
<path d="M787.656 98.2576L800.979 86.5952L801.989 87.9735L790.235 98.2576H787.656Z" fill="#EAB88C"/>
<path d="M781.509 98.2579L798.577 83.3151L799.586 84.6933L784.088 98.2579H781.509Z" fill="#EAB88C"/>
<path d="M784.85 81.1694H786.979L791.082 86.7637L789.786 87.8987L784.85 81.1694Z" fill="#EAB88C"/>
<path d="M779.119 81.1697H781.242L787.591 89.8198L786.295 90.9549L779.119 81.1697Z" fill="#EAB88C"/>
<path d="M773.552 81.1696H775.688L784.205 92.7883L782.909 93.9172L773.552 81.1696Z" fill="#EAB88C"/>
<path d="M767.821 81.1698H769.951L780.715 95.8383L779.412 96.9733L767.821 81.1698Z" fill="#EAB88C"/>
<path d="M761.57 98.2579L771.038 89.9695L772.047 91.354L764.149 98.2579H761.57Z" fill="#EAB88C"/>
<path d="M767.828 98.2577L773.48 93.3121L774.49 94.6842L770.413 98.2577H767.828Z" fill="#EAB88C"/>
<path d="M755.234 98.2576L768.557 86.5952L769.566 87.9735L757.813 98.2576H755.234Z" fill="#EAB88C"/>
<path d="M749.08 98.2576L766.154 83.3147L767.163 84.693L751.665 98.2576H749.08Z" fill="#EAB88C"/>
<path d="M752.428 81.1698H754.551L758.66 86.764L757.364 87.8991L752.428 81.1698Z" fill="#EAB88C"/>
<path d="M746.697 81.1698H748.82L755.169 89.82L753.873 90.955L746.697 81.1698Z" fill="#EAB88C"/>
<path d="M741.129 81.1699H743.259L751.783 92.7887L750.487 93.9175L741.129 81.1699Z" fill="#EAB88C"/>
<path d="M735.399 81.1692H737.528L748.292 95.8377L746.99 96.9727L735.399 81.1692Z" fill="#EAB88C"/>
<path d="M728.919 98.2575L738.388 89.9691L739.397 91.3536L731.505 98.2575H728.919Z" fill="#EAB88C"/>
<path d="M735.185 98.2577L740.837 93.3121L741.846 94.6842L737.77 98.2577H735.185Z" fill="#EAB88C"/>
<path d="M722.59 98.258L735.913 86.5956L736.922 87.9739L725.162 98.258H722.59Z" fill="#EAB88C"/>
<path d="M716.436 98.2573L733.51 83.3145L734.519 84.6927L719.021 98.2573H716.436Z" fill="#EAB88C"/>
<path d="M719.783 81.1694H721.906L726.015 86.7637L724.719 87.8987L719.783 81.1694Z" fill="#EAB88C"/>
<path d="M714.053 81.1697H716.176L722.525 89.8198L721.229 90.9549L714.053 81.1697Z" fill="#EAB88C"/>
<path d="M708.485 81.1696H710.615L719.132 92.7883L717.843 93.9172L708.485 81.1696Z" fill="#EAB88C"/>
<path d="M702.755 81.1696H704.884L715.648 95.838L714.346 96.9731L702.755 81.1696Z" fill="#EAB88C"/>
<path d="M696.276 98.2579L705.744 89.9695L706.753 91.354L698.861 98.2579H696.276Z" fill="#EAB88C"/>
<path d="M702.534 98.2571L708.192 93.3115L709.202 94.6836L705.125 98.2571H702.534Z" fill="#EAB88C"/>
<path d="M689.946 98.2576L703.27 86.5952L704.279 87.9735L692.518 98.2576H689.946Z" fill="#EAB88C"/>
<path d="M683.793 98.2581L700.867 83.3152L701.876 84.6935L686.372 98.2581H683.793Z" fill="#EAB88C"/>
<path d="M687.14 81.1698H689.263L693.365 86.764L692.076 87.8991L687.14 81.1698Z" fill="#EAB88C"/>
<path d="M681.403 81.1698H683.532L689.875 89.82L688.585 90.955L681.403 81.1698Z" fill="#EAB88C"/>
<path d="M675.835 81.1697H677.971L686.489 92.7885L685.199 93.9173L675.835 81.1697Z" fill="#EAB88C"/>
<path d="M670.111 81.1693H672.24L683.004 95.8378L681.702 96.9728L670.111 81.1693Z" fill="#EAB88C"/>
<path d="M663.632 98.2579L673.101 89.9695L674.11 91.354L666.218 98.2579H663.632Z" fill="#EAB88C"/>
<path d="M669.89 98.258L675.549 93.3124L676.558 94.6844L672.482 98.258H669.89Z" fill="#EAB88C"/>
<path d="M657.302 98.2581L670.625 86.5957L671.635 87.974L659.874 98.2581H657.302Z" fill="#EAB88C"/>
<path d="M651.148 98.2575L668.222 83.3146L669.232 84.6929L653.727 98.2575H651.148Z" fill="#EAB88C"/>
<path d="M654.496 81.1694H656.619L660.721 86.7637L659.432 87.8987L654.496 81.1694Z" fill="#EAB88C"/>
<path d="M648.758 81.1692H650.888L657.23 89.8193L655.941 90.9544L648.758 81.1692Z" fill="#EAB88C"/>
<path d="M643.191 81.1696H645.327L653.845 92.7883L652.555 93.9172L643.191 81.1696Z" fill="#EAB88C"/>
<path d="M637.467 81.1693H639.597L650.361 95.8378L649.058 96.9728L637.467 81.1693Z" fill="#EAB88C"/>
<path d="M630.987 98.2574L640.456 89.969L641.465 91.3535L633.566 98.2574H630.987Z" fill="#EAB88C"/>
<path d="M637.246 98.2579L642.905 93.3123L643.914 94.6843L639.831 98.2579H637.246Z" fill="#EAB88C"/>
<path d="M624.652 98.2579L637.976 86.5955L638.991 87.9738L627.231 98.2579H624.652Z" fill="#EAB88C"/>
<path d="M618.505 98.2579L635.573 83.3151L636.589 84.6933L621.084 98.2579H618.505Z" fill="#EAB88C"/>
<path d="M621.852 81.1697H623.975L628.077 86.7639L626.788 87.899L621.852 81.1697Z" fill="#EAB88C"/>
<path d="M616.115 81.1698H618.238L624.587 89.82L623.298 90.955L616.115 81.1698Z" fill="#EAB88C"/>
<path d="M610.547 81.1696H612.683L621.201 92.7883L619.905 93.9172L610.547 81.1696Z" fill="#EAB88C"/>
<path d="M604.817 81.1697H606.947L617.717 95.8381L616.415 96.9732L604.817 81.1697Z" fill="#EAB88C"/>
<path d="M598.344 98.2583L607.812 89.9698L608.822 91.3544L600.923 98.2583H598.344Z" fill="#EAB88C"/>
<path d="M604.603 98.2577L610.255 93.3121L611.271 94.6842L607.188 98.2577H604.603Z" fill="#EAB88C"/>
<path d="M592.008 98.258L605.332 86.5956L606.347 87.9739L594.587 98.258H592.008Z" fill="#EAB88C"/>
<path d="M585.861 98.2578L602.928 83.3149L603.944 84.6932L588.44 98.2578H585.861Z" fill="#EAB88C"/>
<path d="M589.202 81.17H591.332L595.434 86.7643L594.138 87.8993L589.202 81.17Z" fill="#EAB88C"/>
<path d="M583.471 81.1697H585.594L591.943 89.8198L590.647 90.9549L583.471 81.1697Z" fill="#EAB88C"/>
<path d="M577.904 81.1694H580.04L588.557 92.7882L587.261 93.917L577.904 81.1694Z" fill="#EAB88C"/>
<path d="M572.173 81.1696H574.302L585.066 95.838L583.77 96.9731L572.173 81.1696Z" fill="#EAB88C"/>
<path d="M565.701 98.2575L575.169 89.9691L576.178 91.3536L568.279 98.2575H565.701Z" fill="#EAB88C"/>
<path d="M571.958 98.2576L577.611 93.312L578.62 94.6841L574.544 98.2576H571.958Z" fill="#EAB88C"/>
<path d="M559.364 98.2578L572.687 86.5953L573.697 87.9736L561.943 98.2578H559.364Z" fill="#EAB88C"/>
<path d="M553.21 98.2575L570.284 83.3146L571.294 84.6929L555.796 98.2575H553.21Z" fill="#EAB88C"/>
<path d="M556.558 81.1691H558.687L562.789 86.7633L561.494 87.8983L556.558 81.1691Z" fill="#EAB88C"/>
<path d="M550.828 81.1698H552.95L559.3 89.82L558.004 90.955L550.828 81.1698Z" fill="#EAB88C"/>
<path d="M545.261 81.17H547.397L555.914 92.7888L554.618 93.9176L545.261 81.17Z" fill="#EAB88C"/>
<path d="M539.529 81.1689H541.658L552.422 95.8374L551.12 96.9725L539.529 81.1689Z" fill="#EAB88C"/>
<path d="M533.05 98.5133L542.519 90.2311L543.528 91.6094L535.635 98.5133H533.05Z" fill="#EAB88C"/>
<path d="M539.315 98.5139L544.967 93.5682L545.977 94.9465L541.9 98.5139H539.315Z" fill="#EAB88C"/>
<path d="M526.721 98.5135L540.044 86.8511L541.053 88.2294L529.299 98.5135H526.721Z" fill="#EAB88C"/>
<path d="M520.566 98.5133L537.64 83.5767L538.65 84.9487L523.152 98.5133H520.566Z" fill="#EAB88C"/>
<path d="M500.101 97.5405L509.569 89.2583L510.585 90.6366L502.686 97.5405H500.101Z" fill="#EAB88C"/>
<path d="M506.364 97.54L512.017 92.5944L513.026 93.9727L508.949 97.54H506.364Z" fill="#EAB88C"/>
<path d="M493.771 97.5406L507.094 85.8782L508.103 87.2565L496.349 97.5406H493.771Z" fill="#EAB88C"/>
<path d="M523.914 81.4254H526.037L530.146 87.0196L528.85 88.1547L523.914 81.4254Z" fill="#EAB88C"/>
<path d="M518.184 81.4254H520.306L526.655 90.0756L525.36 91.2106L518.184 81.4254Z" fill="#EAB88C"/>
<path d="M512.616 81.4252H514.745L523.263 93.0439L521.973 94.1728L512.616 81.4252Z" fill="#EAB88C"/>
<path d="M506.885 81.4252H509.015L519.779 96.0936L518.476 97.2287L506.885 81.4252Z" fill="#EAB88C"/>
<path d="M1093.92 75.4508C1095.14 75.4483 1096.14 74.4942 1096.13 73.3197C1096.13 72.1451 1095.14 71.195 1093.91 71.1975C1092.68 71.1999 1091.69 72.154 1091.69 73.3286C1091.7 74.5031 1092.69 75.4533 1093.92 75.4508Z" fill="#77323B"/>
<path d="M1080.62 97.5403L1097.69 82.6036L1098.7 83.9757L1083.2 97.5403H1080.62Z" fill="#EAB88C"/>
<path d="M1137.58 16.9702L1118.77 37.1206H1156.4L1137.58 16.9702ZM1137.58 20.0885L1151.64 35.1187H1123.52L1137.58 20.0885Z" fill="#EAB88C"/>
<path d="M1137.58 8.61292L1106.09 42.3654L1169.11 42.3654L1137.58 8.61292ZM1137.58 12.2987L1163.31 39.8707L1111.87 39.8707L1137.58 12.2987Z" fill="#EAB88C"/>
<path d="M1211.58 16.9703L1192.77 37.1208H1230.39L1211.58 16.9703ZM1211.58 20.0886L1225.64 35.1438H1197.53L1211.58 20.0886Z" fill="#EAB88C"/>
<path d="M1211.58 8.61279L1180.08 42.3652L1243.07 42.3652L1211.58 8.61279ZM1211.58 12.2986L1237.31 39.8706L1185.87 39.8706L1211.58 12.2986Z" fill="#EAB88C"/>
<path d="M1285.58 16.97L1266.78 37.1204H1304.4L1285.58 16.97ZM1285.58 20.0883L1299.64 35.1434H1271.52L1285.58 20.0883Z" fill="#EAB88C"/>
<path d="M1285.58 8.61279L1254.09 42.3652L1317.07 42.3652L1285.58 8.61279ZM1285.58 12.2986L1311.31 39.8706L1259.87 39.8706L1285.58 12.2986Z" fill="#EAB88C"/>
<path d="M1174.44 25.3831L1193.25 5.23267L1155.63 5.23267L1174.44 25.3831ZM1174.44 22.2648L1160.39 7.23461L1188.49 7.23461L1174.44 22.2648Z" fill="#EAB88C"/>
<path d="M1174.44 33.7402L1205.94 0.000244141L1142.94 0.000244141L1174.44 33.7402ZM1174.44 30.0544L1148.71 2.48865L1200.15 2.48865L1174.44 30.0544Z" fill="#EAB88C"/>
<path d="M1100.5 25.4826L1119.3 5.33215L1081.68 5.33215L1100.5 25.4826ZM1100.5 22.3643L1086.44 7.34034L1114.55 7.34034L1100.5 22.3643Z" fill="#EAB88C"/>
<path d="M1100.5 33.8404L1131.99 0.106689L1069 0.106689L1100.5 33.8404ZM1100.5 30.1546L1074.77 2.59509L1126.21 2.59509L1100.5 30.1546Z" fill="#EAB88C"/>
<path d="M1249.02 25.3832L1267.83 5.23279L1230.21 5.23279L1249.02 25.3832ZM1249.02 22.2649L1234.96 7.23473L1263.07 7.23473L1249.02 22.2649Z" fill="#EAB88C"/>
<path d="M1249.02 33.7403L1280.52 0.000366211L1217.52 0.000366211L1249.02 33.7403ZM1249.02 30.0545L1223.28 2.48877L1274.73 2.48877L1249.02 30.0545Z" fill="#EAB88C"/>
<path d="M1359.82 16.97L1341.02 37.1204H1378.64L1359.82 16.97ZM1359.82 20.0883L1373.88 35.1434H1345.77L1359.82 20.0883Z" fill="#EAB88C"/>
<path d="M1359.82 8.61255L1328.33 42.365L1391.32 42.365L1359.82 8.61255ZM1359.82 12.2984L1385.55 39.8704L1334.11 39.8704L1359.82 12.2984Z" fill="#EAB88C"/>
<path d="M1433.82 16.9697L1415.01 37.1202H1452.63L1433.82 16.9697ZM1433.82 20.088L1447.87 35.1432H1419.77L1433.82 20.088Z" fill="#EAB88C"/>
<path d="M1433.82 8.61292L1402.33 42.3654L1465.32 42.3654L1433.82 8.61292ZM1433.82 12.2987L1459.53 39.8707L1408.09 39.8707L1433.82 12.2987Z" fill="#EAB88C"/>
<path d="M1322.67 25.3831L1341.49 5.23267L1303.87 5.23267L1322.67 25.3831ZM1322.67 22.2648L1308.62 7.23461L1336.73 7.23461L1322.67 22.2648Z" fill="#EAB88C"/>
<path d="M1322.67 33.7403L1354.17 0.000366211L1291.18 0.000366211L1322.67 33.7403ZM1322.67 30.0545L1296.95 2.48877L1348.39 2.48877L1322.67 30.0545Z" fill="#EAB88C"/>
<path d="M1397.25 25.3827L1416.07 5.2323L1378.45 5.2323L1397.25 25.3827ZM1397.25 22.2644L1383.2 7.23425L1411.31 7.23425L1397.25 22.2644Z" fill="#EAB88C"/>
<path d="M1397.25 33.7402L1428.75 0.000244141L1365.76 0.000244141L1397.25 33.7402ZM1397.25 30.0544L1371.53 2.48865L1422.97 2.48865L1397.25 30.0544Z" fill="#EAB88C"/>
<path d="M1470.6 33.8398L1502.1 0.0998535L1439.12 0.0998535L1470.6 33.8398ZM1470.6 30.154L1444.88 2.59449L1496.33 2.59449L1470.6 30.154Z" fill="#EAB88C"/>
<path d="M1112.18 61.518L1091.63 49.7059L1092.97 47.5667L1112.18 58.6117L1132.07 47.1863L1151.95 58.6117L1171.82 47.1863L1191.7 58.6117L1211.58 47.1801L1231.46 58.6117L1251.34 47.1801L1271.22 58.6055L1291.11 47.1801L1310.99 58.6055L1330.86 47.1801L1350.74 58.6055L1370.62 47.1801L1390.51 58.6055L1410.39 47.1801L1430.27 58.6055L1450.15 47.1801L1470.04 58.6055L1489.92 47.1801L1509.8 58.6055L1529.68 47.1801L1549.56 58.6055L1569.45 47.1801L1589.33 58.6055L1609.22 47.1801L1629.1 58.6055L1648.98 47.1801L1668.87 58.6055L1688.09 47.5667L1689.43 49.7059L1668.87 61.5117L1648.98 50.0925L1629.1 61.518L1609.22 50.0925L1589.33 61.518L1569.45 50.0925L1549.56 61.518L1529.68 50.0925L1509.8 61.518L1489.92 50.0925L1470.04 61.518L1450.15 50.0925L1430.27 61.518L1410.39 50.0925L1390.51 61.518L1370.62 50.0925L1350.74 61.518L1330.86 50.0925L1310.99 61.518L1291.11 50.0925L1271.22 61.518L1251.34 50.0925L1231.46 61.518L1211.58 50.0925L1191.7 61.518L1171.82 50.0925L1151.95 61.518L1132.07 50.0925L1112.18 61.518Z" fill="#77323B"/>
<path d="M1112.18 68.7774L1091.63 56.9653L1092.97 54.8261L1112.18 65.8649L1132.07 54.4395L1151.95 65.8649L1171.82 54.4395L1191.7 65.8649L1211.58 54.4395L1231.46 65.8649L1251.34 54.4395L1271.22 65.8649L1291.11 54.4395L1310.99 65.8649L1330.86 54.4395L1350.74 65.8649L1370.62 54.4395L1390.51 65.8649L1410.39 54.4395L1430.27 65.8649L1450.15 54.4395L1470.04 65.8649L1489.92 54.4395L1509.8 65.8649L1529.68 54.4395L1549.56 65.8649L1569.45 54.4395L1589.33 65.8649L1609.22 54.4395L1629.1 65.8649L1648.98 54.4395L1668.87 65.8649L1688.09 54.8199L1689.43 56.9653L1668.87 68.7711L1648.98 57.3457L1629.1 68.7711L1609.22 57.3457L1589.33 68.7711L1569.45 57.3457L1549.56 68.7711L1529.68 57.3457L1509.8 68.7711L1489.92 57.3457L1470.04 68.7711L1450.15 57.3457L1430.27 68.7711L1410.39 57.3519L1390.51 68.7711L1370.62 57.3519L1350.74 68.7711L1330.86 57.3519L1310.99 68.7711L1291.11 57.3519L1271.22 68.7711L1251.34 57.3519L1231.46 68.7774L1211.58 57.3519L1191.7 68.7774L1171.82 57.3519L1151.95 68.7774L1132.07 57.3519L1112.18 68.7774Z" fill="#77323B"/>
<path d="M1410.73 74.6706C1411.96 74.6706 1412.96 73.7184 1412.96 72.5439C1412.96 71.3694 1411.96 70.4172 1410.73 70.4172C1409.51 70.4172 1408.51 71.3694 1408.51 72.5439C1408.51 73.7184 1409.51 74.6706 1410.73 74.6706Z" fill="#77323B"/>
<path d="M1369.83 73.3074C1371.05 73.3049 1372.04 72.3508 1372.04 71.1762C1372.04 70.0017 1371.04 69.0516 1369.82 69.054C1368.59 69.0565 1367.6 70.0106 1367.6 71.1851C1367.6 72.3597 1368.6 73.3098 1369.83 73.3074Z" fill="#77323B"/>
<path d="M1330.52 74.1843C1331.74 74.1819 1332.73 73.2277 1332.73 72.0532C1332.73 70.8787 1331.73 69.9285 1330.51 69.931C1329.28 69.9334 1328.29 70.8876 1328.29 72.0621C1328.29 73.2366 1329.29 74.1868 1330.52 74.1843Z" fill="#77323B"/>
<path d="M1290.56 74.3951C1291.79 74.3927 1292.78 73.4385 1292.78 72.264C1292.77 71.0895 1291.78 70.1393 1290.55 70.1418C1289.32 70.1442 1288.33 71.0984 1288.33 72.2729C1288.34 73.4474 1289.33 74.3976 1290.56 74.3951Z" fill="#77323B"/>
<path d="M1251.09 74.6118C1252.32 74.6093 1253.31 73.6552 1253.31 72.4807C1253.3 71.3061 1252.31 70.356 1251.08 70.3585C1249.86 70.3609 1248.86 71.3151 1248.87 72.4896C1248.87 73.6641 1249.87 74.6143 1251.09 74.6118Z" fill="#77323B"/>
<path d="M1211.14 74.8223C1212.37 74.8198 1213.36 73.8657 1213.36 72.6911C1213.36 71.5166 1212.36 70.5665 1211.13 70.5689C1209.91 70.5714 1208.91 71.5255 1208.92 72.7C1208.92 73.8746 1209.92 74.8247 1211.14 74.8223Z" fill="#77323B"/>
<path d="M1172.35 75.0321C1173.58 75.0296 1174.57 74.0755 1174.57 72.901C1174.57 71.7264 1173.57 70.7763 1172.34 70.7787C1171.12 70.7812 1170.12 71.7353 1170.13 72.9099C1170.13 74.0844 1171.13 75.0346 1172.35 75.0321Z" fill="#77323B"/>
<path d="M1131.95 75.0254C1133.17 75.0229 1134.16 74.0688 1134.16 72.8943C1134.16 71.7197 1133.16 70.7696 1131.94 70.772C1130.71 70.7745 1129.72 71.7286 1129.72 72.9032C1129.72 74.0777 1130.72 75.0278 1131.95 75.0254Z" fill="#77323B"/>
<path d="M1438.19 98.2825L1455.27 83.3396L1456.28 84.7179L1440.78 98.2825H1438.19Z" fill="#EAB88C"/>
<path d="M1435.81 81.1946H1437.93L1444.28 89.8447L1442.99 90.9798L1435.81 81.1946Z" fill="#EAB88C"/>
<path d="M1430.24 81.1938H1432.37L1440.89 92.8064L1439.6 93.9414L1430.24 81.1938Z" fill="#EAB88C"/>
<path d="M1424.51 81.1945H1426.64L1437.41 95.8567L1436.1 96.998L1424.51 81.1945Z" fill="#EAB88C"/>
<path d="M1419.21 98.2825L1428.67 89.994L1429.68 91.3723L1421.79 98.2825H1419.21Z" fill="#EAB88C"/>
<path d="M1425.46 98.2824L1431.12 93.3306L1432.13 94.7088L1428.05 98.2824H1425.46Z" fill="#EAB88C"/>
<path d="M1412.87 98.2828L1426.2 86.6141L1427.21 87.9924L1415.45 98.2828H1412.87Z" fill="#EAB88C"/>
<path d="M1406.72 98.2826L1423.8 83.3397L1424.81 84.718L1409.3 98.2826H1406.72Z" fill="#EAB88C"/>
<path d="M1410.07 81.1941H1412.19L1416.3 86.7883L1415.01 87.9234L1410.07 81.1941Z" fill="#EAB88C"/>
<path d="M1404.33 81.1945H1406.46L1412.81 89.8446L1411.52 90.9797L1404.33 81.1945Z" fill="#EAB88C"/>
<path d="M1398.77 81.1945H1400.9L1409.42 92.807L1408.13 93.9421L1398.77 81.1945Z" fill="#EAB88C"/>
<path d="M1393.04 81.1942H1395.16L1405.94 95.8565L1404.63 96.9977L1393.04 81.1942Z" fill="#EAB88C"/>
<path d="M1386.99 98.2574L1396.46 89.969L1397.47 91.3535L1389.57 98.2574H1386.99Z" fill="#EAB88C"/>
<path d="M1393.25 98.2577L1398.9 93.3121L1399.91 94.6842L1395.84 98.2577H1393.25Z" fill="#EAB88C"/>
<path d="M1380.66 98.2576L1393.98 86.5952L1394.99 87.9735L1383.23 98.2576H1380.66Z" fill="#EAB88C"/>
<path d="M1374.51 98.2579L1391.58 83.3151L1392.59 84.6933L1377.09 98.2579H1374.51Z" fill="#EAB88C"/>
<path d="M1377.85 81.1694H1379.98L1384.08 86.7637L1382.79 87.8987L1377.85 81.1694Z" fill="#EAB88C"/>
<path d="M1372.12 81.1697H1374.24L1380.59 89.8198L1379.3 90.9549L1372.12 81.1697Z" fill="#EAB88C"/>
<path d="M1366.55 81.1696H1368.69L1377.21 92.7883L1375.91 93.9172L1366.55 81.1696Z" fill="#EAB88C"/>
<path d="M1360.82 81.1698H1362.95L1373.71 95.8383L1372.41 96.9733L1360.82 81.1698Z" fill="#EAB88C"/>
<path d="M1354.57 98.2579L1364.04 89.9695L1365.05 91.354L1357.15 98.2579H1354.57Z" fill="#EAB88C"/>
<path d="M1360.83 98.2577L1366.48 93.3121L1367.49 94.6842L1363.41 98.2577H1360.83Z" fill="#EAB88C"/>
<path d="M1348.23 98.2576L1361.56 86.5952L1362.57 87.9735L1350.81 98.2576H1348.23Z" fill="#EAB88C"/>
<path d="M1342.08 98.2576L1359.15 83.3147L1360.16 84.693L1344.67 98.2576H1342.08Z" fill="#EAB88C"/>
<path d="M1345.43 81.1698H1347.55L1351.66 86.764L1350.36 87.8991L1345.43 81.1698Z" fill="#EAB88C"/>
<path d="M1339.7 81.1698H1341.82L1348.17 89.82L1346.87 90.955L1339.7 81.1698Z" fill="#EAB88C"/>
<path d="M1334.13 81.1699H1336.26L1344.78 92.7887L1343.49 93.9175L1334.13 81.1699Z" fill="#EAB88C"/>
<path d="M1328.4 81.1692H1330.53L1341.29 95.8377L1339.99 96.9727L1328.4 81.1692Z" fill="#EAB88C"/>
<path d="M1321.92 98.2575L1331.39 89.9691L1332.4 91.3536L1324.5 98.2575H1321.92Z" fill="#EAB88C"/>
<path d="M1328.18 98.2577L1333.84 93.3121L1334.85 94.6842L1330.77 98.2577H1328.18Z" fill="#EAB88C"/>
<path d="M1315.59 98.258L1328.91 86.5956L1329.92 87.9739L1318.16 98.258H1315.59Z" fill="#EAB88C"/>
<path d="M1309.44 98.2573L1326.51 83.3145L1327.52 84.6927L1312.02 98.2573H1309.44Z" fill="#EAB88C"/>
<path d="M1312.78 81.1694H1314.91L1319.02 86.7637L1317.72 87.8987L1312.78 81.1694Z" fill="#EAB88C"/>
<path d="M1307.05 81.1697H1309.18L1315.53 89.8198L1314.23 90.9549L1307.05 81.1697Z" fill="#EAB88C"/>
<path d="M1301.49 81.1696H1303.61L1312.13 92.7883L1310.84 93.9172L1301.49 81.1696Z" fill="#EAB88C"/>
<path d="M1295.75 81.1696H1297.88L1308.65 95.838L1307.35 96.9731L1295.75 81.1696Z" fill="#EAB88C"/>
<path d="M1289.28 98.2579L1298.74 89.9695L1299.75 91.354L1291.86 98.2579H1289.28Z" fill="#EAB88C"/>
<path d="M1295.53 98.2571L1301.19 93.3115L1302.2 94.6836L1298.13 98.2571H1295.53Z" fill="#EAB88C"/>
<path d="M1282.95 98.2576L1296.27 86.5952L1297.28 87.9735L1285.52 98.2576H1282.95Z" fill="#EAB88C"/>
<path d="M1276.79 98.2581L1293.87 83.3152L1294.88 84.6935L1279.37 98.2581H1276.79Z" fill="#EAB88C"/>
<path d="M1280.14 81.1698H1282.26L1286.37 86.764L1285.08 87.8991L1280.14 81.1698Z" fill="#EAB88C"/>
<path d="M1274.4 81.1698H1276.53L1282.87 89.82L1281.59 90.955L1274.4 81.1698Z" fill="#EAB88C"/>
<path d="M1268.84 81.1697H1270.97L1279.49 92.7885L1278.2 93.9173L1268.84 81.1697Z" fill="#EAB88C"/>
<path d="M1263.11 81.1693H1265.24L1276 95.8378L1274.7 96.9728L1263.11 81.1693Z" fill="#EAB88C"/>
<path d="M1256.63 98.2579L1266.1 89.9695L1267.11 91.354L1259.22 98.2579H1256.63Z" fill="#EAB88C"/>
<path d="M1262.89 98.258L1268.55 93.3124L1269.56 94.6844L1265.48 98.258H1262.89Z" fill="#EAB88C"/>
<path d="M1250.3 98.2581L1263.63 86.5957L1264.63 87.974L1252.87 98.2581H1250.3Z" fill="#EAB88C"/>
<path d="M1244.15 98.2575L1261.22 83.3146L1262.23 84.6929L1246.73 98.2575H1244.15Z" fill="#EAB88C"/>
<path d="M1247.5 81.1694H1249.62L1253.72 86.7637L1252.43 87.8987L1247.5 81.1694Z" fill="#EAB88C"/>
<path d="M1241.76 81.1692H1243.89L1250.23 89.8193L1248.94 90.9544L1241.76 81.1692Z" fill="#EAB88C"/>
<path d="M1236.19 81.1696H1238.33L1246.84 92.7883L1245.56 93.9172L1236.19 81.1696Z" fill="#EAB88C"/>
<path d="M1230.47 81.1693H1232.6L1243.36 95.8378L1242.06 96.9728L1230.47 81.1693Z" fill="#EAB88C"/>
<path d="M1223.99 98.2574L1233.46 89.969L1234.46 91.3535L1226.57 98.2574H1223.99Z" fill="#EAB88C"/>
<path d="M1230.25 98.2579L1235.9 93.3123L1236.91 94.6843L1232.83 98.2579H1230.25Z" fill="#EAB88C"/>
<path d="M1217.65 98.2579L1230.98 86.5955L1231.99 87.9738L1220.23 98.2579H1217.65Z" fill="#EAB88C"/>
<path d="M1211.51 98.2579L1228.57 83.3151L1229.59 84.6933L1214.08 98.2579H1211.51Z" fill="#EAB88C"/>
<path d="M1214.85 81.1697H1216.97L1221.08 86.7639L1219.79 87.899L1214.85 81.1697Z" fill="#EAB88C"/>
<path d="M1209.12 81.1698H1211.24L1217.59 89.82L1216.3 90.955L1209.12 81.1698Z" fill="#EAB88C"/>
<path d="M1203.55 81.1696H1205.68L1214.2 92.7883L1212.9 93.9172L1203.55 81.1696Z" fill="#EAB88C"/>
<path d="M1197.82 81.1697H1199.95L1210.72 95.8381L1209.41 96.9732L1197.82 81.1697Z" fill="#EAB88C"/>
<path d="M1191.34 98.2583L1200.81 89.9698L1201.82 91.3544L1193.92 98.2583H1191.34Z" fill="#EAB88C"/>
<path d="M1197.6 98.2577L1203.25 93.3121L1204.27 94.6842L1200.19 98.2577H1197.6Z" fill="#EAB88C"/>
<path d="M1185.01 98.258L1198.33 86.5956L1199.35 87.9739L1187.59 98.258H1185.01Z" fill="#EAB88C"/>
<path d="M1178.86 98.2578L1195.93 83.3149L1196.94 84.6932L1181.44 98.2578H1178.86Z" fill="#EAB88C"/>
<path d="M1182.2 81.17H1184.33L1188.43 86.7643L1187.14 87.8993L1182.2 81.17Z" fill="#EAB88C"/>
<path d="M1176.47 81.1697H1178.59L1184.94 89.8198L1183.65 90.9549L1176.47 81.1697Z" fill="#EAB88C"/>
<path d="M1170.9 81.1694H1173.04L1181.56 92.7882L1180.26 93.917L1170.9 81.1694Z" fill="#EAB88C"/>
<path d="M1165.17 81.1696H1167.3L1178.07 95.838L1176.77 96.9731L1165.17 81.1696Z" fill="#EAB88C"/>
<path d="M1158.7 98.2575L1168.17 89.9691L1169.18 91.3536L1161.28 98.2575H1158.7Z" fill="#EAB88C"/>
<path d="M1164.96 98.2576L1170.61 93.312L1171.62 94.6841L1167.54 98.2576H1164.96Z" fill="#EAB88C"/>
<path d="M1152.36 98.2578L1165.69 86.5953L1166.7 87.9736L1154.94 98.2578H1152.36Z" fill="#EAB88C"/>
<path d="M1146.21 98.2575L1163.28 83.3146L1164.29 84.6929L1148.8 98.2575H1146.21Z" fill="#EAB88C"/>
<path d="M1149.56 81.1691H1151.69L1155.79 86.7633L1154.49 87.8983L1149.56 81.1691Z" fill="#EAB88C"/>
<path d="M1143.83 81.1698H1145.95L1152.3 89.82L1151 90.955L1143.83 81.1698Z" fill="#EAB88C"/>
<path d="M1138.26 81.17H1140.4L1148.91 92.7888L1147.62 93.9176L1138.26 81.17Z" fill="#EAB88C"/>
<path d="M1132.53 81.1689H1134.66L1145.42 95.8374L1144.12 96.9725L1132.53 81.1689Z" fill="#EAB88C"/>
<path d="M1126.05 98.5133L1135.52 90.2311L1136.53 91.6094L1128.64 98.5133H1126.05Z" fill="#EAB88C"/>
<path d="M1132.31 98.5139L1137.97 93.5682L1138.98 94.9465L1134.9 98.5139H1132.31Z" fill="#EAB88C"/>
<path d="M1119.72 98.5135L1133.04 86.8511L1134.05 88.2294L1122.3 98.5135H1119.72Z" fill="#EAB88C"/>
<path d="M1113.57 98.5133L1130.64 83.5767L1131.65 84.9487L1116.15 98.5133H1113.57Z" fill="#EAB88C"/>
<path d="M1093.1 97.5405L1102.57 89.2583L1103.58 90.6366L1095.69 97.5405H1093.1Z" fill="#EAB88C"/>
<path d="M1099.36 97.54L1105.02 92.5944L1106.03 93.9727L1101.95 97.54H1099.36Z" fill="#EAB88C"/>
<path d="M1086.77 97.5406L1100.09 85.8782L1101.1 87.2565L1089.35 97.5406H1086.77Z" fill="#EAB88C"/>
<path d="M1116.91 81.4254H1119.04L1123.15 87.0196L1121.85 88.1547L1116.91 81.4254Z" fill="#EAB88C"/>
<path d="M1111.18 81.4254H1113.31L1119.66 90.0756L1118.36 91.2106L1111.18 81.4254Z" fill="#EAB88C"/>
<path d="M1105.62 81.4252H1107.75L1116.26 93.0439L1114.97 94.1728L1105.62 81.4252Z" fill="#EAB88C"/>
<path d="M1099.89 81.4252H1102.01L1112.78 96.0936L1111.48 97.2287L1099.89 81.4252Z" fill="#EAB88C"/>
</svg>
