<svg width="38" height="36" viewBox="0 0 38 36" fill="none" xmlns="http://www.w3.org/2000/svg">
<path d="M16.0715 5.51953C7.19553 5.51953 0 11.9706 0 19.9286C0 22.8613 0.979718 25.5877 2.65823 27.8634C2.43772 30.4927 1.80322 34.1962 0 36.0001C0 36.0001 5.50995 35.2267 9.24239 32.9729C11.3156 33.8465 13.6293 34.3376 16.0715 34.3376C24.9475 34.3376 32.143 27.8865 32.143 19.9286C32.143 11.9706 24.9475 5.51953 16.0715 5.51953Z" fill="#F5DF70"/>
<path d="M37.2845 14.4091C37.2845 6.4511 30.0889 0 21.213 0C14.8037 0 9.27185 3.36473 6.69141 8.23118C9.33163 6.52695 12.5684 5.51959 16.0701 5.51959C24.9461 5.51959 32.1416 11.9707 32.1416 19.9286C32.1416 22.9726 31.086 25.7941 29.2892 28.1206C32.8886 29.8595 37.2845 30.4806 37.2845 30.4806C35.4812 28.6773 34.8467 24.9738 34.6262 22.3439C36.3047 20.0682 37.2845 17.3418 37.2845 14.4091Z" fill="#77323B"/>
<path d="M7.71569 21.8573C8.78081 21.8573 9.64427 20.9938 9.64427 19.9287C9.64427 18.8636 8.78081 18.0001 7.71569 18.0001C6.65056 18.0001 5.78711 18.8636 5.78711 19.9287C5.78711 20.9938 6.65056 21.8573 7.71569 21.8573Z" fill="white"/>
<path d="M16.0712 21.8573C17.1363 21.8573 17.9997 20.9938 17.9997 19.9287C17.9997 18.8636 17.1363 18.0001 16.0712 18.0001C15.006 18.0001 14.1426 18.8636 14.1426 19.9287C14.1426 20.9938 15.006 21.8573 16.0712 21.8573Z" fill="white"/>
<path d="M24.4286 21.8573C25.4937 21.8573 26.3572 20.9938 26.3572 19.9287C26.3572 18.8636 25.4937 18.0001 24.4286 18.0001C23.3635 18.0001 22.5 18.8636 22.5 19.9287C22.5 20.9938 23.3635 21.8573 24.4286 21.8573Z" fill="white"/>
</svg>
