<svg width="24" height="24" viewBox="0 0 24 24" fill="none" xmlns="http://www.w3.org/2000/svg">
<path d="M3.42857 23.9997C5.32212 23.9997 6.85714 22.4647 6.85714 20.5711C6.85714 18.6776 5.32212 17.1426 3.42857 17.1426C1.53502 17.1426 0 18.6776 0 20.5711C0 22.4647 1.53502 23.9997 3.42857 23.9997Z" fill="#303030"/>
<path d="M0 8.00098V12.573C6.30171 12.573 11.4291 17.6987 11.4291 24.0004H15.9994C15.9994 15.1787 8.82171 8.00098 0 8.00098Z" fill="#303030"/>
<path d="M0 0V4.572C10.7143 4.572 19.4297 13.2857 19.4297 24H24C24 10.7657 13.2343 0 0 0Z" fill="#303030"/>
</svg>
