<svg width="24" height="16" viewBox="0 0 24 16" fill="none" xmlns="http://www.w3.org/2000/svg">
<path d="M23.9936 0.47382C23.9952 0.46423 23.998 0.45464 23.9988 0.44505C24.0016 0.41548 23.9984 0.385511 23.9948 0.355542C23.994 0.34795 23.9952 0.340757 23.994 0.333165C23.9868 0.293606 23.9736 0.254846 23.954 0.217685C23.9508 0.211291 23.9464 0.205298 23.9428 0.198904C23.942 0.198105 23.942 0.196906 23.9416 0.195707C23.9412 0.194908 23.94 0.194509 23.9396 0.19331C23.9368 0.188915 23.9344 0.18412 23.9316 0.180124C23.9068 0.143761 23.8769 0.113792 23.8433 0.0882185C23.8357 0.0826242 23.8269 0.0794276 23.8189 0.074233C23.7894 0.0546532 23.7582 0.0386697 23.7246 0.0278808C23.7099 0.0230858 23.6951 0.0206884 23.6799 0.0178913C23.6507 0.0118975 23.6215 0.00910019 23.5912 0.00989937C23.5752 0.010299 23.56 0.0110981 23.544 0.0134956C23.5336 0.0150939 23.5236 0.0134958 23.5133 0.0158933L0.318824 4.80934C0.153795 4.8437 0.0275255 4.97757 0.0039499 5.14459C-0.0196257 5.31162 0.063888 5.47545 0.212934 5.55417L6.85887 9.05975L8.02446 15.5279C8.02366 15.5327 8.02486 15.5379 8.02446 15.5426C8.02047 15.5746 8.02007 15.6058 8.02406 15.6374C8.02606 15.6533 8.02806 15.6685 8.03205 15.6841C8.04124 15.7221 8.05603 15.7576 8.07601 15.7912C8.08 15.7976 8.08 15.8052 8.0844 15.8116C8.0856 15.8136 8.0876 15.8152 8.08919 15.8168C8.09439 15.8244 8.10158 15.8304 8.10758 15.8379C8.12636 15.8611 8.14594 15.8823 8.16831 15.9003C8.17191 15.9031 8.17431 15.9075 8.1783 15.9103C8.1843 15.9147 8.19109 15.9159 8.19708 15.9199C8.22146 15.9358 8.24663 15.949 8.2734 15.9594C8.28419 15.9634 8.29418 15.9682 8.30537 15.9714C8.34133 15.9818 8.3785 15.989 8.41606 15.989C8.41646 15.989 8.41686 15.989 8.41726 15.989C8.41885 15.989 8.42045 15.9882 8.42205 15.9882C8.42884 15.9886 8.43564 15.989 8.44243 15.989C8.55312 15.989 8.65301 15.9394 8.72694 15.8631L13.154 12.9118L17.7892 15.9247C17.8547 15.967 17.9306 15.989 18.0069 15.989C18.0489 15.989 18.0917 15.9822 18.1328 15.9686C18.2479 15.9302 18.3398 15.8415 18.3818 15.7273L23.9744 0.547344C23.9796 0.533758 23.984 0.519772 23.9876 0.505387C23.9892 0.499393 23.9896 0.4934 23.9908 0.487806C23.992 0.48341 23.9928 0.478615 23.9936 0.47382ZM19.3655 3.02438L9.77825 10.0735C9.76267 10.0851 9.75028 10.0995 9.73669 10.1131C9.7315 10.1179 9.7263 10.1218 9.72191 10.127C9.71352 10.1362 9.70592 10.1454 9.69833 10.1554C9.69114 10.165 9.68554 10.175 9.67915 10.185C9.66437 10.209 9.65198 10.2337 9.64239 10.2601C9.64039 10.2653 9.6372 10.2693 9.6356 10.2745C9.6352 10.2761 9.6336 10.2769 9.6332 10.2785L8.53434 13.8496L7.66363 9.01819L19.3655 3.02438ZM9.1537 14.6184L10.243 11.0205L11.9388 12.123L12.4239 12.4383L10.776 13.5367L9.1537 14.6184ZM20.7961 1.39367L7.22089 8.34688L1.57073 5.36676L20.7961 1.39367ZM17.8052 14.982L11.6495 10.9814L10.7173 10.3752L22.7664 1.51554L17.8052 14.982Z" fill="white"/>
</svg>
