<svg width="46" height="24" viewBox="0 0 46 24" fill="none" xmlns="http://www.w3.org/2000/svg">
<path d="M16 0H18.6667V24H16V0Z" fill="#303030"/>
<path d="M10.6665 8H13.3332V24H10.6665V8Z" fill="#303030"/>
<path d="M5.3335 5.33301H8.00016V23.9997H5.3335V5.33301Z" fill="#303030"/>
<path d="M0 13.333H2.66667V23.9997H0V13.333Z" fill="#303030"/>
<path d="M36.7557 8.02674C35.0759 3.25313 30.5068 0 25.3335 0C24.4269 0 23.5203 0.106597 22.6668 0.320139C22.5602 0.320139 22.4533 0.346528 22.3467 0.373264L21.3335 0.639931V24H37.4224C41.8224 24 45.5113 20.4 45.5113 16C45.5113 11.3601 41.3689 7.67986 36.7557 8.02674Z" fill="#303030"/>
</svg>
