<svg width="24" height="24" viewBox="0 0 24 24" fill="none" xmlns="http://www.w3.org/2000/svg">
<path d="M12 0C5.37257 0 0 5.37257 0 12C0 18.6274 5.37257 24 12 24C18.6274 24 24 18.6274 24 12C24 5.37257 18.6274 0 12 0ZM17.2226 17.4153C17.07 17.6764 16.7954 17.8219 16.5133 17.822C16.3727 17.822 16.2302 17.7858 16.1 17.7097C13.9436 16.4495 11.4524 16.247 9.74188 16.299C7.84709 16.3566 6.45755 16.7307 6.44374 16.7345C6.00696 16.8538 5.55558 16.5968 5.43577 16.16C5.316 15.7234 5.57214 15.2723 6.0087 15.152C6.07133 15.1348 7.5666 14.7286 9.64592 14.6601C10.8707 14.6196 12.0498 14.705 13.15 14.9137C14.5434 15.178 15.8146 15.642 16.9281 16.2928C17.3194 16.5215 17.4512 17.0241 17.2226 17.4153ZM18.7481 14.2468C18.5674 14.5561 18.2422 14.7285 17.908 14.7285C17.7415 14.7285 17.5727 14.6857 17.4185 14.5956C14.8642 13.1028 11.9132 12.863 9.88712 12.9245C7.64264 12.9928 5.99669 13.4359 5.98036 13.4404C5.4631 13.5815 4.92832 13.2773 4.7864 12.76C4.64452 12.2427 4.94797 11.7084 5.46506 11.5659C5.53925 11.5455 7.31041 11.0644 9.77342 10.9832C11.2243 10.9353 12.6209 11.0364 13.9241 11.2836C15.5747 11.5968 17.0804 12.1464 18.3994 12.9172C18.8629 13.188 19.019 13.7833 18.7481 14.2468ZM19.686 11.3658C19.4816 11.3658 19.2747 11.3133 19.0855 11.2028C13.0129 7.65381 5.13552 9.76366 5.05667 9.78543C4.42178 9.96036 3.76545 9.5875 3.59058 8.95266C3.41566 8.31783 3.78852 7.66144 4.42335 7.48657C4.51432 7.46149 6.68686 6.87138 9.70799 6.77177C11.4877 6.71318 13.2008 6.83709 14.7992 7.14031C16.8239 7.5244 18.6708 8.19852 20.2886 9.14403C20.8571 9.47627 21.0487 10.2064 20.7165 10.7749C20.4948 11.1543 20.0958 11.3658 19.686 11.3658Z" fill="#303030"/>
</svg>
