<svg width="24" height="15" viewBox="0 0 24 15" fill="none" xmlns="http://www.w3.org/2000/svg">
<path d="M12.2569 0.306641C16.7442 0.306641 20.8135 2.84532 23.8162 6.96881C24.0613 7.30664 24.0613 7.7786 23.8162 8.11643C20.8135 12.2449 16.7442 14.7836 12.2569 14.7836C7.76956 14.7836 3.70024 12.2449 0.6975 8.1214C0.452477 7.78357 0.452477 7.31161 0.6975 6.97378C3.70024 2.84532 7.76956 0.306641 12.2569 0.306641ZM11.935 12.6423C14.9137 12.8361 17.3735 10.2974 17.1862 7.21225C17.0324 4.6686 15.0386 2.60685 12.5788 2.44787C9.60004 2.25412 7.14019 4.7928 7.32756 7.87796C7.4861 10.4166 9.47993 12.4784 11.935 12.6423ZM12.0839 10.2875C13.6886 10.3918 15.0146 9.02559 14.9089 7.36626C14.8272 5.99507 13.751 4.88719 12.425 4.79777C10.8204 4.69344 9.49434 6.05966 9.60004 7.71899C9.68652 9.09514 10.7627 10.203 12.0839 10.2875Z" fill="#969696"/>
</svg>
