<svg width="286" height="213" viewBox="0 0 286 213" fill="none" xmlns="http://www.w3.org/2000/svg">
<path d="M14.6643 151.674L20.195 131.898L25.7256 151.674H29.4127L39.4685 119.998H35.4462L27.5692 144.803L21.7871 124.272H18.6028L12.8208 144.803L4.94383 119.998H0.334961L10.3907 151.674H14.6643Z" fill="#77323B"/>
<path d="M64.0211 147.652H49.2727V138.099H61.7586V134.076H49.2727V124.021H63.6021V119.998H44.999V151.674H64.0211V147.652Z" fill="#77323B"/>
<path d="M95.697 139.607C97.1215 139.523 98.2947 139.104 99.384 138.518C100.473 137.931 101.311 137.177 101.898 136.255C102.485 135.333 102.987 134.328 103.323 133.238C103.658 132.149 103.742 131.06 103.742 129.803C103.742 128.546 103.574 127.289 103.239 126.116C102.904 124.942 102.317 123.937 101.647 122.931C100.976 122.009 99.9706 121.255 98.7975 120.669C97.5405 120.082 96.1998 119.831 94.6076 119.831H82.6245V151.506H86.8144V141.953V134.328V123.853H94.44C95.6132 123.853 96.5349 124.188 97.3729 124.775C98.1271 125.361 98.7137 126.116 99.0489 126.953C99.3841 127.791 99.5517 128.797 99.5517 129.803C99.5517 130.557 99.4678 131.311 99.3002 131.981C99.1327 132.652 98.7975 133.322 98.4623 133.825C98.0433 134.411 97.5405 134.831 96.7863 135.166C96.1159 135.501 95.278 135.668 94.3562 135.668H90.7529V139.691H90.8367L98.9651 151.59H104.077L95.697 139.607Z" fill="#77323B"/>
<path d="M114.97 138.099H127.54V134.076H114.97V124.021H129.383V119.998H110.78V151.674H129.802V147.652H114.97V138.099Z" fill="#77323B"/>
<path d="M191.143 129.635C190.472 127.708 189.551 126.032 188.377 124.607C187.204 123.183 185.696 122.093 183.936 121.255C182.176 120.417 180.165 119.998 177.987 119.998H165.836V151.674H177.987C180.165 151.674 182.176 151.255 183.936 150.501C185.696 149.663 187.204 148.573 188.377 147.149C189.551 145.724 190.472 144.048 191.143 142.121C191.813 140.194 192.148 138.099 192.148 135.92C192.148 133.741 191.813 131.562 191.143 129.635ZM187.288 140.529C186.869 141.953 186.199 143.21 185.445 144.216C184.607 145.305 183.601 146.143 182.344 146.73C181.087 147.316 179.663 147.652 178.07 147.652H170.193V123.937H178.07C180.165 123.937 182.009 124.44 183.517 125.529C185.026 126.618 186.199 128.043 186.869 129.803C187.623 131.563 187.958 133.574 187.958 135.836C187.958 137.596 187.707 139.104 187.288 140.529Z" fill="#77323B"/>
<path d="M187.791 211.841H194.494L208.991 179.662L223.488 211.841H230.108L208.991 164.998L187.791 211.841Z" fill="#77323B"/>
<path d="M133.741 151.674H138.266L147.987 129.887L157.707 151.674H162.149L147.987 119.998L133.741 151.674Z" fill="#77323B"/>
<path d="M49.4404 211.841H55.7253V191.813H72.401V185.863H55.7253V170.947H76.7585V164.998H49.4404V211.841Z" fill="#77323B"/>
<path d="M104.747 194.076C106.842 193.908 108.686 193.405 110.194 192.483C111.786 191.645 113.043 190.472 113.965 189.131C114.887 187.791 115.557 186.282 116.06 184.69C116.479 183.098 116.73 181.422 116.73 179.579C116.73 177.651 116.479 175.891 115.892 174.215C115.389 172.54 114.551 170.947 113.462 169.523C112.457 168.098 110.948 167.009 109.188 166.171C107.345 165.333 105.25 164.914 102.904 164.914H85.0547V211.757H91.3395V170.864H102.736C104.496 170.864 105.92 171.283 107.093 172.204C108.267 173.126 109.105 174.132 109.607 175.472C110.11 176.729 110.278 178.154 110.278 179.662C110.278 180.835 110.11 181.841 109.859 182.847C109.607 183.852 109.105 184.774 108.518 185.612C107.931 186.45 107.094 187.12 106.088 187.623C105.082 188.126 103.825 188.377 102.485 188.377H97.2892V194.243L109.44 211.841H117.065L104.747 194.076Z" fill="#77323B"/>
<path d="M133.49 164.998H127.205V211.841H133.49V164.998Z" fill="#77323B"/>
<path d="M174.132 204.885C171.869 205.975 169.523 206.477 166.925 206.477C163.741 206.477 160.808 205.64 158.126 204.131C155.445 202.539 153.35 200.36 151.842 197.595C150.333 194.83 149.579 191.813 149.579 188.545C149.579 185.277 150.333 182.26 151.842 179.495C153.35 176.729 155.445 174.551 158.126 172.958C160.808 171.366 163.741 170.528 166.925 170.528C169.439 170.528 171.785 171.031 173.964 172.037C176.143 173.042 178.07 174.467 179.746 176.31L184.523 172.372C182.428 169.942 179.83 168.014 176.813 166.59C173.797 165.165 170.445 164.495 166.925 164.495C162.568 164.495 158.629 165.584 154.942 167.679C151.339 169.858 148.406 172.707 146.311 176.394C144.216 180.081 143.21 184.104 143.21 188.461C143.21 191.729 143.797 194.83 145.054 197.763C146.311 200.695 147.987 203.293 150.082 205.388C152.177 207.567 154.691 209.243 157.624 210.5C160.557 211.757 163.657 212.427 166.925 212.427C170.528 212.427 173.88 211.757 176.897 210.332C179.998 208.908 182.595 206.98 184.69 204.466L179.914 200.444C178.238 202.371 176.311 203.796 174.132 204.885Z" fill="#77323B"/>
<path d="M263.879 200.025L242.678 164.998H236.477V211.841H242.762V176.562L264.13 211.841H270.164V164.998H263.879V200.025Z" fill="#77323B"/>
<path d="M0 211.757H6.70381L21.117 179.578L35.614 211.757H42.3178L21.117 164.998L0 211.757Z" fill="#77323B"/>
<path d="M240.667 104.328H230.779L234.466 95.4457L235.304 96.6189L238.656 101.479L240.667 104.328Z" fill="#77323B"/>
<path d="M157.037 35.1952L155.277 38.4633L172.455 72.2337L175.975 72.4014L158.042 37.1225L157.037 35.1952Z" fill="#77323B"/>
<path d="M160.891 28.1562L183.516 72.6527L187.036 72.7365L162.651 24.8881L160.891 28.1562Z" fill="#77323B"/>
<path d="M277.873 62.8483L266.644 57.7366C268.404 53.1277 268.152 48.8541 265.806 45.7535C264.13 43.5748 261.616 42.1502 258.432 41.7312C252.901 40.9771 246.03 43.1558 240.164 47.5971C239.326 48.2675 238.488 48.9378 237.734 49.6082L234.047 44.329C234.13 44.2452 234.214 44.1614 234.298 44.0776H234.382V43.9938C235.136 43.3234 235.89 42.7368 236.728 42.0664C243.683 36.7872 251.728 33.6029 258.851 33.1839H258.935C259.689 33.1001 260.359 33.1001 261.113 33.1839V32.1783L259.605 30.1672C259.354 30.1672 259.102 30.1672 258.851 30.1672H258.767C251.058 30.5862 242.678 33.8543 235.136 39.4687L236.393 31.8431C242.259 28.0722 248.46 25.1393 254.493 23.4634L252.566 20.8656C247.454 22.4578 242.175 24.8041 237.063 27.8208L238.32 20.1952C241.672 18.3517 245.024 16.7595 248.46 15.5026L246.533 12.9886C243.013 14.3294 239.577 16.0054 236.142 17.9327L235.471 18.2679L231.7 41.0609L203.125 0L192.902 63.0996L168.433 13.9942L166.673 17.2623L194.41 72.8202L200.444 35.7816L211.086 51.1166L200.109 77.3453L201.952 80.8648L213.181 54.1333L217.706 60.6695L205.974 88.3228L207.818 91.8423L219.885 63.5186L224.494 70.1386L211.924 99.5517L213.768 103.071L226.589 73.1554L230.946 79.524L215.108 113.63H254.493L259.186 120.417H215.527L216.784 123.518H265.052L265.136 123.685L201.282 31.4241L202.79 21.955L268.571 116.814L270.163 113.713L203.46 17.5137L205.053 7.87698L235.555 51.787L235.471 51.8708L250.639 73.6582L265.219 94.6914L267.733 92.9316L257.678 78.4346L278.627 87.7362L278.962 86.6468L279.549 84.8032L254.326 73.4906L253.404 72.1498C254.661 71.4794 255.834 70.6414 257.007 69.8035C257.678 69.3007 258.348 68.7979 258.935 68.2113L281.644 78.5184L281.811 78.0156L282.566 75.5855L261.281 65.9488C262.873 64.189 264.298 62.3455 265.387 60.4181L284.66 69.1331L285.415 66.7867L285.582 66.284L277.873 62.8483ZM252.315 110.529H219.633L232.79 82.4569L252.315 110.529ZM263.376 57.6528L263.292 57.9042C262.119 60.4181 260.275 62.932 258.013 65.1108C257.175 65.9488 256.169 66.7868 255.164 67.4571C254.074 68.2951 252.901 69.0493 251.728 69.7197L239.577 52.1221C240.415 51.368 241.253 50.6138 242.091 49.9434C247.287 46.0049 253.404 43.9938 258.097 44.6642C260.443 44.9993 262.286 46.0049 263.46 47.5133C265.136 50.0272 265.136 53.6305 263.376 57.6528Z" fill="#77323B"/>
<path d="M221.058 134.244H259.605L261.197 131.143H219.801L221.058 134.244Z" fill="#77323B"/>
<path d="M190.221 31.0889L190.472 29.6643L192.483 17.5137L181.254 24.1337L188.88 39.3011L190.221 31.0889Z" fill="#77323B"/>
<path d="M230.192 24.3852L230.276 23.631L231.365 16.8434L224.243 18.7707L229.438 28.9102L230.192 24.3852Z" fill="#77323B"/>
<path d="M202.623 48.6027L200.109 66.1164L206.226 53.0439L202.623 48.6027Z" fill="#77323B"/>
<path d="M149.663 64.1053L161.562 68.8817L152.679 51.0328L149.663 64.1053Z" fill="#77323B"/>
<path d="M238.907 151.674L250.303 141.87H225.416L238.907 151.674Z" fill="#77323B"/>
<path d="M256.756 52.7927C258.683 55.6418 258.013 59.4965 255.248 61.4238L248.125 51.2843C250.89 49.2732 254.745 50.0274 256.756 52.7927Z" fill="#77323B"/>
</svg>
