<svg width="497" height="304" viewBox="0 0 497 304" fill="none" xmlns="http://www.w3.org/2000/svg">
<path d="M22.403 242.491C22.403 242.491 105.196 296.927 249.133 302.94C421.618 310.156 481.371 220.97 481.371 220.97C481.371 220.97 513.146 167.927 483.523 142.735C439.784 105.453 392.248 140.963 339.015 166.092C197.61 232.87 119.374 175.903 98.866 171.155C46.5826 158.939 -41.5904 192.866 22.403 242.491Z" fill="#F2F2F2"/>
<path d="M150.39 44.3082L140.579 44.8779L149.82 54.1193L150.39 44.3082ZM149.567 45.1311L149.187 52.4736L142.288 45.5742L149.567 45.1311Z" fill="#EAB88C"/>
<path d="M152.541 42.1559L136.147 43.042L151.655 58.5498L152.541 42.1559ZM151.592 43.1053L150.832 56.5243L138.173 43.8649L151.592 43.1053Z" fill="#EAB88C"/>
<path d="M357.055 47.2831L359.334 32.5981L342.687 43.422L357.055 47.2831ZM356.106 45.8272L345.345 42.9156L357.751 34.8768L356.106 45.8272Z" fill="#EAB88C"/>
<path d="M359.524 51.1442L363.321 26.5216L335.471 44.6246L359.524 51.1442ZM358.448 49.4352L338.825 44.0549L361.612 29.3067L358.448 49.4352Z" fill="#EAB88C"/>
<path d="M218.497 214.071L224.131 257.936L201.787 260.847L144.883 227.047L144.503 223.565L218.497 214.071Z" fill="#877246"/>
<path d="M204.319 258.379L201.787 260.847L144.883 227.047L144.503 223.565L204.319 258.379Z" fill="#9B865A"/>
<path d="M149.314 220.084C149.314 221.35 149.314 222.679 149.314 223.945C149.314 223.945 196.407 249.517 205.078 255.847C205.078 255.847 212.231 241.922 203.559 218.945C203.559 218.945 148.681 187.233 143.87 185.081C143.87 185.081 145.453 189.955 146.908 197.424C146.972 197.804 147.035 198.183 147.162 198.626C148.238 204.45 149.25 211.666 149.377 219.325C149.377 219.578 149.377 219.831 149.314 220.084Z" fill="#F7E8B4"/>
<path d="M191.027 220.78C191.027 220.78 189.888 220.337 188.242 219.641C186.597 218.881 184.381 217.869 182.229 216.792C180.077 215.716 177.988 214.514 176.406 213.628C174.823 212.741 173.811 212.045 173.811 212.045C173.811 212.045 174.95 212.488 176.596 213.185C178.241 213.881 180.457 214.894 182.609 215.97C184.761 217.046 186.85 218.248 188.432 219.198C190.015 220.084 191.027 220.78 191.027 220.78Z" fill="#E4D39E"/>
<path d="M174.19 221.477C174.19 221.477 172.67 220.844 170.455 219.831C169.379 219.325 168.05 218.755 166.721 218.059C165.391 217.362 163.935 216.666 162.48 215.907C161.024 215.147 159.631 214.387 158.239 213.691C156.909 212.995 155.644 212.235 154.631 211.666C152.542 210.463 151.149 209.577 151.149 209.577C151.149 209.577 152.669 210.21 154.884 211.223C155.96 211.729 157.289 212.299 158.682 212.995C160.074 213.691 161.467 214.387 162.923 215.084C164.379 215.843 165.771 216.603 167.1 217.362C168.43 218.059 169.632 218.818 170.708 219.388C172.797 220.654 174.19 221.477 174.19 221.477Z" fill="#E4D39E"/>
<path d="M203.116 247.745C203.116 247.745 201.597 247.112 199.382 246.099C198.306 245.593 196.977 245.023 195.647 244.327C194.318 243.631 192.862 242.934 191.406 242.175C189.951 241.415 188.558 240.656 187.165 239.96C185.836 239.263 184.57 238.504 183.558 237.934C181.469 236.731 180.076 235.845 180.076 235.845C180.076 235.845 181.595 236.478 183.811 237.491C184.887 237.997 186.216 238.567 187.609 239.263C189.001 239.96 190.394 240.656 191.849 241.415C193.305 242.175 194.698 242.934 196.027 243.694C197.356 244.39 198.559 245.15 199.635 245.72C201.724 246.859 203.116 247.745 203.116 247.745Z" fill="#E4D39E"/>
<path d="M197.609 229.705C197.609 229.705 196.09 229.072 193.875 228.06C192.799 227.553 191.47 226.983 190.14 226.287C188.811 225.591 187.355 224.895 185.899 224.135C184.444 223.376 183.051 222.616 181.659 221.92C180.329 221.223 179.063 220.464 178.051 219.894C175.962 218.692 174.569 217.805 174.569 217.805C174.569 217.805 176.088 218.438 178.304 219.451C179.38 219.958 180.709 220.527 182.038 221.223C183.431 221.92 184.823 222.616 186.279 223.376C187.735 224.135 189.128 224.895 190.457 225.654C191.786 226.351 192.989 227.11 194.065 227.68C196.28 228.819 197.609 229.705 197.609 229.705Z" fill="#E4D39E"/>
<path d="M191.153 238.883C191.153 238.883 190.14 238.567 188.685 237.934C187.229 237.301 185.267 236.415 183.431 235.402C181.595 234.389 179.76 233.313 178.43 232.427C177.101 231.541 176.278 230.908 176.278 230.908C176.278 230.908 177.291 231.224 178.747 231.857C180.203 232.49 182.165 233.377 184.001 234.389C185.836 235.402 187.672 236.478 189.001 237.364C190.33 238.25 191.153 238.883 191.153 238.883Z" fill="#E4D39E"/>
<path d="M149.314 220.084C149.378 220.084 149.378 220.084 149.314 220.084C151.023 221.16 153.302 222.489 155.581 223.755C157.923 225.021 160.265 226.16 162.037 226.983C163.746 227.743 164.949 228.186 165.075 228.249C164.949 228.123 163.936 227.426 162.353 226.414C160.708 225.338 158.429 224.008 156.087 222.742C153.745 221.476 151.403 220.337 149.631 219.514C149.504 219.451 149.378 219.388 149.251 219.388C149.378 219.578 149.378 219.831 149.314 220.084Z" fill="#E4D39E"/>
<path d="M181.089 228.06C181.089 228.06 179.57 227.427 177.355 226.414C176.215 225.907 174.95 225.274 173.557 224.578C172.164 223.882 170.709 223.186 169.253 222.426C167.797 221.666 166.341 220.97 164.949 220.274C163.556 219.578 162.29 218.881 161.214 218.312C159.062 217.172 157.606 216.35 157.606 216.35C157.543 216.286 157.48 216.223 157.543 216.096C157.606 216.033 157.669 215.97 157.733 216.033C157.733 216.033 159.252 216.666 161.467 217.679C162.607 218.185 163.873 218.755 165.265 219.451C166.658 220.147 168.113 220.844 169.569 221.603C171.025 222.363 172.481 223.186 173.81 223.882C175.139 224.578 176.405 225.338 177.481 225.907C179.697 227.173 181.089 228.06 181.089 228.06Z" fill="#E4D39E"/>
<path d="M146.909 197.487C146.972 197.867 147.036 198.247 147.162 198.69C147.479 198.88 147.795 199.07 148.112 199.259C150.264 200.525 153.176 202.044 156.151 203.564C157.67 204.323 159.126 205.083 160.518 205.716C161.911 206.412 163.24 206.982 164.379 207.488C165.519 207.994 166.468 208.374 167.164 208.691C167.734 208.944 168.114 209.07 168.177 209.134C168.114 209.07 167.797 208.881 167.228 208.501C166.595 208.121 165.772 207.551 164.696 206.855C163.62 206.222 162.417 205.463 161.024 204.64C159.695 203.88 158.239 203.057 156.784 202.234C153.809 200.715 150.834 199.259 148.555 198.247C147.985 197.93 147.416 197.677 146.909 197.487Z" fill="#E4D39E"/>
<g style="mix-blend-mode:multiply">
<g style="mix-blend-mode:multiply">
<path d="M192.672 247.429C200.838 247.935 203.749 241.795 202.8 234.263C201.154 221.477 191.343 215.4 180.962 209.893C174.569 206.475 167.29 202.994 161.087 199.323C155.77 196.158 149.567 192.613 145.01 188.879C144.377 186.537 143.934 185.144 143.934 185.144C148.934 187.486 203.623 219.008 203.623 219.008C212.294 241.985 205.142 255.91 205.142 255.91C202.737 254.201 197.483 251.036 191.153 247.302C191.596 247.365 192.166 247.365 192.672 247.429Z" fill="#ECEBE8"/>
</g>
</g>
<path d="M140.516 183.119L140.136 180.207L315.026 161.471L371.803 194.322C371.803 194.322 202.737 221.857 202.547 221.54C199.888 217.299 195.521 214.641 194.824 214.261C185.9 208.944 179.317 205.273 170.392 199.956C162.163 195.082 153.998 191.031 145.769 186.157C143.997 185.207 142.225 184.131 140.516 183.119Z" fill="#877246"/>
<path d="M195.331 211.982C207.358 221.223 209.953 248.378 201.661 260.847C201.661 260.847 372.943 238.757 373.386 238.693C379.652 237.87 380.982 226.414 381.235 221.73C381.678 214.767 379.209 188.245 367.056 189.828L195.331 211.982Z" fill="#9B865A"/>
<g style="mix-blend-mode:multiply">
<g style="mix-blend-mode:multiply">
<path d="M201.787 220.084C204.952 223.439 207.547 227.237 209.446 231.478C211.218 235.529 211.978 239.643 212.927 243.947C213.434 246.163 214.067 249.138 216.219 250.403C219.637 252.492 241.601 251.29 247.361 250.403C258.944 248.505 270.464 247.429 282.617 245.846C306.86 242.681 328.634 240.972 352.687 236.605C360.536 235.212 370.157 233.756 375.031 226.667C376.993 223.819 378.386 220.654 379.145 217.236C379.842 214.134 379.778 210.906 380.095 207.741C381.171 213.501 381.424 219.071 381.298 221.73C381.044 226.414 379.715 237.871 373.449 238.694C373.006 238.757 201.724 260.848 201.724 260.848C208.18 251.036 207.99 232.174 201.787 220.084Z" fill="#ECEBE8"/>
</g>
</g>
<path d="M340.154 193.309L345.788 192.613C349.586 198.943 352.054 206.285 353.004 213.628C354.08 222.299 354.523 232.68 352.117 241.479L346.547 242.175C349.712 227.933 349.206 206.539 340.154 193.309Z" fill="#735E32"/>
<path d="M329.521 194.639L335.155 193.942C338.953 200.272 341.421 207.615 342.371 214.957C343.447 223.629 343.89 234.009 341.485 242.808L335.914 243.504C339.143 229.262 338.573 207.868 329.521 194.639Z" fill="#735E32"/>
<path d="M318.95 196.031L324.584 195.272C328.381 201.601 330.85 208.944 331.8 216.286C332.876 224.958 333.319 235.339 330.913 244.137L325.343 244.833C328.508 230.655 328.002 209.26 318.95 196.031Z" fill="#735E32"/>
<path d="M227.802 207.804L257.172 204.007C261.033 210.336 263.311 217.679 264.387 225.021C265.653 233.63 266.476 244.2 263.501 252.872L234.195 256.67C237.36 242.428 236.853 221.034 227.802 207.804Z" fill="#735E32"/>
<path d="M140.136 180.207L314.583 157.673L371.297 190.588L196.85 213.122L140.136 180.207Z" fill="#9B865A"/>
<path opacity="0.3" d="M227.358 171.029C217.168 172.105 184.19 177.169 178.936 178.118C174.062 178.941 150.516 180.397 153.048 184.005C154.503 186.094 165.011 192.36 167.163 193.689C170.328 195.652 182.417 204.323 185.899 206.792L140.198 180.271L314.645 157.737L317.81 159.572C298.441 162.168 237.866 169.89 227.358 171.029Z" fill="#848371"/>
<path d="M277.934 169.193L305.341 165.712L342.876 187.486L315.532 190.967L277.934 169.193Z" fill="#EAB88C"/>
<path d="M292.239 226.478L292.555 223.566L293.821 226.224L294.391 226.161L295.15 221.414L294.581 221.477L293.948 225.212L292.619 222.427L292.176 222.49L291.796 225.528L290.023 222.173L289.327 222.237L291.606 226.541L292.239 226.478Z" fill="white"/>
<path d="M299.391 224.895L297.175 225.212L296.985 223.819L298.821 223.566L298.758 222.996L296.922 223.249L296.669 221.794L298.821 221.477L298.758 220.907L295.973 221.287L296.669 225.845L299.454 225.465L299.391 224.895Z" fill="white"/>
<path d="M303.949 223.06C304.139 222.996 304.329 222.933 304.456 222.806C304.582 222.68 304.709 222.553 304.772 222.427C304.835 222.3 304.899 222.11 304.899 221.983C304.899 221.794 304.899 221.667 304.899 221.477C304.899 221.287 304.835 221.097 304.772 220.971C304.709 220.781 304.582 220.654 304.456 220.528C304.329 220.401 304.202 220.338 303.949 220.274C303.759 220.211 303.569 220.211 303.316 220.211L301.544 220.464L302.177 225.085L302.81 225.022L302.62 223.629L302.493 222.553L302.304 221.034L303.443 220.844C303.633 220.844 303.759 220.844 303.886 220.907C304.013 220.971 304.139 221.097 304.202 221.224C304.266 221.351 304.329 221.477 304.329 221.604C304.329 221.73 304.329 221.794 304.329 221.92C304.329 222.047 304.266 222.11 304.202 222.237C304.139 222.3 304.076 222.427 304.013 222.49C303.886 222.553 303.823 222.616 303.633 222.616L303.126 222.68L303.19 223.249L304.582 224.769L305.342 224.642L303.949 223.06Z" fill="white"/>
<path d="M306.797 222.426L308.696 222.173L308.633 221.603L306.734 221.856L306.544 220.337L308.696 220.021V219.451L305.848 219.831L306.354 224.452L309.202 224.072L309.139 223.502L306.924 223.819L306.797 222.426Z" fill="white"/>
<path d="M318.254 219.515C318.128 219.262 318.001 219.008 317.811 218.818C317.621 218.629 317.368 218.502 317.115 218.439C316.862 218.375 316.545 218.312 316.166 218.375L314.267 218.629L314.646 223.313L316.482 223.059C316.798 222.996 317.115 222.933 317.368 222.743C317.621 222.616 317.875 222.363 318.001 222.173C318.191 221.92 318.318 221.667 318.381 221.35C318.444 221.034 318.508 220.717 318.444 220.401C318.444 220.084 318.381 219.768 318.254 219.515ZM317.748 221.224C317.685 221.414 317.621 221.667 317.495 221.793C317.368 221.983 317.242 222.11 317.052 222.236C316.862 222.363 316.672 222.426 316.419 222.49L315.216 222.68L314.963 219.198L316.166 219.008C316.482 218.945 316.799 219.008 316.988 219.135C317.242 219.262 317.431 219.451 317.558 219.705C317.685 219.958 317.748 220.274 317.811 220.591C317.811 220.781 317.811 221.034 317.748 221.224Z" fill="white"/>
<path d="M311.165 230.781L311.925 230.655L313.317 226.794L315.406 230.212L316.165 230.085L313.191 225.085L311.165 230.781Z" fill="white"/>
<path d="M309.835 224.009L310.468 223.882L311.607 220.527L313.38 223.502L314.076 223.376L311.481 219.008L309.835 224.009Z" fill="white"/>
<path d="M294.961 232.934L295.72 232.871L295.34 230.655L297.303 230.402L297.176 229.706L295.277 230.022L294.961 228.313L297.429 227.997L297.366 227.301L294.138 227.744L294.961 232.934Z" fill="white"/>
<path d="M301.1 230.085C301.354 230.022 301.544 229.959 301.733 229.832C301.923 229.706 302.05 229.579 302.113 229.389C302.177 229.199 302.24 229.073 302.303 228.883C302.303 228.693 302.366 228.503 302.303 228.313C302.303 228.123 302.24 227.87 302.113 227.743C302.05 227.553 301.923 227.427 301.733 227.237C301.607 227.11 301.417 226.984 301.164 226.92C300.911 226.857 300.657 226.857 300.404 226.857L298.315 227.174L299.075 232.364L299.835 232.237L299.202 227.68L300.531 227.49C300.721 227.49 300.911 227.49 301.037 227.553C301.164 227.617 301.29 227.743 301.354 227.87C301.417 227.997 301.48 228.186 301.48 228.313C301.48 228.44 301.48 228.566 301.48 228.693C301.48 228.819 301.417 228.946 301.354 229.009C301.29 229.136 301.227 229.199 301.1 229.262C300.974 229.326 300.847 229.389 300.657 229.389L300.024 229.452L300.088 230.085L301.797 231.858L302.683 231.731L301.1 230.085Z" fill="white"/>
<path d="M304.013 231.731L304.772 231.604L304.076 226.351L303.38 226.477L304.013 231.731Z" fill="white"/>
<path d="M309.455 230.212C309.202 230.339 308.949 230.465 308.632 230.529C308.253 230.592 307.873 230.529 307.556 230.402C307.24 230.275 306.923 230.085 306.734 229.769C306.544 229.516 306.417 229.136 306.354 228.819C306.29 228.44 306.354 228.123 306.48 227.743C306.607 227.427 306.86 227.11 307.177 226.921C307.493 226.667 307.81 226.541 308.189 226.478C308.506 226.414 308.759 226.478 309.076 226.541C309.329 226.604 309.582 226.731 309.835 226.921L310.342 226.414C310.088 226.161 309.709 225.971 309.329 225.908C308.949 225.781 308.569 225.781 308.126 225.845C307.62 225.908 307.113 226.098 306.734 226.414C306.354 226.731 306.037 227.11 305.847 227.554C305.658 227.997 305.594 228.503 305.658 228.946C305.721 229.326 305.847 229.642 305.974 229.959C306.164 230.275 306.417 230.529 306.67 230.718C306.923 230.908 307.24 231.098 307.62 231.161C308 231.225 308.379 231.288 308.759 231.225C309.202 231.162 309.582 231.035 309.898 230.845C310.215 230.655 310.531 230.402 310.721 230.085L310.088 229.706C309.898 229.832 309.709 230.022 309.455 230.212Z" fill="white"/>
<path d="M320.153 228.186L317.304 224.515L316.545 224.642L316.925 229.959L317.684 229.895L317.431 225.844L320.279 229.516L320.976 229.452L320.659 224.072L319.9 224.135L320.153 228.186Z" fill="white"/>
<path d="M289.327 233.693L290.087 233.63L291.099 229.832L293.378 233.124L294.138 233.06L290.783 228.187L289.327 233.693Z" fill="white"/>
<path d="M282.554 231.858L281.415 232.048L281.605 230.972L281.732 231.098L282.238 231.605L282.554 231.858Z" fill="white"/>
<path d="M271.098 225.528L271.034 225.908L273.946 229.389H274.326L271.287 225.718L271.098 225.528Z" fill="white"/>
<path d="M271.351 224.642L275.212 229.263H275.592L271.477 224.199L271.351 224.642Z" fill="white"/>
<path d="M285.909 226.667L284.453 226.288C284.58 225.718 284.453 225.212 284.073 224.895C283.82 224.642 283.504 224.579 283.124 224.579C282.428 224.579 281.731 224.958 281.098 225.528C281.035 225.591 280.908 225.718 280.845 225.781L280.275 225.212C280.275 225.212 280.275 225.212 280.275 225.148C280.339 225.085 280.402 224.958 280.529 224.895C281.225 224.199 282.111 223.629 282.934 223.503C282.997 223.503 283.124 223.502 283.187 223.439V223.313L282.934 223.123H282.871C281.984 223.313 281.035 223.819 280.339 224.579L280.275 223.692C280.845 223.123 281.541 222.68 282.174 222.426L281.858 222.173C281.288 222.426 280.718 222.806 280.212 223.249L280.149 222.363C280.529 222.11 280.845 221.857 281.225 221.604L280.908 221.35C280.529 221.604 280.149 221.857 279.832 222.11L279.769 222.173L279.896 224.895L275.465 220.591L275.971 228.06L271.794 222.87L271.667 223.249L276.414 229.136L276.098 224.832L277.744 226.414L277.174 229.516L277.49 229.896L278.123 226.731L278.82 227.364L278.187 230.655L278.503 231.035L279.199 227.68L279.896 228.376L279.199 231.794L279.516 232.174L280.275 228.693L280.908 229.326L279.959 233.314L284.453 232.681L285.149 233.314L280.212 234.01L280.402 234.326L285.846 233.567L276.161 224.325L276.098 223.186L286.035 232.807L286.162 232.427L276.098 222.68L276.035 221.54L280.782 226.098L283.06 228.313L285.213 230.402L285.466 230.149L283.947 228.693L286.605 229.389V229.263V229.073L283.44 228.25L283.314 228.123C283.44 227.997 283.567 227.933 283.693 227.807C283.757 227.743 283.82 227.68 283.883 227.617L286.732 228.376V228.313L286.795 227.997L284.073 227.237C284.2 226.984 284.326 226.794 284.39 226.541L286.858 227.237L286.922 226.984V226.921L285.909 226.667ZM284.01 232.364L280.275 232.87L281.098 229.579L284.01 232.364ZM284.073 226.288C284.01 226.604 283.82 226.921 283.63 227.237C283.567 227.364 283.44 227.427 283.377 227.554C283.25 227.68 283.124 227.743 282.997 227.87L281.162 226.098C281.225 225.971 281.288 225.908 281.415 225.781C281.921 225.275 282.617 224.895 283.187 224.895C283.44 224.895 283.693 224.958 283.883 225.148C284.137 225.401 284.2 225.781 284.073 226.288Z" fill="white"/>
<path d="M281.036 235.403L285.403 234.77L285.466 234.453L280.846 235.086L281.036 235.403Z" fill="white"/>
<path d="M274.832 224.452V224.325L274.768 222.87L273.629 223.819L274.958 225.402L274.832 224.452Z" fill="white"/>
<path d="M279.39 222.996V222.933L279.327 222.11L278.504 222.427L279.39 223.566V222.996Z" fill="white"/>
<path d="M276.795 226.288L276.985 228.313L277.301 226.731L276.795 226.288Z" fill="white"/>
<path d="M271.098 228.883L272.617 229.199L271.098 227.364V228.883Z" fill="white"/>
<path d="M283.44 236.922L284.516 235.719L281.668 236.099L283.44 236.922Z" fill="white"/>
<path d="M283.187 225.845C283.504 226.161 283.504 226.604 283.187 226.858L282.111 225.845C282.428 225.528 282.871 225.528 283.187 225.845Z" fill="white"/>
<path d="M290.973 158.433L291.036 193.689H309.012L350.472 161.028L350.409 158.306L290.973 158.433Z" fill="#D6A478"/>
<path d="M306.734 191.98L309.013 193.689L350.473 161.028L350.409 158.306L306.734 191.98Z" fill="#EAB88C"/>
<path d="M346.231 156.027C346.358 157.04 346.485 158.053 346.675 159.066C346.675 159.066 312.114 184.195 305.911 190.081C305.911 190.081 298.822 179.827 303.253 160.775C303.253 160.775 343.383 130.012 346.928 127.797C346.928 127.797 346.168 131.784 345.852 137.861C345.852 138.178 345.788 138.494 345.788 138.81C345.535 143.494 345.535 149.318 346.168 155.394C346.168 155.647 346.231 155.837 346.231 156.027Z" fill="#F7E8B4"/>
<path d="M313.381 160.838C313.381 160.838 314.077 160.205 315.216 159.319C316.356 158.433 317.875 157.293 319.457 156.154C321.04 155.078 322.686 154.065 323.888 153.306C325.154 152.546 325.977 152.103 325.977 152.103C325.977 152.103 325.281 152.736 324.141 153.622C323.002 154.508 321.42 155.648 319.837 156.724C318.255 157.8 316.609 158.876 315.406 159.572C314.204 160.395 313.381 160.838 313.381 160.838Z" fill="#E4D39E"/>
<path d="M326.736 159.699C326.736 159.699 327.749 158.876 329.268 157.673C330.028 157.103 330.914 156.407 331.927 155.711C332.939 155.015 333.952 154.255 335.028 153.495C336.104 152.799 337.18 152.04 338.193 151.407C339.206 150.71 340.155 150.141 340.978 149.634C342.624 148.622 343.763 147.989 343.763 147.989C343.763 147.989 342.751 148.811 341.231 150.014C340.472 150.584 339.586 151.28 338.573 151.976C337.56 152.673 336.547 153.432 335.471 154.192C334.395 154.888 333.319 155.648 332.306 156.344C331.294 157.04 330.344 157.61 329.521 158.179C327.876 159.066 326.736 159.699 326.736 159.699Z" fill="#E4D39E"/>
<path d="M306.607 183.435C306.607 183.435 307.62 182.612 309.139 181.409C309.899 180.84 310.785 180.143 311.798 179.447C312.811 178.751 313.823 177.991 314.899 177.232C315.975 176.536 317.051 175.776 318.064 175.143C319.077 174.447 320.026 173.877 320.849 173.371C322.495 172.358 323.634 171.725 323.634 171.725C323.634 171.725 322.622 172.548 321.102 173.75C320.343 174.32 319.457 175.016 318.444 175.713C317.431 176.409 316.418 177.169 315.342 177.928C314.266 178.624 313.19 179.384 312.178 180.08C311.165 180.776 310.215 181.346 309.393 181.916C307.747 182.802 306.607 183.435 306.607 183.435Z" fill="#E4D39E"/>
<path d="M309.075 168.624C309.075 168.624 310.088 167.801 311.607 166.598C312.367 166.028 313.253 165.332 314.266 164.636C315.278 163.94 316.291 163.18 317.367 162.42C318.443 161.724 319.519 160.965 320.532 160.332C321.545 159.635 322.494 159.066 323.317 158.559C324.963 157.547 326.102 156.914 326.102 156.914C326.102 156.914 325.089 157.736 323.57 158.939C322.811 159.509 321.924 160.205 320.912 160.901C319.899 161.598 318.886 162.357 317.81 163.117C316.734 163.813 315.658 164.573 314.645 165.269C313.633 165.965 312.683 166.535 311.86 167.104C310.215 167.991 309.075 168.624 309.075 168.624Z" fill="#E4D39E"/>
<path d="M315.089 175.207C315.089 175.207 315.659 174.574 316.671 173.751C317.621 172.928 318.95 171.852 320.343 170.839C321.735 169.826 323.128 168.94 324.204 168.307C325.28 167.674 326.103 167.294 326.103 167.294C326.103 167.294 325.533 167.927 324.52 168.75C323.571 169.573 322.241 170.649 320.849 171.662C319.456 172.675 318.064 173.561 316.988 174.194C315.912 174.827 315.089 175.207 315.089 175.207Z" fill="#E4D39E"/>
<path d="M346.232 156.027C345.029 157.04 343.32 158.369 341.674 159.572C339.965 160.775 338.193 161.977 336.864 162.8C335.598 163.56 334.712 164.066 334.585 164.129C334.648 164.066 335.408 163.307 336.547 162.357C337.75 161.344 339.396 160.078 341.105 158.812C342.814 157.61 344.523 156.407 345.915 155.584C346.042 155.521 346.105 155.458 346.168 155.394C346.168 155.648 346.232 155.837 346.232 156.027Z" fill="#E4D39E"/>
<path d="M321.988 165.585C321.988 165.585 323.001 164.762 324.583 163.56C325.343 162.99 326.292 162.294 327.242 161.534C328.255 160.838 329.331 160.078 330.344 159.319C331.42 158.623 332.496 157.863 333.572 157.167C334.584 156.47 335.597 155.901 336.42 155.331C338.066 154.318 339.205 153.622 339.205 153.622C339.268 153.559 339.332 153.622 339.395 153.685C339.458 153.749 339.395 153.812 339.395 153.875C339.395 153.875 338.382 154.698 336.737 155.837C335.914 156.407 335.027 157.103 334.015 157.736C333.002 158.433 331.926 159.129 330.85 159.888C329.774 160.648 328.698 161.344 327.685 162.041C326.672 162.737 325.66 163.307 324.837 163.876C323.064 164.952 321.988 165.585 321.988 165.585Z" fill="#E4D39E"/>
<path d="M345.788 137.861C345.788 138.177 345.724 138.494 345.724 138.81C345.535 139 345.281 139.19 345.028 139.38C343.446 140.583 341.294 142.102 339.078 143.621C338.002 144.381 336.863 145.14 335.85 145.773C334.837 146.469 333.825 147.102 333.002 147.609C332.179 148.115 331.419 148.558 330.913 148.811C330.47 149.065 330.217 149.191 330.153 149.254C330.217 149.191 330.47 149.001 330.85 148.621C331.293 148.242 331.926 147.672 332.685 147.039C333.445 146.406 334.331 145.71 335.344 144.95C336.356 144.191 337.369 143.431 338.445 142.608C340.597 141.089 342.813 139.633 344.522 138.62C345.028 138.367 345.408 138.114 345.788 137.861Z" fill="#E4D39E"/>
<g style="mix-blend-mode:multiply">
<g style="mix-blend-mode:multiply">
<path d="M314.836 182.106C308.443 183.372 305.468 178.814 305.468 172.738C305.468 162.484 312.557 156.66 320.216 151.217C324.9 147.862 330.344 144.317 334.838 140.773C338.699 137.734 343.256 134.253 346.485 130.835C346.738 128.873 346.928 127.797 346.928 127.797C343.193 130.202 303.253 160.775 303.253 160.775C298.759 179.827 305.911 190.081 305.911 190.081C307.62 188.499 311.418 185.397 316.102 181.853C315.659 181.916 315.216 182.042 314.836 182.106Z" fill="#ECEBE8"/>
</g>
</g>
<path d="M349.396 125.898V123.556L209.193 126.911L167.733 158.813C167.733 158.813 304.265 163.054 304.392 162.8C306.101 159.192 309.203 156.597 309.709 156.217C316.229 151.09 321.039 147.546 327.559 142.355C333.572 137.608 339.585 133.62 345.598 128.873C346.864 127.86 348.13 126.848 349.396 125.898Z" fill="#EAB88C"/>
<path d="M309.013 154.381C300.468 162.927 301.227 184.637 309.076 193.689C309.076 193.689 171.405 194.005 171.025 194.005C165.961 194.005 163.746 185.081 163.049 181.409C161.973 175.966 161.214 154.698 170.962 154.698L309.013 154.381Z" fill="#EAB88C"/>
<path d="M192.609 154.635H188.051C185.71 160.078 184.507 166.091 184.507 171.978C184.57 178.941 185.33 187.169 188.115 193.942H192.609C188.621 182.992 186.849 166.028 192.609 154.635Z" fill="#8B464F"/>
<path d="M201.154 154.635H196.596C194.254 160.078 193.052 166.091 193.052 171.978C193.115 178.941 193.811 187.169 196.66 193.942H201.154C197.166 182.992 195.394 166.028 201.154 154.635Z" fill="#8B464F"/>
<path d="M209.636 154.572H205.079C202.737 160.015 201.534 166.029 201.534 171.915C201.597 178.878 202.357 187.107 205.142 193.879H209.636C205.648 182.929 203.876 165.965 209.636 154.572Z" fill="#8B464F"/>
<path d="M282.934 154.445L259.325 154.509C256.983 159.952 255.906 165.902 255.78 171.852C255.717 178.815 256.16 187.233 259.388 193.816L282.934 193.753C278.947 182.802 277.174 165.839 282.934 154.445Z" fill="#8B464F"/>
<path d="M349.396 123.556L209.13 123.809L167.733 155.711L307.937 155.395L349.396 123.556Z" fill="#EAB88C"/>
<path opacity="0.3" d="M279.453 125.328C287.618 125.139 314.203 125.708 318.507 125.898C322.431 126.088 341.231 124.759 339.585 127.86C338.635 129.633 330.976 135.709 329.457 136.975C327.115 138.874 318.507 146.976 316.038 149.255L349.459 123.556L209.256 123.873L206.914 125.645C222.359 125.708 271.034 125.518 279.453 125.328Z" fill="#848371"/>
<path d="M229.511 176.916L230.144 174.574L230.84 176.916H231.283L232.486 173.118H231.979L231.03 176.093L230.334 173.624H229.954L229.258 176.093L228.308 173.118H227.802L229.004 176.916H229.511Z" fill="#8B464F"/>
<path d="M235.397 176.472H233.625V175.333H235.144V174.827H233.625V173.624H235.334V173.118H233.118V176.916H235.397V176.472Z" fill="#8B464F"/>
<path d="M239.195 175.46C239.385 175.46 239.511 175.396 239.638 175.333C239.765 175.27 239.891 175.143 239.955 175.08C240.018 174.953 240.081 174.827 240.144 174.7C240.208 174.574 240.208 174.447 240.208 174.32C240.208 174.194 240.208 174.004 240.144 173.877C240.081 173.751 240.018 173.624 239.955 173.497C239.891 173.371 239.765 173.308 239.638 173.244C239.511 173.181 239.322 173.118 239.132 173.118H237.676V176.916H238.182V175.776V174.89V173.624H239.132C239.258 173.624 239.385 173.687 239.511 173.751C239.575 173.814 239.701 173.941 239.701 174.004C239.765 174.13 239.765 174.194 239.765 174.32C239.765 174.384 239.765 174.51 239.701 174.574C239.701 174.637 239.638 174.7 239.575 174.827C239.511 174.89 239.448 174.953 239.385 175.017C239.322 175.08 239.195 175.08 239.068 175.08H238.625V175.586L239.575 176.979H240.208L239.195 175.46Z" fill="#8B464F"/>
<path d="M241.474 175.333H242.993V174.827H241.474V173.624H243.246V173.118H240.968V176.916H243.246V176.472H241.474V175.333Z" fill="#8B464F"/>
<path d="M250.652 174.32C250.588 174.067 250.462 173.877 250.335 173.688C250.209 173.498 250.019 173.371 249.829 173.308C249.639 173.181 249.386 173.181 249.133 173.181H247.677V176.979H249.133C249.386 176.979 249.639 176.916 249.829 176.852C250.019 176.726 250.209 176.599 250.335 176.473C250.462 176.283 250.588 176.093 250.652 175.903C250.715 175.65 250.778 175.397 250.778 175.143C250.778 174.89 250.715 174.51 250.652 174.32ZM250.145 175.586C250.082 175.776 250.019 175.903 249.892 176.03C249.766 176.156 249.702 176.283 249.512 176.346C249.386 176.409 249.196 176.473 249.006 176.473H248.057V173.624H249.006C249.259 173.624 249.449 173.688 249.639 173.814C249.829 173.941 249.955 174.131 250.019 174.32C250.082 174.51 250.145 174.764 250.145 175.017C250.209 175.27 250.209 175.397 250.145 175.586Z" fill="#8B464F"/>
<path d="M244.322 182.802H244.955L246.348 179.637L247.74 182.802H248.437L246.348 178.245L244.322 182.802Z" fill="#8B464F"/>
<path d="M243.753 176.916H244.259L245.462 174.32L246.601 176.916H247.171L245.462 173.118L243.753 176.916Z" fill="#8B464F"/>
<path d="M230.84 182.802H231.473V180.84H233.055V180.27H231.473V178.815H233.498V178.245H230.84V182.802Z" fill="#8B464F"/>
<path d="M236.22 181.03C236.41 181.03 236.6 180.967 236.726 180.903C236.853 180.84 236.98 180.713 237.106 180.587C237.169 180.46 237.296 180.334 237.296 180.144C237.359 180.017 237.359 179.827 237.359 179.637C237.359 179.448 237.359 179.258 237.296 179.131C237.233 178.941 237.169 178.815 237.043 178.688C236.916 178.561 236.79 178.435 236.6 178.371C236.41 178.308 236.22 178.245 235.967 178.245H234.258V182.802H234.891V178.815H236.03C236.22 178.815 236.347 178.878 236.473 178.941C236.6 179.004 236.663 179.131 236.726 179.258C236.79 179.384 236.79 179.511 236.79 179.637C236.79 179.764 236.79 179.827 236.726 179.954C236.726 180.08 236.663 180.144 236.6 180.207C236.537 180.27 236.473 180.334 236.347 180.397C236.22 180.46 236.157 180.46 235.967 180.46H235.46V181.03L236.663 182.739H237.423L236.22 181.03Z" fill="#8B464F"/>
<path d="M239.005 178.245H238.372V182.802H239.005V178.245Z" fill="#8B464F"/>
<path d="M242.93 182.106C242.74 182.232 242.487 182.232 242.234 182.232C241.917 182.232 241.664 182.169 241.348 181.979C241.094 181.853 240.905 181.599 240.715 181.346C240.588 181.093 240.461 180.777 240.461 180.46C240.461 180.144 240.525 179.827 240.715 179.574C240.841 179.321 241.094 179.068 241.348 178.941C241.601 178.814 241.917 178.688 242.234 178.688C242.487 178.688 242.677 178.751 242.93 178.814C243.12 178.941 243.31 179.068 243.5 179.258L243.943 178.878C243.753 178.625 243.5 178.435 243.183 178.308C242.867 178.181 242.55 178.118 242.234 178.118C241.791 178.118 241.411 178.245 241.094 178.435C240.715 178.625 240.461 178.941 240.272 179.258C240.082 179.637 239.955 180.017 239.955 180.46C239.955 180.777 240.018 181.093 240.145 181.346C240.272 181.663 240.398 181.853 240.651 182.106C240.841 182.296 241.094 182.486 241.411 182.612C241.664 182.739 241.981 182.802 242.297 182.802C242.677 182.802 242.993 182.739 243.247 182.612C243.563 182.486 243.816 182.296 244.006 182.043L243.563 181.663C243.373 181.853 243.183 181.979 242.93 182.106Z" fill="#8B464F"/>
<path d="M251.664 181.663L249.639 178.245H249.006V182.802H249.639V179.384L251.728 182.802H252.297V178.245H251.664V181.663Z" fill="#8B464F"/>
<path d="M226.029 182.802H226.662L228.055 179.637L229.511 182.802H230.144L228.055 178.245L226.029 182.802Z" fill="#8B464F"/>
<path d="M220.713 180.397H219.764L220.143 179.51L220.207 179.637L220.523 180.08L220.713 180.397Z" fill="#8B464F"/>
<path d="M212.611 173.624L212.421 173.94L214.067 177.232H214.446L212.674 173.814L212.611 173.624Z" fill="#8B464F"/>
<path d="M212.99 172.927L215.142 177.295H215.522L213.117 172.611L212.99 172.927Z" fill="#8B464F"/>
<path d="M224.321 176.346L223.245 175.839C223.435 175.396 223.371 174.953 223.182 174.7C222.992 174.51 222.802 174.383 222.485 174.32C221.916 174.257 221.283 174.447 220.713 174.89C220.65 174.953 220.523 175.016 220.46 175.08L220.08 174.573C220.143 174.51 220.207 174.447 220.333 174.383C221.029 173.877 221.789 173.561 222.485 173.497C222.549 173.497 222.612 173.497 222.675 173.497V173.371L222.549 173.181H222.485C221.726 173.244 220.903 173.56 220.207 174.067L220.333 173.307C220.903 172.928 221.536 172.674 222.105 172.484L221.916 172.231C221.409 172.358 220.903 172.611 220.396 172.928L220.523 172.168C220.84 171.978 221.156 171.852 221.536 171.725L221.346 171.472C221.029 171.598 220.65 171.788 220.333 171.978L220.27 172.041L219.89 174.257L217.105 170.269L216.092 176.409L213.687 171.662L213.497 171.978L216.219 177.358L216.788 173.75L217.801 175.27L216.725 177.801L216.915 178.118L217.991 175.523L218.434 176.156L217.295 178.877L217.485 179.194L218.687 176.472L219.13 177.105L217.928 179.954L218.118 180.27L219.384 177.358L219.827 177.991L218.308 181.346H222.169L222.612 181.979H218.371L218.498 182.295H223.182L216.978 173.307L217.105 172.358L223.498 181.599L223.625 181.283L217.168 171.915L217.295 170.965L220.27 175.206L221.726 177.358L223.118 179.384L223.371 179.194L222.422 177.801L224.447 178.688L224.511 178.561L224.574 178.371L222.105 177.295L222.042 177.168C222.169 177.105 222.295 177.042 222.359 176.915C222.422 176.852 222.485 176.789 222.549 176.789L224.764 177.801V177.738L224.827 177.485L222.738 176.535C222.865 176.346 223.055 176.156 223.118 176.029L225.017 176.852L225.08 176.599V176.535L224.321 176.346ZM221.852 180.966H218.687L219.953 178.245L221.852 180.966ZM222.928 175.839C222.802 176.092 222.612 176.346 222.422 176.535C222.359 176.599 222.232 176.725 222.169 176.789C222.042 176.852 221.916 176.915 221.852 176.979L220.65 175.27C220.713 175.206 220.84 175.143 220.903 175.08C221.409 174.7 221.979 174.51 222.485 174.573C222.738 174.637 222.865 174.7 222.992 174.826C223.118 175.08 223.118 175.459 222.928 175.839Z" fill="#8B464F"/>
<path d="M218.814 183.245H222.549L222.739 182.992H218.688L218.814 183.245Z" fill="#8B464F"/>
<path d="M215.839 173.244V173.118L216.029 171.915L214.953 172.548L215.713 174.004L215.839 173.244Z" fill="#8B464F"/>
<path d="M219.701 172.611V172.484L219.827 171.851L219.131 172.041L219.637 173.054L219.701 172.611Z" fill="#8B464F"/>
<path d="M217.042 174.953L216.789 176.662L217.359 175.396L217.042 174.953Z" fill="#8B464F"/>
<path d="M211.852 176.472L213.054 176.915L212.168 175.206L211.852 176.472Z" fill="#8B464F"/>
<path d="M220.587 184.954L221.663 184.005H219.258L220.587 184.954Z" fill="#8B464F"/>
<path d="M222.296 175.333C222.485 175.586 222.422 175.966 222.169 176.156L221.473 175.143C221.726 175.017 222.106 175.08 222.296 175.333Z" fill="#8B464F"/>
<g style="mix-blend-mode:multiply">
<g style="mix-blend-mode:multiply">
<path d="M303.822 160.838C301.67 163.813 300.025 167.104 298.949 170.649C297.936 174.067 297.809 177.359 297.493 180.84C297.303 182.612 297.113 185.081 295.594 186.283C293.062 188.309 275.655 189.638 270.971 189.512C261.666 189.258 252.425 189.575 242.614 189.575C223.119 189.638 205.775 190.461 186.28 189.512C179.95 189.195 172.164 189.069 167.607 183.941C165.771 181.853 164.315 179.511 163.366 176.915C162.48 174.51 162.227 171.978 161.594 169.51C161.341 174.194 161.72 178.561 162.1 180.713C162.796 184.385 165.012 193.309 170.075 193.309C170.455 193.309 308.127 192.993 308.127 192.993C301.987 185.967 300.151 171.092 303.822 160.838Z" fill="#ECEBE8"/>
</g>
</g>
<path d="M230.84 103.238C234.511 111.719 232.296 128.493 228.182 136.785C228.182 136.785 332.179 142.608 332.495 142.672C335.407 142.862 338.382 136.595 339.078 133.304C340.154 128.493 341.8 109.504 334.331 109.061L230.84 103.238Z" fill="#8B464F"/>
<path d="M334.965 111.53C334.965 111.53 338.32 114.505 337.307 126.531C336.864 132.355 335.788 136.975 332.56 139.507C332.18 139.824 332.433 142.166 332.37 142.609L217.739 136.152L180.963 103.681L181.089 101.402C181.153 101.402 334.965 111.53 334.965 111.53Z" fill="#77323B"/>
<path d="M181.153 101.402L217.865 133.304L332.623 139.507L332.433 142.609L217.802 136.152L180.963 103.681L181.153 101.402Z" fill="#8B464F"/>
<path d="M187.609 101.402C187.482 102.225 187.292 103.048 187.103 103.934C187.103 103.934 214.51 126.214 219.384 131.341C219.384 131.341 224.891 119.758 222.612 105.01C222.612 105.01 191.09 80.0075 188.242 78.0453C188.242 78.0453 188.685 81.4 188.685 86.4005C188.685 86.6537 188.685 86.9069 188.685 87.2234C188.685 91.1478 188.432 95.9584 187.609 100.896C187.672 101.085 187.672 101.212 187.609 101.402Z" fill="#F7E8B4"/>
<path d="M221.663 123.683C221.093 126.594 220.333 129.253 219.447 131.342C219.447 131.342 325.09 137.291 325.407 137.291C329.394 137.545 331.483 130.898 332.179 128.177C333.256 124.126 334.711 108.238 327.052 107.795L221.093 101.845C221.853 103.554 222.296 105.706 222.612 108.112C222.675 108.681 222.739 109.314 222.739 109.884C222.992 113.872 222.612 118.302 221.916 122.353C221.853 122.796 221.789 123.24 221.663 123.683Z" fill="#E9D8AF"/>
<path d="M214.573 106.846C214.573 106.846 214.003 106.276 213.117 105.517C212.231 104.757 211.028 103.681 209.762 102.731C208.497 101.782 207.231 100.833 206.218 100.2C205.205 99.5033 204.509 99.1235 204.509 99.1235C204.509 99.1235 205.078 99.6932 205.965 100.453C206.851 101.212 208.117 102.225 209.383 103.238C210.649 104.187 211.915 105.137 212.927 105.833C213.877 106.403 214.573 106.846 214.573 106.846Z" fill="#E4D39E"/>
<path d="M203.559 105.263C203.559 105.263 202.8 104.504 201.534 103.491C200.901 102.985 200.205 102.352 199.445 101.719C198.685 101.086 197.799 100.453 196.976 99.7566C196.09 99.1236 195.267 98.4907 194.444 97.8577C193.622 97.2247 192.862 96.7183 192.229 96.2753C190.9 95.3258 190.014 94.7561 190.014 94.7561C190.014 94.7561 190.773 95.5157 192.039 96.5284C192.672 97.0348 193.368 97.6678 194.128 98.3007C194.888 98.9337 195.774 99.5667 196.597 100.263C197.419 100.896 198.306 101.529 199.128 102.162C199.951 102.795 200.711 103.301 201.344 103.808C202.673 104.694 203.559 105.263 203.559 105.263Z" fill="#E4D39E"/>
<path d="M219.131 125.835C219.131 125.835 218.371 125.075 217.105 124.062C216.472 123.556 215.776 122.923 215.016 122.29C214.257 121.657 213.371 121.024 212.548 120.328C211.725 119.695 210.839 119.062 210.016 118.429C209.193 117.796 208.433 117.29 207.8 116.847C206.471 115.897 205.585 115.327 205.585 115.327C205.585 115.327 206.344 116.087 207.61 117.1C208.243 117.606 208.94 118.239 209.699 118.872C210.459 119.505 211.345 120.138 212.168 120.834C212.991 121.467 213.877 122.1 214.7 122.733C215.523 123.366 216.282 123.873 216.915 124.379C218.244 125.202 219.131 125.835 219.131 125.835Z" fill="#E4D39E"/>
<path d="M217.801 113.429C217.801 113.429 217.042 112.669 215.776 111.656C215.143 111.15 214.447 110.517 213.687 109.884C212.928 109.251 212.041 108.618 211.219 107.922C210.396 107.289 209.51 106.656 208.687 106.023C207.864 105.39 207.104 104.883 206.471 104.44C205.142 103.491 204.256 102.921 204.256 102.921C204.256 102.921 205.015 103.681 206.281 104.694C206.914 105.2 207.611 105.833 208.37 106.466C209.13 107.099 210.016 107.732 210.839 108.428C211.662 109.061 212.548 109.694 213.371 110.327C214.194 110.96 214.953 111.466 215.586 111.973C216.852 112.859 217.801 113.429 217.801 113.429Z" fill="#E4D39E"/>
<path d="M212.485 118.619C212.485 118.619 212.042 118.113 211.282 117.353C210.523 116.594 209.51 115.707 208.371 114.821C207.295 113.935 206.155 113.112 205.269 112.543C204.383 111.973 203.75 111.593 203.75 111.593C203.75 111.593 204.193 112.1 204.953 112.859C205.712 113.619 206.788 114.505 207.864 115.391C208.94 116.277 210.08 117.1 210.966 117.67C211.852 118.303 212.485 118.619 212.485 118.619Z" fill="#E4D39E"/>
<path d="M187.608 101.402C187.608 101.402 187.672 101.402 187.608 101.402C188.558 102.288 189.887 103.428 191.216 104.567C192.546 105.643 193.938 106.719 195.014 107.415C196.027 108.112 196.723 108.555 196.85 108.618C196.786 108.555 196.217 107.922 195.331 107.099C194.381 106.213 193.052 105.073 191.723 103.997C190.393 102.921 189.001 101.845 187.925 101.149C187.862 101.086 187.798 101.022 187.735 101.022C187.672 101.086 187.672 101.212 187.608 101.402Z" fill="#E4D39E"/>
<path d="M207.23 110.39C207.23 110.39 206.408 109.631 205.205 108.618C204.572 108.112 203.876 107.479 203.053 106.846C202.293 106.213 201.407 105.516 200.584 104.82C199.698 104.187 198.875 103.554 198.052 102.921C197.229 102.288 196.47 101.782 195.774 101.276C194.444 100.326 193.558 99.7564 193.558 99.7564C193.495 99.6931 193.432 99.7564 193.432 99.7564C193.432 99.8197 193.432 99.883 193.432 99.883C193.432 99.883 194.254 100.579 195.52 101.592C196.153 102.098 196.913 102.668 197.673 103.301C198.495 103.934 199.318 104.567 200.204 105.2C201.091 105.833 201.913 106.529 202.736 107.099C203.559 107.732 204.319 108.238 204.952 108.745C206.344 109.757 207.23 110.39 207.23 110.39Z" fill="#E4D39E"/>
<path d="M188.812 86.4008C188.812 86.6539 188.812 86.9071 188.812 87.2236C189.001 87.3502 189.191 87.5401 189.381 87.73C190.647 88.8061 192.356 90.1353 194.065 91.4645C194.951 92.1608 195.837 92.7938 196.66 93.4267C197.483 94.0597 198.243 94.5661 198.939 95.0725C199.635 95.5155 200.205 95.8953 200.585 96.1485C200.965 96.4017 201.154 96.5283 201.218 96.5283C201.154 96.465 200.965 96.2751 200.711 96.0219C200.332 95.7054 199.889 95.1991 199.256 94.6294C198.623 94.0597 197.926 93.4267 197.167 92.7938C196.407 92.0975 195.521 91.4012 194.698 90.705C192.989 89.3757 191.217 88.0465 189.824 87.097C189.444 86.8438 189.065 86.5906 188.812 86.4008Z" fill="#E4D39E"/>
<path d="M327.685 117.733C327.685 117.733 326.862 117.606 325.47 117.417C324.077 117.227 321.988 116.973 319.583 116.72C317.114 116.467 314.266 116.151 311.228 115.897C309.709 115.771 308.126 115.644 306.544 115.518C304.961 115.391 303.316 115.328 301.67 115.201C298.378 115.011 295.15 114.885 292.049 114.758C289.01 114.631 286.099 114.568 283.693 114.505C281.225 114.442 279.199 114.442 277.744 114.442C276.288 114.442 275.465 114.442 275.465 114.442C275.465 114.442 276.288 114.568 277.68 114.695C279.136 114.821 281.162 115.074 283.567 115.328C286.035 115.581 288.884 115.771 291.922 116.024C294.96 116.277 298.252 116.467 301.48 116.657C303.126 116.72 304.771 116.847 306.354 116.91C307.936 116.973 309.519 117.1 311.038 117.163C314.076 117.353 316.924 117.48 319.393 117.543C321.862 117.67 323.887 117.67 325.343 117.67C326.862 117.733 327.685 117.733 327.685 117.733Z" fill="#D8C399"/>
<path d="M272.047 128.05C272.047 128.05 271.477 127.987 270.401 127.86C269.388 127.734 267.869 127.544 266.097 127.417C264.324 127.227 262.236 127.037 260.02 126.848C258.881 126.784 257.741 126.658 256.602 126.594C255.463 126.531 254.26 126.468 253.058 126.405C250.716 126.278 248.31 126.151 246.095 126.025C243.879 125.961 241.791 125.835 240.018 125.772C238.246 125.708 236.727 125.708 235.714 125.645C234.701 125.645 234.068 125.582 234.068 125.582C234.068 125.582 234.638 125.645 235.714 125.708C236.727 125.772 238.246 125.961 240.018 126.088C241.791 126.215 243.879 126.341 246.095 126.531C248.31 126.658 250.716 126.784 253.058 126.974C254.26 127.038 255.399 127.101 256.602 127.164C257.741 127.227 258.881 127.354 260.02 127.417C262.236 127.544 264.324 127.67 266.097 127.797C267.869 127.924 269.388 127.987 270.401 127.987C271.414 128.05 272.047 128.05 272.047 128.05Z" fill="#D8C399"/>
<path d="M294.327 131.405L329.711 133.051C329.837 133.051 330.027 132.924 330.027 132.798C330.027 132.671 329.9 132.545 329.774 132.481L294.454 130.139C294.074 130.139 293.821 130.392 293.758 130.709C293.694 131.089 293.948 131.405 294.327 131.405Z" fill="#D8C399"/>
<path d="M222.612 108.112C222.676 108.681 222.739 109.314 222.739 109.884C223.752 109.884 225.397 109.947 227.36 109.947C229.132 109.947 231.221 110.01 233.436 110.074C234.575 110.074 235.715 110.137 236.854 110.137C237.994 110.2 239.196 110.2 240.399 110.264C249.893 110.643 259.388 111.023 259.388 111.023C259.578 111.023 259.704 110.897 259.704 110.77C259.704 110.643 259.578 110.454 259.451 110.454C259.451 110.454 249.957 109.757 240.525 109.061C239.323 108.998 238.183 108.871 236.981 108.808C235.841 108.745 234.639 108.681 233.563 108.618C231.347 108.491 229.259 108.428 227.486 108.301C225.334 108.238 223.625 108.175 222.612 108.112Z" fill="#D8C399"/>
<path d="M221.662 123.683C222.168 123.683 222.801 123.746 223.561 123.809C224.574 123.873 225.84 123.936 227.106 123.999L229.131 124.126C229.827 124.126 230.524 124.189 231.22 124.189C236.79 124.379 242.297 124.569 242.297 124.569C242.424 124.569 242.55 124.506 242.55 124.379C242.55 124.252 242.487 124.189 242.36 124.126C242.36 124.126 236.853 123.683 231.283 123.303C230.587 123.24 229.891 123.176 229.194 123.113C228.498 123.05 227.865 122.986 227.232 122.923C225.966 122.797 224.7 122.67 223.688 122.607C223.055 122.543 222.422 122.48 221.979 122.417C221.852 122.797 221.789 123.24 221.662 123.683Z" fill="#D8C399"/>
<path d="M247.361 116.277C247.361 116.277 245.968 115.96 243.943 115.58C242.93 115.391 241.727 115.201 240.398 115.074C239.765 115.011 239.132 114.884 238.373 114.821C237.676 114.758 236.98 114.758 236.284 114.694C233.499 114.568 230.714 114.504 228.625 114.504C226.536 114.504 225.144 114.631 225.144 114.631C225.144 114.631 226.536 114.884 228.562 115.201C230.65 115.454 233.372 115.707 236.157 115.897C236.854 115.897 237.55 115.96 238.246 116.024C238.942 116.087 239.575 116.087 240.208 116.15C241.538 116.213 242.74 116.277 243.753 116.277C245.968 116.34 247.361 116.277 247.361 116.277Z" fill="#D8C399"/>
<path d="M294.897 121.088C294.897 121.088 293.504 120.898 291.479 120.644C290.466 120.518 289.263 120.391 287.997 120.328C286.731 120.201 285.339 120.138 283.946 120.012C282.554 119.948 281.225 119.822 279.895 119.758C278.629 119.695 277.427 119.632 276.351 119.568C274.262 119.505 272.933 119.505 272.933 119.505C272.933 119.505 274.325 119.695 276.351 119.948C277.363 120.075 278.566 120.201 279.832 120.265C281.098 120.391 282.49 120.455 283.883 120.581C285.276 120.644 286.605 120.771 287.934 120.834C289.2 120.898 290.403 120.961 291.479 121.024C293.504 121.088 294.897 121.088 294.897 121.088Z" fill="#D8C399"/>
<path d="M280.592 126.468C280.592 126.468 279.2 126.215 277.174 125.961C276.161 125.835 274.959 125.708 273.693 125.582C272.427 125.455 271.034 125.328 269.642 125.265C266.92 125.075 264.135 124.949 262.109 124.949C260.021 124.949 258.691 124.949 258.691 124.949C258.691 124.949 260.084 125.202 262.109 125.455C264.135 125.708 266.92 125.961 269.642 126.215C270.971 126.278 272.364 126.404 273.693 126.468C274.959 126.531 276.161 126.594 277.237 126.594C279.2 126.468 280.592 126.468 280.592 126.468Z" fill="#D8C399"/>
<path d="M265.337 114.188C265.337 114.188 263.945 113.998 261.919 113.745C260.906 113.619 259.704 113.492 258.438 113.429C257.172 113.302 255.779 113.239 254.387 113.112C252.994 113.049 251.665 112.922 250.336 112.859C249.07 112.796 247.867 112.732 246.791 112.669C244.702 112.606 243.373 112.606 243.373 112.606C243.373 112.606 244.766 112.796 246.791 113.049C247.804 113.176 249.007 113.302 250.272 113.365C251.538 113.492 252.931 113.555 254.323 113.682C255.716 113.745 257.045 113.872 258.374 113.935C259.64 113.998 260.843 114.062 261.919 114.125C263.945 114.188 265.337 114.188 265.337 114.188Z" fill="#D8C399"/>
<path d="M310.405 124.063C310.405 124.063 309.012 123.873 306.986 123.619C305.974 123.493 304.771 123.366 303.505 123.303C302.239 123.176 300.847 123.113 299.454 122.986C298.062 122.923 296.732 122.797 295.403 122.733C294.137 122.67 292.935 122.607 291.858 122.543C289.77 122.48 288.44 122.48 288.44 122.48C288.44 122.48 289.833 122.67 291.858 122.923C292.871 123.05 294.074 123.176 295.34 123.24C296.606 123.366 297.998 123.43 299.391 123.556C300.783 123.619 302.113 123.746 303.442 123.809C304.708 123.873 305.91 123.936 306.986 123.999C309.012 124.063 310.405 124.063 310.405 124.063Z" fill="#D8C399"/>
<g style="mix-blend-mode:multiply">
<g style="mix-blend-mode:multiply">
<path d="M206.344 96.5913C201.787 92.8568 190.077 82.8558 188.621 81.7797C188.495 79.4378 188.305 78.1085 188.305 78.1085C191.153 80.0707 222.675 105.073 222.675 105.073C223.181 108.365 223.308 111.529 223.181 114.378C221.599 106.529 211.915 101.149 206.344 96.5913Z" fill="#ECEBE8"/>
</g>
</g>
<g style="mix-blend-mode:multiply">
<g style="mix-blend-mode:multiply">
<path d="M294.58 105.959L327.052 107.795C327.242 107.795 327.495 107.858 327.685 107.858C327.748 107.858 327.811 107.858 327.875 107.922C328.001 107.985 328.128 107.985 328.254 108.048C328.318 108.048 328.381 108.112 328.444 108.112C328.571 108.175 328.698 108.238 328.824 108.238C328.887 108.238 328.951 108.301 329.014 108.301C329.141 108.365 329.267 108.491 329.457 108.555L329.52 108.618C329.647 108.745 329.837 108.871 329.964 108.998C330.027 109.061 330.09 109.124 330.09 109.124C330.153 109.188 330.28 109.314 330.343 109.377C330.407 109.441 330.47 109.504 330.47 109.567C330.533 109.631 330.596 109.757 330.723 109.884C330.786 109.947 330.85 110.01 330.85 110.074C330.913 110.2 330.976 110.327 331.04 110.39C331.103 110.454 331.103 110.517 331.166 110.58C331.293 110.77 331.356 110.96 331.419 111.086C331.483 111.15 331.483 111.276 331.546 111.34C331.609 111.466 331.672 111.53 331.672 111.656C331.736 111.783 331.736 111.846 331.799 111.973C331.862 112.099 331.862 112.163 331.926 112.289C331.989 112.416 331.989 112.542 332.052 112.606C332.116 112.732 332.116 112.859 332.116 112.922C332.179 113.049 332.179 113.175 332.242 113.302C332.305 113.492 332.369 113.745 332.369 113.935C333.445 118.999 332.685 125.645 332.052 128.05C331.356 130.772 329.204 137.355 325.28 137.165L311.734 136.405C319.709 135.139 325.596 125.328 321.292 117.29C318.76 112.542 313.443 112.732 308.442 112.479C301.67 112.163 294.96 111.593 288.187 111.213C284.326 111.023 280.465 110.707 276.667 110.454C267.046 109.821 257.425 109.251 247.804 108.618C245.968 108.491 244.133 108.428 242.36 108.301C231.536 107.352 226.346 109.061 222.675 113.302C222.675 113.239 222.548 108.555 222.485 107.985C222.232 105.58 221.725 103.428 220.966 101.719L294.58 105.959Z" fill="#ECEBE8"/>
</g>
</g>
<path d="M186.279 77.6658L186.406 75.7668L302.176 83.4891L335.154 109.124L335.028 111.656C335.028 111.656 219.574 105.39 219.13 105.073C214.003 100.516 194.128 84.5019 189.381 80.3242C188.305 79.4381 187.292 78.5519 186.279 77.6658Z" fill="#8B464F"/>
<path d="M186.406 75.7034L302.303 80.8937L335.091 109.061L219.321 102.605L186.406 75.7034Z" fill="#8B464F"/>
<path d="M271.415 58.6133C269.326 64.31 271.415 75.2604 274.453 80.5774C274.453 80.5774 206.282 88.3629 206.092 88.3629C204.193 88.5528 201.978 84.5651 201.408 82.4763C200.522 79.3114 198.75 66.9685 203.624 66.3988L271.415 58.6133Z" fill="#EAB88C"/>
<path d="M203.243 67.9811C203.243 67.9811 201.154 70.0699 202.23 77.9187C202.736 81.7166 203.622 84.6915 205.838 86.2739C206.091 86.4638 206.028 87.983 206.091 88.2995L281.225 79.7543L304.202 56.9674L304.012 55.4482L203.243 67.9811Z" fill="#D6A478"/>
<path d="M304.012 55.5117L281.035 77.8556L205.838 86.2741L206.091 88.3629L281.225 79.7545L304.202 57.0309L304.012 55.5117Z" fill="#EAB88C"/>
<path d="M299.708 55.7647C299.835 56.3344 299.961 56.8408 300.151 57.4105C300.151 57.4105 282.935 73.1082 279.96 76.6528C279.96 76.6528 275.909 69.247 276.858 59.4993C276.858 59.4993 296.607 41.9027 298.442 40.5101C298.442 40.5101 298.316 42.7255 298.442 46.017C298.442 46.2069 298.442 46.3335 298.442 46.5234C298.569 49.1185 298.949 52.2201 299.645 55.5115C299.645 55.5748 299.708 55.6382 299.708 55.7647Z" fill="#F7E8B4"/>
<path d="M278.187 71.7156C278.694 73.6145 279.263 75.3236 279.959 76.6528C279.959 76.6528 210.712 84.5649 210.523 84.5649C207.927 84.8814 206.282 80.5772 205.712 78.8682C204.889 76.273 203.307 65.829 208.307 65.2593L277.744 57.3472C277.301 58.4865 277.111 59.9423 276.985 61.5248C276.985 61.9045 276.985 62.2843 276.985 62.7274C276.985 65.3226 277.364 68.2343 277.997 70.8928C278.061 71.1459 278.124 71.3991 278.187 71.7156Z" fill="#E9D8AF"/>
<path d="M282.239 60.3855C282.239 60.3855 282.619 60.0057 283.125 59.4361C283.442 59.1829 283.758 58.8664 284.075 58.4866C284.455 58.1701 284.834 57.7903 285.214 57.4738C285.594 57.1574 286.037 56.7776 286.417 56.4611C286.797 56.1446 287.176 55.8914 287.493 55.6382C288.126 55.1319 288.569 54.8787 288.569 54.8787C288.569 54.8787 288.189 55.2584 287.683 55.8281C287.366 56.0813 287.05 56.3978 286.733 56.7776C286.354 57.0941 285.974 57.4738 285.594 57.7903C285.214 58.1068 284.771 58.4866 284.391 58.8031C284.012 59.1196 283.632 59.3728 283.315 59.6259C282.682 60.069 282.239 60.3855 282.239 60.3855Z" fill="#E4D39E"/>
<path d="M289.392 58.93C289.392 58.93 289.898 58.4236 290.658 57.6641C291.037 57.2843 291.48 56.8412 291.987 56.3981C292.493 55.955 293 55.512 293.506 55.0056C294.012 54.5625 294.582 54.1194 295.088 53.6763C295.595 53.2333 296.101 52.8535 296.481 52.537C297.304 51.904 297.873 51.4609 297.873 51.4609C297.873 51.4609 297.367 51.9673 296.607 52.7269C296.228 53.1067 295.785 53.5497 295.278 53.9295C294.772 54.3726 294.265 54.8157 293.759 55.3221C293.253 55.7651 292.683 56.2082 292.177 56.6513C291.67 57.0944 291.164 57.4742 290.784 57.7907C289.961 58.4869 289.392 58.93 289.392 58.93Z" fill="#E4D39E"/>
<path d="M279.96 72.982C279.96 72.982 280.466 72.4756 281.226 71.7161C281.606 71.3363 282.049 70.8932 282.555 70.4501C283.062 70.007 283.568 69.564 284.074 69.0576C284.581 68.6145 285.15 68.1714 285.657 67.7283C286.163 67.2853 286.669 66.9055 287.049 66.589C287.872 65.956 288.442 65.5129 288.442 65.5129C288.442 65.5129 287.935 66.0193 287.176 66.7789C286.796 67.1587 286.353 67.6017 285.847 67.9815C285.34 68.4246 284.834 68.8677 284.327 69.3741C283.821 69.8171 283.251 70.2602 282.745 70.7033C282.239 71.1464 281.732 71.5262 281.352 71.8427C280.53 72.6022 279.96 72.982 279.96 72.982Z" fill="#E4D39E"/>
<path d="M280.34 64.8165C280.34 64.8165 280.846 64.3101 281.606 63.5505C281.986 63.1707 282.429 62.7277 282.935 62.2846C283.441 61.8415 283.948 61.3984 284.454 60.892C284.961 60.449 285.53 60.0059 286.037 59.5628C286.543 59.1197 287.049 58.7399 287.429 58.4235C288.252 57.7905 288.822 57.3474 288.822 57.3474C288.822 57.3474 288.315 57.8538 287.556 58.6134C287.176 58.9931 286.733 59.4362 286.226 59.816C285.72 60.2591 285.214 60.7021 284.707 61.2085C284.201 61.6516 283.631 62.0947 283.125 62.5378C282.619 62.9808 282.112 63.3606 281.732 63.6771C280.91 64.4367 280.34 64.8165 280.34 64.8165Z" fill="#E4D39E"/>
<path d="M284.011 68.0445C284.011 68.0445 284.327 67.6648 284.77 67.1584C285.213 66.652 285.91 66.019 286.543 65.386C287.239 64.7531 287.935 64.1834 288.505 63.7403C289.075 63.2972 289.454 63.0441 289.454 63.0441C289.454 63.0441 289.138 63.4238 288.695 63.9302C288.252 64.4366 287.555 65.0696 286.922 65.7025C286.226 66.3355 285.53 66.9052 284.96 67.3483C284.454 67.7913 284.011 68.0445 284.011 68.0445Z" fill="#E4D39E"/>
<path d="M299.709 55.765C299.076 56.398 298.317 57.2209 297.43 57.9804C296.608 58.74 295.721 59.4996 295.025 60.0059C294.392 60.5123 293.949 60.8288 293.886 60.8288C293.949 60.7655 294.266 60.3224 294.835 59.7528C295.405 59.1198 296.228 58.3602 297.114 57.5374C297.937 56.7778 298.823 56.0182 299.519 55.5118C299.582 55.4485 299.582 55.4486 299.646 55.3853C299.646 55.5751 299.709 55.6384 299.709 55.765Z" fill="#E4D39E"/>
<path d="M287.176 62.4112C287.176 62.4112 287.682 61.9048 288.442 61.1453C289.201 60.3857 290.277 59.4362 291.353 58.4868C292.429 57.5373 293.569 56.6512 294.392 56.0182C295.215 55.3219 295.784 54.9421 295.784 54.9421C295.784 54.9421 295.847 54.9421 295.911 54.9421C295.911 54.9421 295.911 55.0054 295.911 55.0687C295.911 55.0687 295.404 55.5751 294.582 56.2714C293.822 56.9677 292.683 57.9171 291.607 58.8666C290.531 59.816 289.454 60.7022 288.568 61.3985C287.745 61.9681 287.176 62.4112 287.176 62.4112Z" fill="#E4D39E"/>
<path d="M298.379 45.954C298.379 46.1439 298.379 46.2705 298.379 46.4603C298.253 46.5869 298.126 46.6502 298.063 46.7768C297.303 47.5364 296.227 48.4859 295.088 49.4353C294.518 49.8784 294.012 50.3848 293.442 50.8278C292.936 51.2709 292.429 51.6507 291.986 51.9672C291.543 52.2837 291.163 52.5369 290.91 52.7901C290.657 52.98 290.53 53.0432 290.53 53.0432C290.53 53.0432 290.657 52.8534 290.847 52.6635C291.037 52.4103 291.353 52.0938 291.733 51.714C292.113 51.3342 292.556 50.8912 293.062 50.3848C293.569 49.9417 294.075 49.4353 294.581 48.9289C295.657 47.9795 296.797 47.03 297.62 46.397C297.999 46.2705 298.189 46.0806 298.379 45.954Z" fill="#E4D39E"/>
<path d="M208.307 71.7791C208.307 71.7791 208.813 71.6525 209.762 71.5259C210.712 71.336 212.041 71.0828 213.624 70.8297C215.206 70.5765 217.105 70.26 219.067 69.9435C221.029 69.627 223.181 69.3738 225.334 69.1206C227.486 68.8674 229.638 68.6775 231.6 68.4877C233.625 68.2978 235.461 68.1712 237.107 67.9813C238.689 67.8547 240.082 67.7914 241.031 67.7281C241.981 67.6648 242.487 67.6648 242.487 67.6648C242.487 67.6648 241.981 67.7281 241.031 67.918C240.082 68.0446 238.753 68.2978 237.17 68.551C235.588 68.8041 233.689 69.0573 231.727 69.3105C229.701 69.5637 227.612 69.8169 225.46 70.0701C223.308 70.3233 221.156 70.5765 219.194 70.7664C217.168 71.0195 215.333 71.1461 213.687 71.336C212.104 71.5259 210.712 71.5892 209.826 71.6525C208.813 71.7791 208.307 71.7791 208.307 71.7791Z" fill="#D8C399"/>
<path d="M245.209 76.4629C245.209 76.4629 246.728 76.2097 249.07 75.8299C250.209 75.64 251.602 75.4501 253.058 75.2602C254.514 75.0703 256.033 74.8172 257.615 74.6906C259.198 74.5007 260.717 74.3741 262.173 74.1842C263.628 74.0576 265.021 73.931 266.16 73.8044C268.502 73.6145 270.085 73.4879 270.085 73.4879C270.085 73.4879 268.566 73.6778 266.224 74.0576C265.084 74.1842 263.692 74.3741 262.236 74.564C260.78 74.7538 259.198 74.9437 257.679 75.1336C256.096 75.3235 254.577 75.4501 253.121 75.7033C251.665 75.8932 250.336 76.0198 249.133 76.2097C246.791 76.3363 245.209 76.4629 245.209 76.4629Z" fill="#D8C399"/>
<path d="M230.714 79.5646L207.547 81.9699C207.421 81.9699 207.357 81.9065 207.357 81.78C207.357 81.6534 207.421 81.5901 207.547 81.5901L230.714 78.7417C230.967 78.7417 231.157 78.8683 231.157 79.1215C231.094 79.3114 230.967 79.5013 230.714 79.5646Z" fill="#D8C399"/>
<path d="M276.985 61.4617C276.985 61.8415 276.985 62.2212 276.985 62.6643C276.289 62.7276 275.213 62.7909 273.947 62.9175C272.807 62.9808 271.415 63.1074 269.959 63.234C269.199 63.2973 268.503 63.3606 267.744 63.4239C266.984 63.4872 266.224 63.5505 265.402 63.6771C259.198 64.31 252.932 64.8797 252.932 64.8797C252.805 64.8797 252.742 64.8164 252.742 64.6898C252.742 64.5632 252.805 64.4999 252.932 64.4999C252.932 64.4999 259.135 63.6771 265.338 62.8542C266.098 62.7276 266.921 62.6643 267.68 62.5377C268.44 62.4744 269.199 62.3478 269.959 62.2845C271.415 62.1579 272.744 61.968 273.947 61.8414C275.213 61.7148 276.289 61.5883 276.985 61.4617Z" fill="#D8C399"/>
<path d="M278.187 71.7159C277.87 71.7792 277.427 71.7792 276.921 71.8425C276.224 71.9058 275.465 72.0324 274.579 72.0957L273.249 72.2223C272.806 72.2856 272.363 72.2855 271.92 72.3488C268.312 72.6653 264.641 73.0451 264.641 73.0451C264.578 73.0451 264.514 72.9818 264.451 72.9185C264.451 72.8552 264.514 72.7919 264.578 72.7286C264.578 72.7286 268.186 72.2222 271.794 71.7792C272.237 71.7159 272.68 71.6526 273.123 71.5893C273.566 71.526 274.009 71.4627 274.452 71.3994C275.275 71.2728 276.098 71.1462 276.731 71.0196C277.174 70.9563 277.554 70.893 277.87 70.8297C278.06 71.1462 278.123 71.3994 278.187 71.7159Z" fill="#D8C399"/>
<path d="M261.033 67.7912C261.033 67.7912 261.223 67.7279 261.666 67.6013C262.046 67.538 262.616 67.3481 263.312 67.2215C264.008 67.0949 264.768 66.905 265.591 66.7151C266.034 66.6518 266.413 66.5252 266.92 66.462C267.363 66.3987 267.806 66.3353 268.249 66.272C269.135 66.1455 270.085 66.0822 270.908 66.0189C271.73 65.9556 272.553 65.8923 273.25 65.8923C274.642 65.829 275.528 65.829 275.528 65.829C275.528 65.829 274.642 66.0822 273.313 66.3353C272.617 66.4619 271.857 66.5885 270.971 66.7151C270.148 66.8417 269.199 66.9683 268.312 67.0949C267.869 67.1582 267.426 67.1582 266.983 67.2215C266.54 67.2848 266.097 67.3481 265.654 67.4114C264.831 67.538 264.008 67.538 263.312 67.6646C262.616 67.7279 262.046 67.7279 261.666 67.7912C261.223 67.7912 261.033 67.7912 261.033 67.7912Z" fill="#D8C399"/>
<path d="M229.955 72.7915C229.955 72.7915 230.841 72.6016 232.17 72.4117C232.867 72.2851 233.626 72.1585 234.449 72.0319C235.272 71.9053 236.221 71.7787 237.108 71.6521C237.994 71.5255 238.88 71.4622 239.766 71.3356C240.589 71.2091 241.412 71.1458 242.045 71.0825C243.374 70.9559 244.323 70.8926 244.323 70.8926C244.323 70.8926 243.437 71.0825 242.108 71.2724C241.412 71.399 240.652 71.5255 239.829 71.6521C239.007 71.7787 238.12 71.9053 237.171 72.0319C236.285 72.1585 235.399 72.2218 234.512 72.3484C233.69 72.475 232.867 72.5383 232.17 72.6016C230.841 72.7282 229.955 72.7915 229.955 72.7915Z" fill="#D8C399"/>
<path d="M239.575 75.7665C239.575 75.7665 240.461 75.5766 241.791 75.3235C242.487 75.1969 243.246 75.0703 244.069 74.9437C244.892 74.8171 245.778 74.6905 246.728 74.5639C247.614 74.4373 248.563 74.374 249.386 74.2474C250.209 74.1208 251.032 74.1208 251.728 74.0575C253.057 73.9309 254.007 73.9309 254.007 73.9309C254.007 73.9309 253.121 74.1208 251.792 74.374C251.095 74.5006 250.336 74.6272 249.513 74.7538C248.69 74.8804 247.804 75.007 246.854 75.1336C245.968 75.2601 245.082 75.3234 244.196 75.45C243.373 75.5766 242.55 75.5766 241.854 75.6399C240.461 75.7032 239.575 75.7665 239.575 75.7665Z" fill="#D8C399"/>
<path d="M249.133 67.1583C249.133 67.1583 250.019 66.9684 251.348 66.7785C252.044 66.6519 252.804 66.5253 253.627 66.3987C254.45 66.2721 255.399 66.1455 256.285 66.019C257.172 65.8924 258.058 65.8291 258.944 65.7025C259.767 65.5759 260.59 65.5126 261.223 65.4493C262.552 65.3227 263.501 65.2594 263.501 65.2594C263.501 65.2594 262.615 65.4493 261.286 65.6392C260.59 65.7658 259.83 65.8924 259.007 66.019C258.184 66.1455 257.298 66.2721 256.349 66.3987C255.463 66.5253 254.576 66.5886 253.69 66.7152C252.867 66.8418 252.044 66.9051 251.348 66.9684C250.019 67.095 249.133 67.1583 249.133 67.1583Z" fill="#D8C399"/>
<path d="M219.89 75.3237C219.89 75.3237 220.776 75.1338 222.105 74.9439C222.801 74.8173 223.561 74.6907 224.384 74.5641C225.207 74.4376 226.093 74.311 227.042 74.1844C227.928 74.0578 228.815 73.9945 229.701 73.8679C230.524 73.7413 231.346 73.678 232.043 73.6147C233.372 73.4881 234.321 73.4248 234.321 73.4248C234.321 73.4248 233.435 73.6147 232.106 73.8046C231.41 73.9312 230.65 74.0578 229.827 74.1844C229.004 74.311 228.118 74.4376 227.169 74.5641C226.283 74.6907 225.396 74.754 224.51 74.8806C223.687 75.0072 222.865 75.0705 222.168 75.1338C220.776 75.2604 219.89 75.3237 219.89 75.3237Z" fill="#D8C399"/>
<g style="mix-blend-mode:multiply">
<g style="mix-blend-mode:multiply">
<path d="M287.238 53.2961C290.086 50.7009 297.365 43.6749 298.315 42.9154C298.315 41.3962 298.378 40.4468 298.378 40.4468C296.606 41.8393 276.794 59.4359 276.794 59.4359C276.604 61.6513 276.604 63.6768 276.794 65.5757C277.617 60.3854 283.756 56.5242 287.238 53.2961Z" fill="#ECEBE8"/>
</g>
</g>
<g style="mix-blend-mode:multiply">
<g style="mix-blend-mode:multiply">
<path d="M229.574 62.7907L208.306 65.196C208.179 65.196 208.053 65.2593 207.863 65.2593C207.8 65.2593 207.8 65.2593 207.736 65.3226C207.673 65.3226 207.546 65.3859 207.483 65.3859C207.42 65.3859 207.42 65.4492 207.356 65.4492C207.293 65.5125 207.167 65.5125 207.103 65.5758C207.04 65.5758 207.04 65.6391 206.977 65.6391C206.913 65.7024 206.787 65.7657 206.723 65.829C206.723 65.829 206.66 65.829 206.66 65.8923C206.534 65.9556 206.47 66.0822 206.407 66.1455C206.344 66.2088 206.344 66.2088 206.344 66.272C206.28 66.3353 206.217 66.3987 206.154 66.462C206.091 66.5252 206.09 66.5252 206.027 66.5885C205.964 66.6518 205.964 66.7151 205.901 66.7784C205.901 66.8417 205.837 66.8417 205.837 66.905C205.774 66.9683 205.774 67.0316 205.711 67.1582C205.711 67.2215 205.647 67.2215 205.647 67.2848C205.584 67.4114 205.521 67.538 205.458 67.6646C205.458 67.7279 205.394 67.7912 205.394 67.8545C205.394 67.9178 205.331 67.9811 205.331 68.1077C205.331 68.171 205.268 68.2343 205.268 68.2976C205.268 68.3609 205.204 68.4242 205.204 68.4874C205.204 68.5507 205.141 68.6141 205.141 68.7407C205.141 68.8672 205.078 68.8672 205.078 68.9938C205.078 69.0571 205.014 69.1204 205.014 69.247C205.014 69.3736 204.951 69.5002 204.951 69.6901C204.445 73.0449 205.204 77.349 205.711 78.9315C206.28 80.7038 207.926 84.9447 210.521 84.6282L219.383 83.6155C214.066 83.1091 209.825 76.8427 212.357 71.3991C213.876 68.171 217.357 68.1077 220.649 67.7279C225.08 67.2848 229.51 66.6518 233.878 66.1455C236.41 65.829 238.942 65.5125 241.41 65.196C247.677 64.4364 254.006 63.6769 260.273 62.9173C261.475 62.7907 262.678 62.6641 263.881 62.4742C270.97 61.4615 274.451 62.3476 276.983 65.0061C276.983 65.0061 276.92 61.9045 276.92 61.5248C276.983 59.9423 277.236 58.4865 277.68 57.3472L229.574 62.7907Z" fill="#ECEBE8"/>
</g>
</g>
<path d="M299.708 40.1303L299.581 38.8644L223.814 48.2956L203.116 66.3986L203.306 68.0444C203.306 68.0444 279.009 59.5625 279.199 59.3093C282.428 56.1445 294.897 44.8776 297.809 41.9026C298.442 41.333 299.075 40.7 299.708 40.1303Z" fill="#D6A478"/>
<path d="M299.582 38.8644L223.562 46.6499L203.054 66.3986L278.947 57.7269L299.582 38.8644Z" fill="#EAB88C"/>
<path d="M266.096 13.2924L269.578 19.4322L254.26 24.939L266.096 13.2924Z" fill="#8B464F"/>
<path d="M268.313 29.6863L267.553 34.1804L257.489 30.6357L268.313 29.6863Z" fill="#8B464F"/>
<path d="M224.763 19.0524L222.675 24.4959L220.902 29.1799L245.652 33.9905L224.763 19.0524Z" fill="#8B464F"/>
<path d="M250.21 0L244.323 1.26594L239.196 2.34198L248.881 26.5848L250.21 0Z" fill="#8B464F"/>
<path d="M121.273 143.431L114.563 158.18L150.2 169.003L121.273 143.431Z" fill="#736357"/>
<path d="M146.275 150.9L150.2 148.495L154.188 158.369L146.275 150.9Z" fill="#736357"/>
<path d="M311.165 61.2084L315.912 66.3354L302.366 75.2603L311.165 61.2084Z" fill="#736357"/>
<path d="M321.799 77.0958L319.773 83.8053L305.215 76.5261L321.799 77.0958Z" fill="#736357"/>
<path d="M176.912 117.796L174.38 115.707L177.545 116.593L179.634 114.062L178.747 117.226L181.343 119.315L178.114 118.429L176.026 121.024L176.912 117.796Z" fill="#736357"/>
<path d="M163.429 127.797L161.974 127.67L163.303 127.164L163.429 125.708L163.936 127.101L165.392 127.164L163.999 127.67L163.936 129.126L163.429 127.797Z" fill="#736357"/>
<path d="M190.014 49.4349L188.305 42.6621L192.672 48.1057L199.445 46.3333L194.002 50.7641L195.711 57.5369L191.343 52.0934L184.57 53.8024L190.014 49.4349Z" fill="#736357"/>
<path d="M269.325 259.455L266.793 257.366L269.958 258.252L272.047 255.72L271.224 258.885L273.756 260.974L270.591 260.088L268.502 262.62L269.325 259.455Z" fill="#736357"/>
<path d="M92.5988 232.933L90.8265 226.161L95.2573 231.604L102.03 229.832L96.5233 234.263L98.2956 241.035L93.9281 235.529L87.1553 237.301L92.5988 232.933Z" fill="#736357"/>
<path d="M336.483 253.631L335.281 248.948L338.256 252.745L342.876 251.543L339.142 254.518L340.344 259.138L337.37 255.404L332.686 256.606L336.483 253.631Z" fill="#736357"/>
<path d="M384.526 239.77L381.931 237.681L385.159 238.567L387.248 235.972L386.361 239.2L388.893 241.289L385.728 240.402L383.64 242.934L384.526 239.77Z" fill="#736357"/>
<path d="M316.039 35.6994L313.507 33.6106L316.672 34.4967L318.76 31.9648L317.874 35.1297L320.47 37.2185L317.241 36.3323L315.153 38.9275L316.039 35.6994Z" fill="#736357"/>
<path d="M188.748 60.3221L186.659 58.6131L189.254 59.3094L191.027 57.2206L190.33 59.8791L192.419 61.5881L189.761 60.8918L188.052 62.9806L188.748 60.3221Z" fill="#736357"/>
<path d="M183.304 132.861L181.849 132.798L183.241 132.291L183.304 130.835L183.811 132.165L185.267 132.291L183.937 132.798L183.811 134.254L183.304 132.861Z" fill="#736357"/>
<path d="M149.187 92.6038L143.807 87.4134L134.692 92.0974L130.894 83.6789L121.78 86.9703L116.716 78.4252L117.918 77.6656L122.413 85.198L131.654 81.8433L135.388 90.0719L144.06 85.6411L150.2 91.5277L149.187 92.6038Z" fill="#EAB88C"/>
<path d="M160.517 249.897L155.074 244.643L146.022 249.327L142.161 240.909L133.046 244.2L127.982 235.719L129.248 234.959L133.679 242.428L142.921 239.137L146.718 247.365L155.327 242.871L161.53 248.821L160.517 249.897Z" fill="#EAB88C"/>
<path d="M383.703 162.484L379.969 163.496L379.716 168.813L374.968 168.307L374.082 173.244L368.955 173.308V172.548L373.449 172.485L374.335 167.484L379.019 167.991L379.273 162.927L383.513 161.724L383.703 162.484Z" fill="#77323B"/>
<path d="M386.931 165.396L383.196 166.472L382.943 171.725L378.196 171.282L377.31 176.22H372.182L372.119 175.46H376.677L377.563 170.46L382.247 170.903L382.5 165.902L386.741 164.699L386.931 165.396Z" fill="#77323B"/>
<path d="M395.224 120.138L393.578 119.885L394.781 113.049L402.313 111.846L400.857 104.883L408.263 102.668L407.63 96.0216L409.276 95.895L410.035 103.87L402.693 106.023L404.212 113.175L396.173 114.504L395.224 120.138Z" fill="#8B464F"/>
<path d="M93.2322 183.119C96.1337 183.119 98.4858 180.767 98.4858 177.865C98.4858 174.964 96.1337 172.611 93.2322 172.611C90.3307 172.611 87.9785 174.964 87.9785 177.865C87.9785 180.767 90.3307 183.119 93.2322 183.119Z" fill="#EAB88C"/>
<path d="M121.4 132.924C123.008 132.924 124.312 131.62 124.312 130.012C124.312 128.404 123.008 127.101 121.4 127.101C119.792 127.101 118.488 128.404 118.488 130.012C118.488 131.62 119.792 132.924 121.4 132.924Z" fill="#EAB88C"/>
<path d="M339.901 61.1451C341.02 61.1451 341.927 60.2383 341.927 59.1196C341.927 58.001 341.02 57.0941 339.901 57.0941C338.783 57.0941 337.876 58.001 337.876 59.1196C337.876 60.2383 338.783 61.1451 339.901 61.1451Z" fill="#EAB88C"/>
<path d="M248.373 51.3974L249.639 50.1315L249.196 51.2075H249.449L251.601 49.182H251.285L249.639 50.7644L250.019 49.6251L249.829 49.6884L248.5 50.9543L248.943 49.5618L248.626 49.6251L248.057 51.3974H248.373Z" fill="#77323B"/>
<path d="M252.361 50.5112L251.221 50.7011L251.601 50.1314L252.614 49.9415L252.74 49.6884L251.791 49.8782L252.171 49.2453L253.31 49.0554L253.5 48.8655L251.981 49.0554L250.715 51.0176L252.234 50.7644L252.361 50.5112Z" fill="#77323B"/>
<path d="M255.273 49.6248C255.4 49.6248 255.526 49.5615 255.653 49.4982C255.78 49.4349 255.843 49.3716 255.97 49.3083C256.033 49.245 256.159 49.1817 256.223 49.1184C256.286 49.0551 256.349 48.9918 256.413 48.9285C256.476 48.8652 256.476 48.8019 256.539 48.7386C256.539 48.6753 256.539 48.612 256.539 48.5487C256.539 48.4854 256.476 48.4854 256.413 48.4221C256.349 48.4221 256.223 48.4221 256.096 48.4221L255.083 48.612L253.817 50.5742L254.197 50.5109L254.577 49.9412L254.893 49.4349L255.337 48.8019L255.97 48.6753C256.096 48.6753 256.159 48.6753 256.159 48.6753C256.223 48.6753 256.223 48.7386 256.223 48.8019C256.223 48.8652 256.159 48.9285 256.159 48.9918C256.159 49.0551 256.096 49.0551 256.033 49.1184C255.969 49.1817 255.97 49.1817 255.906 49.245C255.843 49.3083 255.78 49.3083 255.716 49.3716C255.653 49.3716 255.59 49.4349 255.463 49.4349L255.147 49.4982L254.957 49.7514L255.147 50.3843L255.59 50.321L255.273 49.6248Z" fill="#77323B"/>
<path d="M256.982 49.2451L258.058 49.0553L258.248 48.8021L257.172 48.992L257.552 48.359L258.754 48.1691L258.944 47.9159L257.362 48.1691L256.096 50.1946L257.741 49.9414L257.868 49.6882L256.602 49.8781L256.982 49.2451Z" fill="#77323B"/>
<path d="M264.197 47.5995C264.197 47.4729 264.197 47.4096 264.134 47.3463C264.07 47.283 264.007 47.2197 263.817 47.2197C263.691 47.2197 263.501 47.2197 263.311 47.2197L262.171 47.4096L260.969 49.4351L262.108 49.2452C262.298 49.2452 262.488 49.1819 262.741 49.0553C262.931 48.992 263.121 48.8654 263.311 48.7389C263.501 48.6123 263.627 48.4857 263.754 48.3591C263.88 48.2325 264.007 48.1059 264.07 47.916C264.134 47.8527 264.134 47.7261 264.197 47.5995ZM263.374 48.3591C263.311 48.4857 263.184 48.549 263.058 48.6123C262.931 48.6755 262.804 48.7389 262.678 48.8022C262.551 48.8655 262.361 48.9287 262.235 48.9287L261.475 49.0553L262.361 47.5362L263.121 47.4096C263.311 47.3463 263.437 47.4096 263.564 47.4096C263.691 47.4729 263.691 47.5362 263.754 47.6628C263.754 47.7894 263.69 47.916 263.627 48.0426C263.564 48.1692 263.501 48.2958 263.374 48.3591Z" fill="#77323B"/>
<path d="M256.476 53.1062L256.982 53.0429L259.134 51.0807V52.7264L259.64 52.6631L259.577 50.2578L256.476 53.1062Z" fill="#77323B"/>
<path d="M258.059 49.8782L258.502 49.8149L260.211 48.2958V49.5618L260.654 49.4985L260.59 47.6628L258.059 49.8782Z" fill="#77323B"/>
<path d="M247.044 54.3723L247.424 54.309L248.183 53.2329L249.259 53.1063L249.449 52.7899L248.373 52.9165L248.943 52.1569L250.272 51.967L250.462 51.6505L248.753 51.9037L247.044 54.3723Z" fill="#77323B"/>
<path d="M251.285 52.9165C251.412 52.9165 251.602 52.8532 251.729 52.7899C251.855 52.7266 251.982 52.6633 252.108 52.6C252.235 52.5367 252.298 52.4101 252.425 52.3468C252.488 52.2835 252.615 52.1569 252.678 52.0936C252.741 51.967 252.805 51.9037 252.805 51.8404C252.805 51.7771 252.805 51.7138 252.805 51.6505C252.805 51.5872 252.741 51.5239 252.615 51.5239C252.551 51.5239 252.425 51.5239 252.235 51.5239L251.096 51.7138L249.323 54.0558L249.766 53.9925L251.222 51.8404L251.982 51.7138C252.108 51.7138 252.172 51.7138 252.235 51.7138C252.298 51.7771 252.298 51.7771 252.298 51.8404C252.298 51.9037 252.235 51.967 252.172 52.0303C252.108 52.0936 252.108 52.1569 252.045 52.2202C251.982 52.2835 251.918 52.3468 251.855 52.4101C251.792 52.4734 251.729 52.4734 251.602 52.5367C251.539 52.6 251.412 52.6 251.349 52.6L251.032 52.6633L250.842 52.9798L251.032 53.8026L251.539 53.7393L251.285 52.9165Z" fill="#77323B"/>
<path d="M252.171 53.6761L252.614 53.6128L254.26 51.0809L253.817 51.1442L252.171 53.6761Z" fill="#77323B"/>
<path d="M255.716 52.8533C255.526 52.9166 255.337 52.9798 255.147 52.9798C254.893 52.9798 254.767 52.9799 254.577 52.9166C254.45 52.8533 254.387 52.7267 254.387 52.6001C254.387 52.4735 254.45 52.2836 254.514 52.157C254.64 51.9671 254.767 51.7772 254.957 51.6506C255.147 51.4607 255.4 51.3341 255.59 51.2075C255.843 51.0809 256.096 51.0176 256.286 51.0176C256.476 51.0176 256.602 51.0176 256.729 51.0176C256.856 51.0809 256.919 51.0809 256.982 51.2075L257.489 50.9543C257.425 50.8277 257.299 50.7645 257.109 50.7012C256.919 50.6379 256.729 50.6379 256.476 50.7012C256.159 50.7645 255.843 50.8278 255.526 51.0176C255.21 51.1442 254.893 51.3341 254.64 51.5873C254.387 51.7772 254.134 52.0304 254.007 52.2836C253.881 52.4735 253.817 52.6001 253.817 52.79C253.817 52.9166 253.817 53.0431 253.881 53.1697C253.944 53.2963 254.071 53.3596 254.26 53.3596C254.45 53.4229 254.64 53.4229 254.83 53.3596C255.083 53.2963 255.337 53.233 255.653 53.1697C255.906 53.0431 256.159 52.9166 256.413 52.79L256.223 52.6001C256.096 52.6634 255.906 52.79 255.716 52.8533Z" fill="#77323B"/>
<path d="M262.678 51.6505L262.172 49.8781L261.666 50.0047L260.146 52.5999L260.653 52.5366L261.792 50.5744L262.362 52.3467L262.805 52.2834L264.324 49.5616L263.818 49.6882L262.678 51.6505Z" fill="#77323B"/>
<path d="M244.006 54.7522L244.386 54.6889L246.474 52.9166L246.158 54.4357L246.601 54.3724L246.981 52.157L244.006 54.7522Z" fill="#77323B"/>
<path d="M241.728 53.9291L241.158 53.9924L241.728 53.5493V53.8025V53.9291Z" fill="#77323B"/>
<path d="M239.765 51.3335L239.575 51.5234L239.195 52.9159L239.385 52.8526L239.765 51.3968V51.3335Z" fill="#77323B"/>
<path d="M240.208 50.9539L239.765 52.8528L239.955 52.7895L240.398 50.8273L240.208 50.9539Z" fill="#77323B"/>
<path d="M245.398 51.5235L244.955 51.3969C245.208 51.1437 245.335 50.9538 245.335 50.8272C245.335 50.764 245.208 50.7007 245.082 50.7007C244.765 50.7007 244.322 50.8905 243.816 51.1437C243.752 51.207 243.689 51.207 243.626 51.2703V51.0804C243.689 51.0171 243.752 51.0171 243.816 50.9539C244.385 50.6374 244.955 50.4475 245.398 50.3209C245.461 50.3209 245.461 50.3209 245.525 50.3209L245.588 50.2576V50.1943C245.588 50.1943 245.588 50.1943 245.525 50.1943C245.082 50.2576 244.512 50.5108 243.879 50.8272L244.195 50.4475C244.639 50.1943 245.082 50.0044 245.525 49.8778V49.7512C245.208 49.8778 244.828 50.0044 244.385 50.1943L244.702 49.8145C244.955 49.6879 245.208 49.6246 245.461 49.498V49.3714C245.208 49.498 244.955 49.5613 244.702 49.6879H244.638L243.626 50.7639L243.499 49.1815L240.714 52.1565L241.157 50.131L240.967 50.3209L240.461 52.5996L242.107 50.8272V51.4602L240.524 52.7895V52.9161L242.107 51.5868V51.84L240.461 53.2326V53.3591L242.17 51.9033V52.1565L240.398 53.6756V53.8022L242.233 52.2198V52.473L240.081 54.2453L242.297 53.9288V54.2453L239.828 54.5618L239.765 54.6884L242.486 54.3086L242.297 50.3842L242.74 49.9411L242.993 53.9288L243.183 53.7389L242.93 49.7512L243.373 49.3081L243.499 51.0172L243.562 51.9033L243.626 52.7895L243.816 52.6629L243.752 52.0299L244.638 52.2831L244.702 52.2198L244.828 52.1565L243.752 51.84V51.7767C243.816 51.7134 243.942 51.7134 244.069 51.6501C244.132 51.6501 244.195 51.5868 244.259 51.5868L245.208 51.9033L245.335 51.7767L244.449 51.5235C244.575 51.3969 244.765 51.3336 244.892 51.207L245.715 51.4602L245.841 51.3336L245.398 51.5235ZM242.17 54.1187L240.334 54.3719L242.107 52.9161L242.17 54.1187ZM244.765 51.4602C244.575 51.5868 244.385 51.7134 244.195 51.84C244.132 51.9033 244.006 51.9033 243.942 51.9666C243.879 52.0299 243.752 52.0932 243.689 52.0932L243.626 51.3336C243.689 51.2703 243.752 51.2703 243.816 51.207C244.259 50.9538 244.639 50.8272 244.892 50.8272C245.018 50.8272 245.082 50.8273 245.082 50.8905C245.145 51.0804 245.018 51.207 244.765 51.4602Z" fill="#77323B"/>
<path d="M239.512 55.5743L241.727 55.2578L241.917 55.1312L239.575 55.3844L239.512 55.5743Z" fill="#77323B"/>
<path d="M241.664 50.8273L241.727 50.764L242.234 50.1943L241.411 50.6374L241.284 51.2704L241.664 50.8273Z" fill="#77323B"/>
<path d="M244.07 50.1945V50.1312L244.386 49.8147L243.943 50.0046L243.88 50.3844L244.07 50.1945Z" fill="#77323B"/>
<path d="M241.664 51.5236L240.904 52.4097L241.727 51.7134L241.664 51.5236Z" fill="#77323B"/>
<path d="M238.31 52.7265L238.753 52.8531L238.943 52.0935L238.31 52.7265Z" fill="#77323B"/>
<path d="M239.829 56.3341L240.842 55.7644L239.449 55.891L239.829 56.3341Z" fill="#77323B"/>
<path d="M244.513 51.2705C244.513 51.3971 244.323 51.587 244.134 51.7136L244.07 51.2705C244.324 51.1439 244.513 51.1439 244.513 51.2705Z" fill="#77323B"/>
<path d="M296.607 97.0978L298.506 95.642L297.873 97.351L298.253 97.4776L301.101 95.2622L300.721 95.1989L298.506 96.8446L299.139 95.1356L298.759 95.0723L296.86 96.4648L297.62 94.376L297.113 94.3127L296.101 96.9712L296.607 97.0978Z" fill="white"/>
<path d="M302.114 97.9208L300.595 97.6043L301.165 96.8448L302.367 97.0979L302.557 96.8448L301.354 96.5283L301.861 95.7687L303.19 96.1485L303.38 95.832L301.608 95.3889L299.962 97.7942L301.924 98.2373L302.114 97.9208Z" fill="white"/>
<path d="M305.404 97.9207C305.531 97.9207 305.658 97.9207 305.784 97.9207C305.911 97.9207 305.974 97.8574 306.101 97.7942C306.164 97.7309 306.291 97.6675 306.354 97.6042C306.417 97.541 306.481 97.4777 306.544 97.3511C306.607 97.2878 306.607 97.1612 306.607 97.0979C306.607 97.0346 306.607 96.908 306.607 96.8447C306.607 96.7814 306.544 96.7181 306.417 96.6548C306.354 96.5915 306.227 96.5282 306.101 96.5282L305.088 96.275L303.759 98.617L304.139 98.6803L304.518 97.9207L304.835 97.3511L305.278 96.5915L305.911 96.7814C306.038 96.7814 306.101 96.8447 306.101 96.908C306.164 96.9713 306.164 97.0346 306.164 97.0979C306.164 97.1612 306.164 97.2245 306.101 97.2878C306.101 97.3511 306.037 97.4144 305.974 97.4144C305.911 97.4777 305.911 97.4777 305.848 97.541C305.784 97.6043 305.721 97.6042 305.658 97.6042C305.594 97.6042 305.531 97.6042 305.404 97.6042L305.088 97.541L304.898 97.8575L305.151 98.9335L305.594 99.0601L305.404 97.9207Z" fill="white"/>
<path d="M307.114 98.2373L308.19 98.4272L308.317 98.174L307.304 97.9208L307.62 97.2245L308.76 97.4777L308.823 97.2245L307.367 96.8447L306.291 99.1234L307.937 99.5032L308.063 99.1867L306.797 98.9335L307.114 98.2373Z" fill="white"/>
<path d="M313.127 98.9966C313.127 98.87 313.064 98.7434 313.064 98.6168C313.001 98.4902 312.937 98.4269 312.811 98.3003C312.684 98.237 312.558 98.1737 312.431 98.1104L311.608 97.9205L310.849 100.136L311.735 100.326C311.925 100.389 312.051 100.389 312.178 100.326C312.304 100.326 312.431 100.263 312.558 100.136C312.684 100.073 312.748 99.946 312.874 99.8194C312.937 99.6929 313.001 99.5663 313.064 99.3764C313.127 99.2498 313.127 99.1232 313.127 98.9966ZM312.621 99.6296C312.558 99.6929 312.494 99.8195 312.431 99.8827C312.368 99.946 312.241 100.009 312.178 100.009C312.051 100.009 311.988 100.009 311.861 100.009L311.292 99.8827L311.798 98.237L312.368 98.3636C312.494 98.4269 312.621 98.4902 312.684 98.5535C312.748 98.6801 312.811 98.7434 312.811 98.87C312.811 98.9966 312.811 99.1232 312.748 99.3131C312.748 99.4397 312.684 99.5663 312.621 99.6296Z" fill="white"/>
<path d="M306.925 103.87L307.431 103.934L309.393 101.718L309.583 104.25L310.026 104.314L309.71 100.769L306.925 103.87Z" fill="white"/>
<path d="M308.254 99.5662L308.634 99.6295L310.026 98.237L310.153 100.009L310.533 100.073L310.279 97.604L308.254 99.5662Z" fill="white"/>
<path d="M294.266 102.035L294.899 102.099L296.228 100.453L297.874 100.706L298.19 100.263L296.544 99.9465L297.43 98.8072L299.393 99.1869L299.646 98.8072L297.177 98.3008L294.266 102.035Z" fill="white"/>
<path d="M300.721 101.402C300.911 101.402 301.101 101.402 301.29 101.339C301.48 101.275 301.607 101.212 301.797 101.149C301.923 101.086 302.05 100.959 302.177 100.832C302.303 100.706 302.367 100.579 302.43 100.453C302.493 100.326 302.556 100.199 302.556 100.073C302.556 99.9462 302.556 99.8196 302.556 99.693C302.556 99.5664 302.43 99.5031 302.367 99.3765C302.24 99.3132 302.113 99.2499 301.923 99.1866L300.404 98.8701L297.999 102.478L298.632 102.541L300.721 99.3132L301.67 99.5031C301.797 99.5031 301.923 99.5664 301.987 99.693C302.05 99.7563 302.05 99.8829 302.05 99.9462C302.05 100.073 301.987 100.136 301.923 100.263C301.86 100.326 301.797 100.453 301.734 100.516C301.67 100.579 301.607 100.642 301.48 100.706C301.417 100.769 301.29 100.769 301.164 100.832C301.037 100.832 300.911 100.832 300.784 100.832L300.341 100.769L300.025 101.212L300.278 102.795L300.974 102.921L300.721 101.402Z" fill="white"/>
<path d="M301.924 103.111L302.494 103.238L304.329 99.6929L303.823 99.6296L301.924 103.111Z" fill="white"/>
<path d="M306.101 103.175C305.912 103.238 305.658 103.238 305.469 103.238C305.215 103.175 305.025 103.111 304.836 102.921C304.709 102.795 304.582 102.542 304.582 102.352C304.582 102.098 304.582 101.909 304.709 101.655C304.836 101.402 304.962 101.212 305.215 101.022C305.405 100.833 305.658 100.706 305.912 100.643C306.165 100.579 306.418 100.579 306.608 100.579C306.798 100.643 306.924 100.706 307.051 100.769C307.178 100.896 307.304 101.022 307.367 101.149L307.811 100.959C307.747 100.769 307.621 100.579 307.431 100.453C307.241 100.326 307.051 100.2 306.798 100.2C306.481 100.136 306.165 100.136 305.848 100.263C305.532 100.326 305.215 100.516 304.899 100.769C304.582 101.022 304.392 101.276 304.203 101.592C304.076 101.845 304.013 102.098 304.013 102.288C304.013 102.542 304.013 102.731 304.139 102.921C304.203 103.111 304.392 103.301 304.582 103.428C304.772 103.554 305.025 103.681 305.279 103.681C305.595 103.744 305.848 103.681 306.165 103.618C306.481 103.554 306.734 103.428 306.988 103.238L306.734 102.858C306.545 102.985 306.291 103.111 306.101 103.175Z" fill="white"/>
<path d="M312.558 103.744L311.861 101.212L311.482 101.149L310.469 104.377L310.912 104.44L311.671 101.972L312.368 104.63L312.747 104.693L313.507 101.528L313.127 101.465L312.558 103.744Z" fill="white"/>
<path d="M288.441 101.212L289.264 101.275L293.442 98.8702L292.682 101.782L293.442 101.908L294.391 97.7308L288.441 101.212Z" fill="white"/>
<path d="M283.758 97.8571L282.429 97.6039L283.885 96.9709L283.821 97.0342V97.5406L283.758 97.8571Z" fill="white"/>
<path d="M279.96 90.4513L279.39 90.5779L277.871 93.4263L278.314 93.5528L279.897 90.5779L279.96 90.4513Z" fill="white"/>
<path d="M281.226 90.1351L279.391 93.8064L279.834 93.8697L281.733 90.0085L281.226 90.1351Z" fill="white"/>
<path d="M291.733 95.5154L290.91 94.8824C291.416 94.6292 291.67 94.3127 291.67 94.0595C291.67 93.8696 291.48 93.743 291.163 93.6164C290.657 93.4266 289.771 93.3633 288.758 93.5531C288.631 93.5531 288.441 93.6164 288.315 93.6164V93.1734H288.378C288.505 93.1734 288.631 93.1101 288.758 93.1101C289.897 92.9835 290.973 92.9835 291.733 93.1101C291.796 93.1101 291.859 93.1734 291.923 93.1734L291.986 93.1101V92.9835H291.923C291.1 92.7936 290.024 92.7936 288.821 92.9202L289.518 92.4771C290.404 92.4138 291.227 92.4138 291.923 92.4771V92.2872C291.29 92.2239 290.594 92.2239 289.897 92.2872L290.594 91.9074C291.037 91.9074 291.48 91.9074 291.923 91.9074V91.7175C291.48 91.7175 291.037 91.7175 290.594 91.7175H290.53L288.441 92.9835L288.568 89.8819L281.795 93.3633L283.568 89.5654L283.061 89.692L280.972 94.1228L285.403 91.7808L285.277 93.0468L281.226 94.5659L281.099 94.8824L285.277 93.3L285.213 93.8696L280.783 95.642L280.656 95.9584L285.15 94.1228L285.087 94.6925L280.276 96.6547L280.15 96.9712L285.087 94.9457L285.023 95.5154L279.073 97.9839L284.707 98.8701L284.644 99.5664L278.314 98.5536L278.124 98.8701L285.15 99.9462L285.91 91.401L286.859 90.8947L286.289 99.3765L286.796 99.1233L287.302 90.6415L288.252 90.1351L288.125 93.5531L288.062 95.4521L287.998 97.4143L288.441 97.351L288.505 96.0217L290.15 97.2244L290.277 97.1611L290.467 97.0345L288.505 95.642V95.5154C288.695 95.5154 288.885 95.4521 289.074 95.4521C289.201 95.4521 289.328 95.3888 289.391 95.3888L291.1 96.6547H291.163L291.416 96.4648L289.834 95.3255C290.15 95.2622 290.467 95.1356 290.72 95.0723L292.113 96.085L292.366 95.9584L292.429 95.8951L291.733 95.5154ZM284.707 98.6169L280.15 97.8574L284.96 95.8318L284.707 98.6169ZM290.594 94.8824C290.277 95.009 289.834 95.1356 289.454 95.2622C289.264 95.3255 289.138 95.3255 288.948 95.3888C288.758 95.4521 288.568 95.4521 288.378 95.4521L288.441 93.9329C288.568 93.9329 288.758 93.8696 288.885 93.8696C289.771 93.743 290.53 93.8063 290.973 93.9329C291.163 93.9962 291.29 94.1228 291.353 94.2494C291.353 94.376 291.1 94.6292 290.594 94.8824Z" fill="white"/>
<path d="M277.238 100.199L283.188 101.022L283.758 100.706L277.491 99.8828L277.238 100.199Z" fill="white"/>
<path d="M284.517 91.211L284.707 91.1477L285.973 90.5148H284.074L283.631 91.6541L284.517 91.211Z" fill="white"/>
<path d="M289.517 91.9707L289.581 91.9074L290.214 91.5277L289.328 91.4644L289.138 92.1606L289.517 91.9707Z" fill="white"/>
<path d="M284.391 92.6667L282.365 93.8061L284.454 93.0465L284.391 92.6667Z" fill="white"/>
<path d="M275.466 92.0973L276.668 92.8568L277.555 91.2744L275.466 92.0973Z" fill="white"/>
<path d="M277.808 102.478L280.91 101.592L276.922 101.085L277.808 102.478Z" fill="white"/>
<path d="M290.278 94.3758C290.278 94.629 289.898 94.8189 289.455 94.8822V94.0593C289.898 93.996 290.278 94.1226 290.278 94.3758Z" fill="white"/>
</svg>
