<svg width="137" height="152" viewBox="0 0 137 152" fill="none" xmlns="http://www.w3.org/2000/svg">
<path d="M91.6669 104.328H81.7788L85.4659 95.4457L86.3039 96.6189L89.6558 101.479L91.6669 104.328Z" fill="#77323B"/>
<path d="M8.03664 35.1952L6.27686 38.4633L23.4554 72.2337L26.9749 72.4014L9.04222 37.1225L8.03664 35.1952Z" fill="#77323B"/>
<path d="M11.8911 28.1562L34.5165 72.6527L38.036 72.7365L13.6509 24.8881L11.8911 28.1562Z" fill="#77323B"/>
<path d="M128.873 62.8483L117.644 57.7366C119.404 53.1277 119.152 48.8541 116.806 45.7535C115.13 43.5748 112.616 42.1502 109.432 41.7312C103.901 40.9771 97.0298 43.1558 91.1639 47.5971C90.3259 48.2675 89.4879 48.9378 88.7338 49.6082L85.0466 44.329C85.1304 44.2452 85.2143 44.1614 85.2981 44.0776H85.3819V43.9938C86.136 43.3234 86.8902 42.7368 87.7282 42.0664C94.6834 36.7872 102.728 33.6029 109.851 33.1839H109.935C110.689 33.1001 111.359 33.1001 112.113 33.1839V32.1783L110.605 30.1672C110.354 30.1672 110.102 30.1672 109.851 30.1672H109.767C102.058 30.5862 93.6778 33.8543 86.1361 39.4687L87.393 31.8431C93.2589 28.0722 99.4599 25.1393 105.493 23.4634L103.566 20.8656C98.4543 22.4578 93.175 24.8041 88.0634 27.8208L89.3204 20.1952C92.6723 18.3517 96.0242 16.7595 99.4599 15.5026L97.5325 12.9886C94.013 14.3294 90.5773 16.0054 87.1416 17.9327L86.4712 18.2679L82.7003 41.0609L54.1253 0L43.902 63.0996L19.4331 13.9942L17.6733 17.2623L45.4104 72.8202L51.4438 35.7816L62.0861 51.1166L51.1086 77.3453L52.9521 80.8648L64.1811 54.1333L68.7061 60.6695L56.9744 88.3228L58.818 91.8423L70.8849 63.5186L75.4937 70.1386L62.9241 99.5517L64.7676 103.071L77.5887 73.1554L81.9462 79.524L66.1084 113.63H105.493L110.186 120.417H66.5274L67.7843 123.518H116.052L116.136 123.685L52.2818 31.4241L53.7901 21.955L119.571 116.814L121.163 113.713L54.4605 17.5137L56.0527 7.87698L86.555 51.787L86.4712 51.8708L101.639 73.6582L116.219 94.6914L118.733 92.9316L108.678 78.4346L129.627 87.7362L129.962 86.6468L130.549 84.8032L105.326 73.4906L104.404 72.1498C105.661 71.4794 106.834 70.6414 108.007 69.8035C108.678 69.3007 109.348 68.7979 109.935 68.2113L132.644 78.5184L132.811 78.0156L133.566 75.5855L112.281 65.9488C113.873 64.189 115.298 62.3455 116.387 60.4181L135.66 69.1331L136.415 66.7867L136.582 66.284L128.873 62.8483ZM103.315 110.529H70.6335L83.7897 82.4569L103.315 110.529ZM114.376 57.6528L114.292 57.9042C113.119 60.4181 111.275 62.932 109.013 65.1108C108.175 65.9488 107.169 66.7868 106.164 67.4571C105.074 68.2951 103.901 69.0493 102.728 69.7197L90.5773 52.1221C91.4153 51.368 92.2533 50.6138 93.0913 49.9434C98.2867 46.0049 104.404 43.9938 109.097 44.6642C111.443 44.9993 113.286 46.0049 114.46 47.5133C116.136 50.0272 116.136 53.6305 114.376 57.6528Z" fill="#77323B"/>
<path d="M72.0577 134.244H110.605L112.197 131.143H70.8008L72.0577 134.244Z" fill="#77323B"/>
<path d="M41.2208 31.0889L41.4721 29.6643L43.4833 17.5137L32.2544 24.1337L39.88 39.3011L41.2208 31.0889Z" fill="#77323B"/>
<path d="M81.1923 24.3852L81.2761 23.631L82.3655 16.8434L75.2427 18.7707L80.4381 28.9102L81.1923 24.3852Z" fill="#77323B"/>
<path d="M53.6228 48.6027L51.1089 66.1164L57.2262 53.0439L53.6228 48.6027Z" fill="#77323B"/>
<path d="M0.662598 64.1053L12.5618 68.8817L3.67929 51.0328L0.662598 64.1053Z" fill="#77323B"/>
<path d="M89.907 151.674L101.303 141.87H76.4155L89.907 151.674Z" fill="#77323B"/>
<path d="M107.756 52.7927C109.683 55.6418 109.013 59.4965 106.248 61.4238L99.125 51.2843C101.89 49.2732 105.745 50.0274 107.756 52.7927Z" fill="#77323B"/>
</svg>
