<svg width="34" height="34" viewBox="0 0 34 34" fill="none" xmlns="http://www.w3.org/2000/svg">
<path d="M17.0007 0.333313C19.1893 0.333313 21.3566 0.764409 23.3787 1.60199C25.4008 2.43957 27.2381 3.66722 28.7858 5.21487C30.3334 6.76251 31.5611 8.59983 32.3986 10.6219C33.2362 12.644 33.6673 14.8113 33.6673 17C33.6673 21.4203 31.9114 25.6595 28.7858 28.7851C25.6602 31.9107 21.4209 33.6666 17.0007 33.6666C14.812 33.6666 12.6447 33.2356 10.6226 32.398C8.6005 31.5604 6.76318 30.3327 5.21554 28.7851C2.08993 25.6595 0.333984 21.4203 0.333984 17C0.333984 12.5797 2.08993 8.34047 5.21554 5.21487C8.34114 2.08926 12.5804 0.333313 17.0007 0.333313ZM10.334 9.84998V15.4166L22.234 17L10.334 18.5833V24.15L27.0007 17L10.334 9.84998Z" fill="#77323B"/>
</svg>
